<?xml version='1.0' encoding='UTF-8' standalone='no'?>
<!-- Created with Fritzing (http://www.fritzing.org/) -->
<svg xmlns="http://www.w3.org/2000/svg" baseProfile="tiny" height="0.6in" version="1.2" viewBox="0 0 428.347 600" width="0.428347in" x="0in"  y="0in">
    <desc>
        <referenceFile>sparkfun-connectors_jst-2-pth-ns_breadboard.svg</referenceFile>
    </desc>
    <desc >Fritzing breadboard generated by brd2svg</desc>
    <g gorn="0.1" id="breadboard" >
        <g gorn="0.1.0" id="icon" >
            <path d="M0,0L0,270A30,30 0 0 1 0,330L0,600L428.347,600L428.347,0L0,0z" fill="#1F7A34" stroke="none" stroke-width="0" />
            <g transform="translate(100,148.986)" >
                <g >
                    <g >
                        <g >
                            <g >
                                <polygon fill="#B7B7B7" points="66.8611,242.431,82.8472,242.431,82.8472,195.597,66.8611,195.597" />
                                <polygon fill="#B7B7B7" points="145.528,242.431,161.472,242.431,161.472,195.597,145.528,195.597" />
                            </g>
                        </g>
                        <rect fill="#E8E8E8" height="231.944" width="228.319" x="0.0138889" />
                        <g >
                            <rect fill="#E8E8E8" height="70.0833" width="32.0833" x="0.0138889"  y="231.944"/>
                        </g>
                        <g >
                            <rect fill="#E8E8E8" height="70.0833" width="32.0972" x="196.25"  y="231.944"/>
                        </g>
                        <rect fill="#C1C1C1" height="3" opacity="0.4" width="32.0833" x="196.25"  y="231.944"/>
                        <rect fill="#C1C1C1" height="3" opacity="0.4" width="32.0833" x="0.0138889"  y="231.944"/>
                        <rect fill="#B7B7B7" height="186.694" width="18.3194" x="105.014" />
                    </g>
                </g>
            </g>
        </g>
        <g transform="translate(198.208,534.05)" >
            <g >
                <rect fill="#8D8C8C" gorn="0.1.1.0.0" height="31.9" id="connector0pin" width="31.93" x="0"  y="0"/>
                <rect fill="#8C8663" height="16.4152" width="16.4442" x="7.79153"  y="7.73544"/>
                <polygon fill="#B8AF82" points="0,31.9,7.79153,24.1368,7.79153,6.97162,0,0" />
                <polygon fill="#80795B" points="24.2079,7.76321,7.90264,7.76321,0,0,31.93,0" />
                <polygon fill="#5E5B43" points="24.2079,24.1368,24.2079,7.76321,31.93,0,31.93,31.9" />
                <polygon fill="#9A916C" points="0,31.9,7.87486,24.1368,24.2079,24.1368,31.93,31.9" />
            </g>
        </g>
        <g transform="translate(198.208,34.05)" >
            <g >
                <rect fill="#8D8C8C" gorn="0.1.2.0.0" height="31.9" id="connector1pin" width="31.93" x="0"  y="0"/>
                <rect fill="#8C8663" height="16.4152" width="16.4442" x="7.79153"  y="7.73544"/>
                <polygon fill="#B8AF82" points="0,31.9,7.79153,24.1368,7.79153,6.97162,0,0" />
                <polygon fill="#80795B" points="24.2079,7.76321,7.90264,7.76321,0,0,31.93,0" />
                <polygon fill="#5E5B43" points="24.2079,24.1368,24.2079,7.76321,31.93,0,31.93,31.9" />
                <polygon fill="#9A916C" points="0,31.9,7.87486,24.1368,24.2079,24.1368,31.93,31.9" />
            </g>
        </g>
    </g>
</svg>
