<?xml version="1.0" encoding="UTF-8" standalone="no"?>
<svg
   gorn="0"
   height="30.480001mm"
   id="svg2"
   shape-rendering="crispEdges"
   version="1.2"
   viewBox="0 0 600.00004 1200.0001"
   width="15.240001mm"
   x="0in"
   y="0in"
   xmlns="http://www.w3.org/2000/svg"
   xmlns:svg="http://www.w3.org/2000/svg"
   xmlns:rdf="http://www.w3.org/1999/02/22-rdf-syntax-ns#"
   xmlns:cc="http://creativecommons.org/ns#"
   xmlns:dc="http://purl.org/dc/elements/1.1/">
  <metadata
     id="metadata27">
    <rdf:RDF>
      <cc:Work
         rdf:about="">
        <dc:format>image/svg+xml</dc:format>
        <dc:type
           rdf:resource="http://purl.org/dc/dcmitype/StillImage" />
      </cc:Work>
    </rdf:RDF>
  </metadata>
  <defs
     id="defs25" />
  <desc
     id="desc4">
    <referenceFile>XT30PW-M_1_pcb.svg</referenceFile>
  </desc>
  <g
     gorn="0.3"
     id="silkscreen">
    <g
       id="g6">
      <rect
         fill="none"
         gorn="0.3.0"
         height="346.45676"
         id="rect2"
         stroke="#000000"
         stroke-width="9.99984"
         width="233.70094"
         x="4.9999199"
         y="88.464485" />
      <path
         d="m 319.96054,36.49624 c 0.65157,-20.003921 19.45819,-31.1801005 39.37007,-31.4960605 20.40181,0.0923 39.65215,15.8908295 39.37008,31.4960605 v 82.67716 h 78.74015 v 299.21257 h -78.74015 v 78.74016 c -8.26022,14.66691 -20.8415,22.13205 -39.37008,19.68503 -26.76067,1.83052 -34.59309,-7.98713 -39.37007,-19.68503 V 461.69306 L 238.99992,462 c 0,0 -0.41928,-388.700766 -0.37796,-390.070692 h 81.33858 z"
         fill="none"
         gorn="0.3.1"
         id="upper"
         stroke="#000000"
         stroke-width="10" />
      <path
         d="m 131.46416,257.40874 q 0,-0.55555 0.38889,-0.97222 0.41667,-0.41667 1,-0.41667 h 4.11112 v -16.05557 h -4.11112 q -0.58333,0 -1,-0.41666 -0.38889,-0.41667 -0.38889,-1 0,-0.55556 0.38889,-0.97223 0.41667,-0.41666 1,-0.41666 h 11.02779 q 0.58333,0 1,0.41666 0.41667,0.41667 0.41667,0.97223 0,0.58333 -0.41667,1 -0.41667,0.41666 -1,0.41666 h -4.11111 v 16.05557 h 4.11111 q 0.58333,0 1,0.41667 0.41667,0.41667 0.41667,0.97222 0,0.58333 -0.41667,1 -0.41667,0.41667 -1,0.41667 h -11.02779 q -0.58333,0 -1,-0.41667 -0.38889,-0.41667 -0.38889,-1 z m 20.08334,0 v -12.94445 q 0,-0.58334 0.38889,-1 0.41667,-0.41667 1,-0.41667 0.58333,0 1,0.41667 0.41667,0.41666 0.41667,1 v 0.94444 l 2.66667,-1.69444 q 1.05555,-0.66667 2.25,-0.66667 h 1.58333 q 1.69445,0 2.88889,1.19444 1.22223,1.16667 1.27778,2.83334 l 0.33334,10.33334 q 0,0.58333 -0.41667,1 -0.38889,0.41667 -0.97222,0.41667 -0.55556,0 -0.97223,-0.38889 -0.41666,-0.41667 -0.41666,-0.97222 l -0.36111,-10.30557 q -0.0556,-0.52778 -0.44445,-0.91666 -0.36111,-0.38889 -0.91667,-0.38889 h -1.97222 l -4.52778,2.91667 v 8.63889 q 0,0.58333 -0.41667,1 -0.41667,0.41667 -1,0.41667 -0.58333,0 -1,-0.41667 -0.38889,-0.41667 -0.38889,-1 z m 20.08334,5.91667 v -19.47224 q 0,-0.55555 0.38889,-0.97222 0.41666,-0.41667 1,-0.41667 0.58333,0 1,0.41667 0.41667,0.41667 0.41667,0.97222 v 0.75001 q 0.0556,-0.0556 0.30555,-0.33334 0.27778,-0.27778 0.36111,-0.33333 0.0833,-0.0833 0.33334,-0.30556 0.25,-0.25 0.38889,-0.33333 0.13889,-0.0833 0.38889,-0.25 0.25,-0.19445 0.44444,-0.25 0.22222,-0.0833 0.47222,-0.16667 0.27778,-0.11111 0.55556,-0.13889 0.30555,-0.0278 0.61111,-0.0278 h 0.58333 q 0.80556,0 1.55556,0.33334 0.77778,0.33333 1.13889,0.63889 0.38889,0.27778 1.08333,0.91667 0.0556,0.0555 0.72223,0.63888 0.66666,0.55556 0.83333,0.77778 0.16667,0.19445 0.55556,0.72223 0.41666,0.52777 0.55555,1.05555 0.13889,0.52778 0.13889,1.16667 v 4.47223 q 0,1.88889 -1.47222,3.16666 l -2.38889,2.05556 q -1.13889,1 -2.72223,1 h -0.58333 q -0.86111,0 -1.63889,-0.33333 -0.75,-0.33333 -1.19445,-0.72222 -0.44444,-0.38889 -1.02777,-1.02778 v 6 q 0,0.58334 -0.41667,0.97223 -0.41667,0.41666 -1,0.41666 -0.58334,0 -1,-0.41666 -0.38889,-0.38889 -0.38889,-0.97223 z m 2.80556,-10.58334 q 0,0.33333 0.13889,0.63889 0.13888,0.27778 0.27777,0.44445 0.13889,0.13888 0.41667,0.38888 0.30556,0.25 0.38889,0.33334 0.19444,0.19444 0.52778,0.55555 0.33333,0.33334 0.61111,0.61112 0.27778,0.27777 0.52778,0.5 0.38889,0.38888 0.97222,0.38888 h 0.58333 q 0.55556,0 0.88889,-0.33333 l 2.41667,-2.05556 q 0.47222,-0.36111 0.47222,-1.02777 v -4.47223 q 0,-0.66667 -0.47222,-1.02778 l -2.41667,-2.08333 q -0.33333,-0.33334 -0.88889,-0.33334 h -0.58333 q -0.58333,0 -0.97222,0.38889 l -2.5,2.52778 q -0.38889,0.30556 -0.38889,0.94445 z m 17.27778,-8.27778 q 0,-0.58334 0.38889,-1 0.41666,-0.41667 1,-0.41667 0.55555,0 0.97222,0.41667 0.41667,0.38888 0.41667,0.94444 l 0.36111,10.30556 q 0.0556,0.55556 0.41667,0.94445 0.38889,0.36111 0.94444,0.36111 h 1.97223 l 4.55555,-2.88889 v -8.66667 q 0,-0.58334 0.38889,-1 0.41667,-0.41667 1,-0.41667 0.58334,0 1.00001,0.41667 0.41666,0.41666 0.41666,1 v 12.94445 q 0,0.58333 -0.41666,1 -0.41667,0.41667 -1.00001,0.41667 -0.58333,0 -1,-0.41667 -0.38889,-0.41667 -0.38889,-1 v -0.97222 l -2.69444,1.72222 q -1.05556,0.66667 -2.25,0.66667 h -1.58334 q -1.66667,0 -2.88889,-1.16667 -1.22222,-1.19444 -1.27778,-2.83333 z m 20.47222,1 q -0.38889,-0.41667 -0.38889,-1 0,-0.58334 0.38889,-1 0.41667,-0.41667 1,-0.41667 h 1.36112 v -3.30556 q 0,-0.58333 0.38889,-1 0.41666,-0.41667 1,-0.41667 0.58333,0 1,0.41667 0.41666,0.41667 0.41666,1 v 3.30556 h 5.47223 q 0.58333,0 0.97222,0.41667 0.41667,0.41666 0.41667,1 0,0.58333 -0.41667,1 -0.38889,0.38889 -0.97222,0.38889 h -5.47223 v 8.80556 q 0,0.55555 0.38889,0.97222 0.38889,0.38889 0.94445,0.38889 h 2.77778 q 0.55555,0 0.88889,-0.36111 0.36111,-0.38889 0.47222,-0.80556 0.13889,-0.44444 0.47222,-0.80555 0.36111,-0.38889 0.91667,-0.38889 0.58333,0 1,0.41667 0.41667,0.41666 0.41667,1 v 0.22222 q -0.27778,1.44444 -1.47223,2.5 -1.16666,1.02778 -2.69444,1.02778 h -2.77778 q -1.69445,0 -2.91667,-1.22222 -1.22222,-1.25001 -1.22222,-2.94445 v -8.80556 h -1.36112 q -0.58333,0 -1,-0.38889 z m 39.77779,1.36111 v -2.36111 q 0,-0.58334 0.38889,-1 0.41667,-0.41667 1,-0.41667 0.58334,0 1,0.41667 0.41667,0.41666 0.41667,1 v 2.05555 l 4.08334,9.41668 4.13889,-9.41668 v -2.05555 q 0,-0.58334 0.38889,-1 0.41667,-0.41667 1,-0.41667 0.58333,0 1,0.41667 0.41667,0.41666 0.41667,1 v 2.36111 q 0,0.27778 -0.13889,0.55556 l -4.63889,10.61111 q -0.36112,0.83334 -1.27778,0.83334 h -1.75 q -0.91667,0 -1.27778,-0.83334 l -4.6389,-10.61111 q -0.11111,-0.22223 -0.11111,-0.55556 z m 20.08333,6.97223 v -5.72223 q 0,-0.97222 0.44445,-1.80556 0.44444,-0.83333 0.80555,-1.16666 0.36111,-0.33334 1.22223,-1.05556 1.13889,-1 2.69444,-1 h 3.47223 q 0.36111,0 0.69444,0.0556 0.33334,0.0278 0.66667,0.19445 0.33333,0.13889 0.52778,0.22222 0.19444,0.0556 0.52778,0.33333 0.33333,0.25001 0.41666,0.33334 0.11111,0.0556 0.47223,0.38889 0.38888,0.30555 0.41666,0.33333 1.47223,1.27778 1.47223,3.16667 v 5.72223 q 0,0.44444 -0.0556,0.83333 -0.0556,0.36111 -0.25,0.72222 -0.19444,0.36112 -0.30556,0.58334 -0.0833,0.19444 -0.44444,0.55555 -0.36111,0.36112 -0.44445,0.44445 -0.0555,0.0833 -0.52777,0.5 l -0.47223,0.38889 q -1.13889,1 -2.69444,1 h -3.47223 q -0.44444,0 -0.86111,-0.0833 -0.38889,-0.11112 -0.66667,-0.19445 -0.27777,-0.11111 -0.66666,-0.36111 -0.36112,-0.25 -0.52778,-0.36111 -0.13889,-0.11111 -0.52778,-0.44445 -0.36111,-0.33333 -0.47222,-0.41666 -1.44445,-1.19445 -1.44445,-3.16667 z m 2.80556,0 q 0,0.33333 0.16667,0.63889 0.16666,0.30555 0.33333,0.47222 0.19444,0.16667 0.52778,0.44444 0.33333,0.25 0.44444,0.33334 0.41667,0.33333 0.88889,0.33333 h 3.47223 q 0.38889,0 0.69444,-0.16667 0.30556,-0.16666 0.72223,-0.58333 0.41666,-0.41667 0.47222,-0.44444 0.5,-0.38889 0.5,-1.02778 v -5.72223 q 0,-0.72222 -0.83334,-1.47222 -0.83333,-0.75 -1.55555,-0.75 h -3.47223 q -0.38889,0 -0.69444,0.16666 -0.30556,0.16667 -0.72223,0.58334 -0.41666,0.41666 -0.47222,0.44444 -0.47222,0.38889 -0.47222,1.02778 z m 18.6389,3.61111 q 0,-0.55555 0.41666,-0.97222 0.41667,-0.41667 1.00001,-0.41667 h 2.72222 v -16.05557 h -2.72222 q -0.58334,0 -1.00001,-0.41666 -0.41666,-0.41667 -0.41666,-1 0,-0.55556 0.41666,-0.97223 0.41667,-0.41666 1.00001,-0.41666 h 4.13889 q 0.55555,0 0.97222,0.41666 0.41667,0.41667 0.41667,0.97223 v 17.47223 h 2.72222 q 0.58334,0 1,0.41667 0.41667,0.41667 0.41667,0.97222 0,0.58333 -0.41667,1 -0.41666,0.41667 -1,0.41667 h -8.25 q -0.58334,0 -1.00001,-0.41667 -0.41666,-0.41667 -0.41666,-1 z m 19.11112,-11.94445 q -0.38889,-0.41667 -0.38889,-1 0,-0.58334 0.38889,-1 0.41666,-0.41667 1,-0.41667 h 1.36111 v -3.30556 q 0,-0.58333 0.38889,-1 0.41667,-0.41667 1,-0.41667 0.58333,0 1,0.41667 0.41667,0.41667 0.41667,1 v 3.30556 h 5.47223 q 0.58333,0 0.97222,0.41667 0.41667,0.41666 0.41667,1 0,0.58333 -0.41667,1 -0.38889,0.38889 -0.97222,0.38889 h -5.47223 v 8.80556 q 0,0.55555 0.38889,0.97222 0.38889,0.38889 0.94444,0.38889 h 2.77778 q 0.55556,0 0.88889,-0.36111 0.36111,-0.38889 0.47223,-0.80556 0.13888,-0.44444 0.47222,-0.80555 0.36111,-0.38889 0.91667,-0.38889 0.58333,0 1,0.41667 0.41666,0.41666 0.41666,1 v 0.22222 q -0.27778,1.44444 -1.47222,2.5 -1.16667,1.02778 -2.69445,1.02778 h -2.77778 q -1.69444,0 -2.91667,-1.22222 -1.22222,-1.25001 -1.22222,-2.94445 v -8.80556 h -1.36111 q -0.58334,0 -1,-0.38889 z m 19.69444,9.19445 v -1.55556 q 0,-1.72222 1.22222,-2.94444 1.22222,-1.22223 2.91667,-1.22223 h 5.36111 q 0.66667,0 1.22223,0.19445 0,-0.19445 -0.0278,-0.63889 0,-0.47223 -0.0278,-0.66667 0,-0.22222 -0.0555,-0.61111 -0.0278,-0.38889 -0.11111,-0.55556 -0.0833,-0.19444 -0.25,-0.41666 -0.13889,-0.22223 -0.38889,-0.30556 -0.22223,-0.0833 -0.55556,-0.0833 h -5.16667 q -0.58333,0 -1,-0.38889 -0.38889,-0.41667 -0.38889,-1 0,-0.58334 0.38889,-1 0.41667,-0.41667 1,-0.41667 h 5.16667 q 1.69445,0 2.88889,1.19444 1.22222,1.16667 1.27778,2.83334 l 0.36111,10.36112 q 0,0.58333 -0.44444,1 -0.41667,0.38889 -1,0.38889 -0.55556,0 -0.97223,-0.41667 -0.38889,-0.41667 -0.38889,-0.97222 l -2.05555,1.19444 q -0.27778,0.19445 -0.69445,0.19445 h -4.13889 q -1.69445,0 -2.91667,-1.22222 -1.22222,-1.22223 -1.22222,-2.94445 z m 2.80555,0 q 0,0.55555 0.38889,0.97222 0.38889,0.38889 0.94445,0.38889 h 3.75 l 2.97223,-1.75 v -1.22222 q 0,-0.5 -0.44445,-0.88889 -0.41667,-0.41667 -0.91667,-0.41667 h -5.36111 q -0.52778,0 -0.94445,0.41667 -0.38889,0.38889 -0.38889,0.94444 z m 17.27779,-2.05556 v -4.52778 q 0,-0.30556 0.0278,-0.61111 0.0555,-0.30556 0.0833,-0.52778 0.0556,-0.22222 0.19445,-0.5 0.16666,-0.27778 0.22222,-0.41667 0.0555,-0.13889 0.27778,-0.38889 0.22222,-0.27777 0.27777,-0.36111 0.0556,-0.0833 0.33334,-0.33333 0.30555,-0.25 0.33333,-0.27778 0.0556,-0.0555 0.36111,-0.30555 0.33334,-0.27778 0.36111,-0.30556 1.13889,-1 2.69445,-1 h 2.08334 q 0.44444,0 0.86111,0.11111 0.41666,0.0833 0.66667,0.19444 0.27777,0.0833 0.69444,0.36112 0.41667,0.27777 0.52778,0.36111 0.11111,0.0833 0.52778,0.47222 0.44444,0.38889 0.5,0.41667 v -0.5 q 0,-0.58334 0.38889,-1 0.41666,-0.41667 1,-0.41667 0.58333,0 1,0.41667 0.41666,0.41666 0.41666,1 v 15.22223 q 0,0.44445 -0.0556,0.80556 -0.0556,0.38889 -0.25,0.75 -0.19445,0.36111 -0.30556,0.55555 -0.0833,0.22223 -0.44444,0.58334 -0.36111,0.36111 -0.44445,0.44444 -0.0556,0.0833 -0.52777,0.5 l -0.47223,0.38889 q -1.13889,1 -2.69444,1 h -5.86112 q -0.58333,0 -1,-0.41666 -0.41667,-0.38889 -0.41667,-0.97223 0,-0.58333 0.41667,-1 0.41667,-0.41667 1,-0.41667 h 5.86112 q 0.38889,0 0.69444,-0.19444 0.33333,-0.19444 0.72222,-0.55556 0.38889,-0.36111 0.47223,-0.44444 0.5,-0.38889 0.5,-1.02778 v -3.91667 q -0.63889,0.58333 -1.05556,0.91667 -0.41667,0.33333 -1.16667,0.66667 -0.75,0.30555 -1.55555,0.30555 h -2.08334 q -0.41667,0 -0.86111,-0.0833 -0.41667,-0.11111 -0.66667,-0.19445 -0.25,-0.0833 -0.66666,-0.36111 -0.41667,-0.30555 -0.52778,-0.36111 -0.0833,-0.0833 -0.52778,-0.5 l -0.47222,-0.38889 q -1.44445,-1.25 -1.44445,-3.16667 z m 2.77778,0 q 0,0.75 0.80556,1.5 0.83333,0.75 1.58333,0.75 h 2.08334 q 0.55555,0 0.88889,-0.33333 l 2.38889,-2.05556 q 0.5,-0.38889 0.5,-1.02778 v -2.16666 q 0,-0.58334 -0.5,-1.02778 l -2.38889,-2.05556 q -0.33334,-0.33333 -0.88889,-0.33333 h -2.08334 q -0.41667,0 -0.75,0.19444 -0.30556,0.19445 -0.63889,0.52778 -0.33333,0.33333 -0.5,0.44444 -0.5,0.5 -0.5,1.05556 z m 17.30556,1.19445 v -5.72223 q 0,-0.97222 0.44445,-1.80556 0.44444,-0.83333 0.80555,-1.16666 0.36112,-0.33334 1.22223,-1.05556 1.13889,-1 2.69444,-1 h 3.47223 q 0.27778,0 0.52778,0.0278 0.27778,0.0278 0.55555,0.11111 0.27778,0.0833 0.44445,0.13889 0.16667,0.0556 0.44444,0.22222 0.27778,0.16667 0.36111,0.22222 0.11112,0.0556 0.38889,0.30556 0.27778,0.22222 0.33334,0.25 0.0555,0.0278 0.36111,0.30555 l 0.30555,0.27778 q 1.47223,1.27778 1.47223,3.16667 v 3.44445 q 0,0.58333 -0.41667,1 -0.41667,0.41667 -1,0.41667 h -9.61112 v 0.86111 q 0,0.33333 0.16667,0.63889 0.16667,0.30555 0.33333,0.47222 0.19445,0.16667 0.52778,0.44444 0.33333,0.25 0.44445,0.33334 0.41666,0.33333 0.88888,0.33333 h 7.25001 q 0.58333,0 1,0.41667 0.41667,0.41667 0.41667,0.97222 0,0.58333 -0.41667,1 -0.41667,0.41667 -1,0.41667 h -7.25001 q -0.30555,0 -0.58333,-0.0278 -0.25,-0.0278 -0.52778,-0.11111 -0.25,-0.0833 -0.44444,-0.13889 -0.19445,-0.0833 -0.44445,-0.22222 -0.22222,-0.13889 -0.36111,-0.22222 -0.13889,-0.0833 -0.38889,-0.27778 -0.22222,-0.19445 -0.30555,-0.25 -0.0833,-0.0833 -0.36111,-0.30556 -0.25,-0.25 -0.30556,-0.30555 -1.44445,-1.19445 -1.44445,-3.16667 z m 2.80556,-3.66667 h 8.22223 v -2.05556 q 0,-0.72222 -0.83333,-1.47222 -0.83334,-0.75 -1.55556,-0.75 h -3.47223 q -0.38888,0 -0.69444,0.16666 -0.30556,0.16667 -0.72222,0.58334 -0.41667,0.41666 -0.47223,0.44444 -0.47222,0.38889 -0.47222,1.02778 z m 17.27779,6.11111 q 0,-0.58333 0.38889,-0.97222 0.38889,-0.41667 0.97222,-0.41667 0.5,0 1.02778,0.41667 0.52778,0.38889 0.77778,0.47222 0.0555,0.0278 0.33333,0.16667 0.27778,0.11111 0.38889,0.11111 h 5.63889 q 0.66667,0 1.02778,-0.44444 0.38889,-0.44445 0.38889,-1.05556 0,-0.94445 -0.80556,-1.30556 l -7.69445,-3.33333 q -0.94444,-0.41667 -1.52778,-1.33334 -0.58333,-0.94444 -0.58333,-2.02778 0,-1.41666 1.02778,-2.41666 1.05556,-1.05556 2.52778,-1.05556 h 5.94445 q 2.08333,0 3.41667,1.75 0.27778,0.36111 0.27778,0.83333 0,0.58334 -0.41667,1 -0.41667,0.41667 -1,0.41667 -0.5,0 -1.13889,-0.58333 -0.61111,-0.61111 -1.13889,-0.61111 h -5.94445 q -0.36111,0 -0.58333,0.25 -0.19445,0.25 -0.19445,0.55555 0,0.5 0.44445,0.66667 l 7.72222,3.33334 q 1.05556,0.47222 1.77778,1.55555 0.75,1.05556 0.75,2.33334 v 0.0556 q -0.0278,1.75 -1.27777,3.00001 -1.25001,1.22222 -3.00001,1.22222 h -5.25 q -2.02778,0 -3.75,-1.47222 -0.52778,-0.44445 -0.52778,-1.11112 z"
         id="text1"
         style="font-size:27.7778px;font-family:OCRA;-inkscape-font-specification:OCRA;letter-spacing:0px;stroke:#ffbf00;stroke-width:0;stroke-linecap:square;stroke-miterlimit:4.7;paint-order:stroke fill markers"
         aria-label="Input voltages" />
    </g>
    <g
       id="g7"
       transform="translate(0,600.00002)">
      <rect
         fill="none"
         gorn="0.3.0"
         height="346.45676"
         id="rect6"
         stroke="#000000"
         stroke-width="9.99984"
         width="233.70094"
         x="4.9999199"
         y="88.464485" />
      <path
         d="m 319.96054,36.49624 c 0.65157,-20.003921 19.45819,-31.1801005 39.37007,-31.4960605 20.40181,0.0923 39.65215,15.8908295 39.37008,31.4960605 v 82.67716 h 78.74015 v 299.21257 h -78.74015 v 78.74016 c -8.26022,14.66691 -20.8415,22.13205 -39.37008,19.68503 -26.76067,1.83052 -34.59309,-7.98713 -39.37007,-19.68503 V 461.69306 L 238.99992,462 c 0,0 -0.41928,-388.700766 -0.37796,-390.070692 h 81.33858 z"
         fill="none"
         gorn="0.3.1"
         id="path6"
         stroke="#000000"
         stroke-width="10" />
      <path
         d="m 110.72171,244.84815 q 0,-1.47223 0.66667,-2.86112 l 2.97222,-5.97222 q 0.44444,-0.86112 1.30556,-1.41667 0.88889,-0.58334 1.94444,-0.58334 1.08334,0 1.94445,0.58334 0.88889,0.55555 1.33333,1.41667 l 2.97223,5.97222 q 0.69444,1.44445 0.69444,2.86112 0,1.41666 -0.69444,2.86111 l -2.97223,5.97223 q -0.44444,0.86111 -1.33333,1.44444 -0.86111,0.55556 -1.94445,0.55556 -1.05555,0 -1.94444,-0.55556 -0.86112,-0.58333 -1.30556,-1.44444 l -2.97222,-5.97223 q -0.66667,-1.27778 -0.66667,-2.86111 z m 3.16667,-1.61112 q -0.36111,0.77778 -0.36111,1.61112 0,0.83333 0.36111,1.61111 l 3,5.94445 q 0.22222,0.47222 0.72222,0.47222 0.55556,0 0.77778,-0.44444 l 2.97223,-5.97223 q 0.38888,-0.94445 0.38888,-1.61111 0,-0.83334 -0.38888,-1.61112 l -3.00001,-5.91667 q -0.22222,-0.5 -0.75,-0.5 -0.47222,0 -0.72222,0.5 z m 16.91667,-1.91666 q 0,-0.58334 0.38889,-1.00001 0.41666,-0.41666 1,-0.41666 0.55555,0 0.97222,0.41666 0.41667,0.38889 0.41667,0.94445 l 0.36111,10.30556 q 0.0556,0.55556 0.41666,0.94445 0.38889,0.36111 0.94445,0.36111 h 1.97222 l 4.55556,-2.88889 v -8.66667 q 0,-0.58334 0.38889,-1.00001 0.41667,-0.41666 1,-0.41666 0.58334,0 1,0.41666 0.41667,0.41667 0.41667,1.00001 v 12.94445 q 0,0.58333 -0.41667,1 -0.41666,0.41667 -1,0.41667 -0.58333,0 -1,-0.41667 -0.38889,-0.41667 -0.38889,-1 v -0.97222 l -2.69444,1.72222 q -1.05556,0.66667 -2.25001,0.66667 h -1.58333 q -1.66667,0 -2.88889,-1.16667 -1.22222,-1.19444 -1.27778,-2.83334 z m 20.47222,1 q -0.38889,-0.41667 -0.38889,-1 0,-0.58334 0.38889,-1.00001 0.41667,-0.41666 1,-0.41666 h 1.36112 v -3.30556 q 0,-0.58333 0.38889,-1 0.41666,-0.41667 1,-0.41667 0.58333,0 1,0.41667 0.41666,0.41667 0.41666,1 v 3.30556 h 5.47223 q 0.58333,0 0.97222,0.41666 0.41667,0.41667 0.41667,1.00001 0,0.58333 -0.41667,1 -0.38889,0.38889 -0.97222,0.38889 h -5.47223 v 8.80556 q 0,0.55555 0.38889,0.97222 0.38889,0.38889 0.94445,0.38889 h 2.77778 q 0.55555,0 0.88889,-0.36111 0.36111,-0.38889 0.47222,-0.80556 0.13889,-0.44444 0.47222,-0.80555 0.36111,-0.38889 0.91667,-0.38889 0.58333,0 1,0.41666 0.41667,0.41667 0.41667,1.00001 v 0.22222 q -0.27778,1.44444 -1.47223,2.5 -1.16666,1.02778 -2.69444,1.02778 h -2.77778 q -1.69445,0 -2.91667,-1.22223 -1.22222,-1.25 -1.22222,-2.94444 v -8.80556 h -1.36112 q -0.58333,0 -1,-0.38889 z m 19.69445,17.86112 v -19.47224 q 0,-0.55555 0.38889,-0.97222 0.41667,-0.41667 1,-0.41667 0.58334,0 1,0.41667 0.41667,0.41667 0.41667,0.97222 v 0.75 q 0.0556,-0.0556 0.30556,-0.33333 0.27778,-0.27778 0.36111,-0.33333 0.0833,-0.0833 0.33333,-0.30556 0.25,-0.25 0.38889,-0.33333 0.13889,-0.0833 0.38889,-0.25 0.25,-0.19445 0.44445,-0.25 0.22222,-0.0833 0.47222,-0.16667 0.27778,-0.11111 0.55555,-0.13889 0.30556,-0.0278 0.61112,-0.0278 h 0.58333 q 0.80556,0 1.55556,0.33334 0.77777,0.33333 1.13889,0.63889 0.38889,0.27778 1.08333,0.91666 0.0556,0.0556 0.72222,0.63889 0.66667,0.55556 0.83334,0.77778 0.16666,0.19445 0.55555,0.72223 0.41667,0.52777 0.55556,1.05555 0.13889,0.52778 0.13889,1.16667 v 4.47222 q 0,1.8889 -1.47223,3.16667 l -2.38889,2.05556 q -1.13889,1 -2.72222,1 h -0.58333 q -0.86112,0 -1.63889,-0.33333 -0.75001,-0.33334 -1.19445,-0.72222 -0.44444,-0.38889 -1.02778,-1.02778 v 6 q 0,0.58334 -0.41667,0.97222 -0.41666,0.41667 -1,0.41667 -0.58333,0 -1,-0.41667 -0.38889,-0.38888 -0.38889,-0.97222 z m 2.80556,-10.58334 q 0,0.33333 0.13889,0.63889 0.13889,0.27778 0.27778,0.44444 0.13889,0.13889 0.41667,0.38889 0.30555,0.25 0.38888,0.33334 0.19445,0.19444 0.52778,0.55555 0.33334,0.33334 0.61111,0.61111 0.27778,0.27778 0.52778,0.5 0.38889,0.38889 0.97223,0.38889 h 0.58333 q 0.55556,0 0.88889,-0.33333 l 2.41667,-2.05556 q 0.47222,-0.36111 0.47222,-1.02778 v -4.47222 q 0,-0.66667 -0.47222,-1.02778 l -2.41667,-2.08333 q -0.33333,-0.33334 -0.88889,-0.33334 h -0.58333 q -0.58334,0 -0.97223,0.38889 l -2.5,2.52778 q -0.38889,0.30556 -0.38889,0.94445 z m 17.27778,-8.27778 q 0,-0.58334 0.38889,-1.00001 0.41667,-0.41666 1,-0.41666 0.55556,0 0.97222,0.41666 0.41667,0.38889 0.41667,0.94445 l 0.36111,10.30556 q 0.0556,0.55556 0.41667,0.94445 0.38889,0.36111 0.94444,0.36111 h 1.97223 l 4.55556,-2.88889 v -8.66667 q 0,-0.58334 0.38889,-1.00001 0.41666,-0.41666 1,-0.41666 0.58333,0 1,0.41666 0.41666,0.41667 0.41666,1.00001 v 12.94445 q 0,0.58333 -0.41666,1 -0.41667,0.41667 -1,0.41667 -0.58334,0 -1,-0.41667 -0.38889,-0.41667 -0.38889,-1 v -0.97222 l -2.69445,1.72222 q -1.05556,0.66667 -2.25,0.66667 h -1.58334 q -1.66666,0 -2.88889,-1.16667 -1.22222,-1.19444 -1.27778,-2.83334 z m 20.47222,1 q -0.38888,-0.41667 -0.38888,-1 0,-0.58334 0.38888,-1.00001 0.41667,-0.41666 1.00001,-0.41666 h 1.36111 v -3.30556 q 0,-0.58333 0.38889,-1 0.41666,-0.41667 1,-0.41667 0.58333,0 1,0.41667 0.41667,0.41667 0.41667,1 v 3.30556 h 5.47222 q 0.58334,0 0.97222,0.41666 0.41667,0.41667 0.41667,1.00001 0,0.58333 -0.41667,1 -0.38888,0.38889 -0.97222,0.38889 h -5.47222 v 8.80556 q 0,0.55555 0.38888,0.97222 0.38889,0.38889 0.94445,0.38889 h 2.77778 q 0.55556,0 0.88889,-0.36111 0.36111,-0.38889 0.47222,-0.80556 0.13889,-0.44444 0.47222,-0.80555 0.36112,-0.38889 0.91667,-0.38889 0.58334,0 1,0.41666 0.41667,0.41667 0.41667,1.00001 v 0.22222 q -0.27778,1.44444 -1.47222,2.5 -1.16667,1.02778 -2.69445,1.02778 h -2.77778 q -1.69445,0 -2.91667,-1.22223 -1.22222,-1.25 -1.22222,-2.94444 v -8.80556 h -1.36111 q -0.58334,0 -1.00001,-0.38889 z m 39.77779,1.36111 v -2.36111 q 0,-0.58334 0.38889,-1.00001 0.41666,-0.41666 1,-0.41666 0.58333,0 1,0.41666 0.41666,0.41667 0.41666,1.00001 v 2.05555 l 4.08334,9.41668 4.13889,-9.41668 v -2.05555 q 0,-0.58334 0.38889,-1.00001 0.41667,-0.41666 1,-0.41666 0.58334,0 1,0.41666 0.41667,0.41667 0.41667,1.00001 v 2.36111 q 0,0.27778 -0.13889,0.55555 l -4.63889,10.61112 q -0.36111,0.83334 -1.27778,0.83334 h -1.75 q -0.91667,0 -1.27778,-0.83334 l -4.63889,-10.61112 q -0.11111,-0.22222 -0.11111,-0.55555 z m 20.08334,6.97223 v -5.72223 q 0,-0.97222 0.44445,-1.80556 0.44444,-0.83333 0.80555,-1.16666 0.36111,-0.33334 1.22222,-1.05556 1.13889,-1 2.69445,-1 h 3.47223 q 0.36111,0 0.69444,0.0556 0.33333,0.0278 0.66667,0.19445 0.33333,0.13889 0.52778,0.22222 0.19444,0.0556 0.52777,0.33333 0.33334,0.25 0.41667,0.33334 0.11111,0.0556 0.47222,0.38889 0.38889,0.30555 0.41667,0.33333 1.47222,1.27778 1.47222,3.16667 v 5.72223 q 0,0.44444 -0.0555,0.83333 -0.0556,0.36111 -0.25,0.72222 -0.19445,0.36111 -0.30556,0.58334 -0.0833,0.19444 -0.44444,0.55555 -0.36111,0.36111 -0.44445,0.44445 -0.0555,0.0833 -0.52777,0.5 l -0.47223,0.38889 q -1.13889,1 -2.69444,1 h -3.47223 q -0.44444,0 -0.86111,-0.0833 -0.38889,-0.11111 -0.66667,-0.19444 -0.27778,-0.11111 -0.66666,-0.36111 -0.36112,-0.25 -0.52778,-0.36111 -0.13889,-0.11111 -0.52778,-0.44445 -0.36111,-0.33333 -0.47222,-0.41666 -1.44445,-1.19445 -1.44445,-3.16667 z m 2.80556,0 q 0,0.33333 0.16667,0.63889 0.16666,0.30555 0.33333,0.47222 0.19444,0.16667 0.52778,0.44444 0.33333,0.25 0.44444,0.33334 0.41667,0.33333 0.88889,0.33333 h 3.47223 q 0.38889,0 0.69444,-0.16667 0.30556,-0.16666 0.72222,-0.58333 0.41667,-0.41667 0.47223,-0.44445 0.5,-0.38888 0.5,-1.02777 v -5.72223 q 0,-0.72222 -0.83334,-1.47222 -0.83333,-0.75 -1.55555,-0.75 h -3.47223 q -0.38889,0 -0.69444,0.16666 -0.30556,0.16667 -0.72223,0.58334 -0.41666,0.41666 -0.47222,0.44444 -0.47222,0.38889 -0.47222,1.02778 z m 18.6389,3.61111 q 0,-0.55556 0.41666,-0.97222 0.41667,-0.41667 1,-0.41667 h 2.72223 v -16.05557 h -2.72223 q -0.58333,0 -1,-0.41666 -0.41666,-0.41667 -0.41666,-1.00001 0,-0.55555 0.41666,-0.97222 0.41667,-0.41667 1,-0.41667 h 4.1389 q 0.55555,0 0.97222,0.41667 0.41667,0.41667 0.41667,0.97222 v 17.47224 h 2.72222 q 0.58333,0 1,0.41667 0.41667,0.41666 0.41667,0.97222 0,0.58333 -0.41667,1 -0.41667,0.41667 -1,0.41667 h -8.25001 q -0.58333,0 -1,-0.41667 -0.41666,-0.41667 -0.41666,-1 z m 19.1111,-11.94445 q -0.38889,-0.41667 -0.38889,-1 0,-0.58334 0.38889,-1.00001 0.41667,-0.41666 1,-0.41666 h 1.36111 v -3.30556 q 0,-0.58333 0.38889,-1 0.41667,-0.41667 1,-0.41667 0.58334,0 1.00001,0.41667 0.41666,0.41667 0.41666,1 v 3.30556 h 5.47223 q 0.58333,0 0.97222,0.41666 0.41667,0.41667 0.41667,1.00001 0,0.58333 -0.41667,1 -0.38889,0.38889 -0.97222,0.38889 h -5.47223 v 8.80556 q 0,0.55555 0.38889,0.97222 0.38889,0.38889 0.94445,0.38889 h 2.77778 q 0.55555,0 0.88889,-0.36111 0.36111,-0.38889 0.47222,-0.80556 0.13889,-0.44444 0.47222,-0.80555 0.36111,-0.38889 0.91667,-0.38889 0.58333,0 1,0.41666 0.41667,0.41667 0.41667,1.00001 v 0.22222 q -0.27778,1.44444 -1.47223,2.5 -1.16666,1.02778 -2.69444,1.02778 h -2.77778 q -1.69445,0 -2.91667,-1.22223 -1.22223,-1.25 -1.22223,-2.94444 v -8.80556 h -1.36111 q -0.58333,0 -1,-0.38889 z m 19.69446,9.19445 v -1.55556 q 0,-1.72222 1.22222,-2.94445 1.22222,-1.22222 2.91667,-1.22222 h 5.36111 q 0.66667,0 1.22223,0.19445 0,-0.19445 -0.0278,-0.63889 0,-0.47223 -0.0278,-0.66667 0,-0.22222 -0.0555,-0.61111 -0.0278,-0.38889 -0.11112,-0.55556 -0.0833,-0.19444 -0.25,-0.41667 -0.13888,-0.22222 -0.38889,-0.30555 -0.22222,-0.0833 -0.55555,-0.0833 h -5.16667 q -0.58334,0 -1,-0.38889 -0.38889,-0.41667 -0.38889,-1 0,-0.58334 0.38889,-1.00001 0.41666,-0.41666 1,-0.41666 h 5.16667 q 1.69444,0 2.88889,1.19444 1.22222,1.16667 1.27778,2.83334 l 0.36111,10.36112 q 0,0.58333 -0.44444,1 -0.41667,0.38889 -1.00001,0.38889 -0.55555,0 -0.97222,-0.41667 -0.38889,-0.41667 -0.38889,-0.97222 l -2.05555,1.19444 q -0.27778,0.19445 -0.69445,0.19445 h -4.13889 q -1.69445,0 -2.91667,-1.22223 -1.22222,-1.22222 -1.22222,-2.94444 z m 2.80555,0 q 0,0.55555 0.38889,0.97222 0.38889,0.38889 0.94445,0.38889 h 3.75 l 2.97223,-1.75 v -1.22222 q 0,-0.5 -0.44445,-0.88889 -0.41667,-0.41667 -0.91667,-0.41667 h -5.36111 q -0.52778,0 -0.94445,0.41667 -0.38889,0.38889 -0.38889,0.94444 z m 17.27779,-2.05556 v -4.52778 q 0,-0.30556 0.0278,-0.61111 0.0555,-0.30556 0.0833,-0.52778 0.0556,-0.22222 0.19445,-0.5 0.16666,-0.27778 0.22222,-0.41667 0.0555,-0.13889 0.27778,-0.38889 0.22222,-0.27777 0.27777,-0.36111 0.0556,-0.0833 0.33334,-0.33333 0.30555,-0.25 0.33333,-0.27778 0.0556,-0.0556 0.36111,-0.30556 0.33334,-0.27777 0.36111,-0.30555 1.13889,-1 2.69445,-1 h 2.08334 q 0.44444,0 0.86111,0.11111 0.41666,0.0833 0.66666,0.19444 0.27778,0.0833 0.69445,0.36112 0.41667,0.27777 0.52778,0.36111 0.11111,0.0833 0.52778,0.47222 0.44444,0.38889 0.5,0.41667 v -0.5 q 0,-0.58334 0.38889,-1.00001 0.41666,-0.41666 1,-0.41666 0.58333,0 1,0.41666 0.41666,0.41667 0.41666,1.00001 v 15.22223 q 0,0.44444 -0.0556,0.80556 -0.0556,0.38889 -0.25,0.75 -0.19445,0.36111 -0.30556,0.55555 -0.0833,0.22222 -0.44444,0.58334 -0.36111,0.36111 -0.44445,0.44444 -0.0556,0.0833 -0.52778,0.5 l -0.47222,0.38889 q -1.13889,1 -2.69444,1 h -5.86112 q -0.58333,0 -1,-0.41667 -0.41667,-0.38888 -0.41667,-0.97222 0,-0.58333 0.41667,-1 0.41667,-0.41667 1,-0.41667 h 5.86112 q 0.38888,0 0.69444,-0.19444 0.33333,-0.19445 0.72222,-0.55556 0.38889,-0.36111 0.47223,-0.44444 0.5,-0.38889 0.5,-1.02778 v -3.91667 q -0.63889,0.58333 -1.05556,0.91667 -0.41667,0.33333 -1.16667,0.66666 -0.75,0.30556 -1.55555,0.30556 h -2.08334 q -0.41667,0 -0.86111,-0.0833 -0.41667,-0.11111 -0.66667,-0.19445 -0.25,-0.0833 -0.66667,-0.36111 -0.41666,-0.30555 -0.52777,-0.36111 -0.0833,-0.0833 -0.52778,-0.5 l -0.47222,-0.38889 q -1.44445,-1.25 -1.44445,-3.16667 z m 2.77778,0 q 0,0.75 0.80556,1.5 0.83333,0.75 1.58333,0.75 h 2.08334 q 0.55555,0 0.88888,-0.33333 l 2.3889,-2.05556 q 0.5,-0.38889 0.5,-1.02778 v -2.16667 q 0,-0.58333 -0.5,-1.02777 l -2.3889,-2.05556 q -0.33333,-0.33333 -0.88888,-0.33333 h -2.08334 q -0.41667,0 -0.75,0.19444 -0.30556,0.19444 -0.63889,0.52778 -0.33333,0.33333 -0.5,0.44444 -0.5,0.5 -0.5,1.05556 z m 17.30556,1.19445 v -5.72223 q 0,-0.97222 0.44445,-1.80556 0.44444,-0.83333 0.80555,-1.16666 0.36112,-0.33334 1.22223,-1.05556 1.13889,-1 2.69444,-1 h 3.47223 q 0.27778,0 0.52778,0.0278 0.27777,0.0278 0.55555,0.11111 0.27778,0.0833 0.44445,0.13889 0.16666,0.0556 0.44444,0.22222 0.27778,0.16667 0.36111,0.22222 0.11112,0.0556 0.38889,0.30556 0.27778,0.22222 0.33334,0.25 0.0555,0.0278 0.36111,0.30555 l 0.30555,0.27778 q 1.47223,1.27778 1.47223,3.16667 v 3.44445 q 0,0.58333 -0.41667,1 -0.41667,0.41666 -1,0.41666 h -9.61112 v 0.86112 q 0,0.33333 0.16667,0.63889 0.16666,0.30555 0.33333,0.47222 0.19445,0.16667 0.52778,0.44444 0.33333,0.25 0.44444,0.33334 0.41667,0.33333 0.88889,0.33333 h 7.25001 q 0.58333,0 1,0.41667 0.41667,0.41666 0.41667,0.97222 0,0.58333 -0.41667,1 -0.41667,0.41667 -1,0.41667 h -7.25001 q -0.30555,0 -0.58333,-0.0278 -0.25,-0.0278 -0.52778,-0.11111 -0.25,-0.0833 -0.44444,-0.13889 -0.19445,-0.0833 -0.44445,-0.22222 -0.22222,-0.13889 -0.36111,-0.22222 -0.13889,-0.0833 -0.38889,-0.27778 -0.22222,-0.19445 -0.30555,-0.25 -0.0833,-0.0833 -0.36112,-0.30556 -0.25,-0.25 -0.30555,-0.30555 -1.44445,-1.19445 -1.44445,-3.16667 z m 2.80556,-3.66667 h 8.22223 v -2.05556 q 0,-0.72222 -0.83333,-1.47222 -0.83334,-0.75 -1.55556,-0.75 h -3.47223 q -0.38889,0 -0.69444,0.16666 -0.30556,0.16667 -0.72222,0.58334 -0.41667,0.41666 -0.47223,0.44444 -0.47222,0.38889 -0.47222,1.02778 z m 17.27776,6.11111 q 0,-0.58333 0.38889,-0.97222 0.38888,-0.41667 0.97222,-0.41667 0.5,0 1.02778,0.41667 0.52777,0.38889 0.77778,0.47222 0.0556,0.0278 0.33333,0.16667 0.27778,0.11111 0.38889,0.11111 h 5.63889 q 0.66667,0 1.02778,-0.44444 0.38889,-0.44445 0.38889,-1.05556 0,-0.94445 -0.80556,-1.30556 l -7.69445,-3.33333 q -0.94444,-0.41667 -1.52778,-1.33334 -0.58333,-0.94444 -0.58333,-2.02778 0,-1.41666 1.02778,-2.41667 1.05555,-1.05555 2.52778,-1.05555 h 5.94445 q 2.08333,0 3.41667,1.75 0.27777,0.36111 0.27777,0.83333 0,0.58334 -0.41666,1 -0.41667,0.41667 -1,0.41667 -0.5,0 -1.13889,-0.58333 -0.61111,-0.61111 -1.13889,-0.61111 h -5.94445 q -0.36111,0 -0.58334,0.25 -0.19444,0.25 -0.19444,0.55555 0,0.5 0.44444,0.66667 l 7.72223,3.33333 q 1.05556,0.47223 1.77778,1.55556 0.75,1.05556 0.75,2.33334 v 0.0556 q -0.0278,1.75 -1.27778,3 -1.25,1.22223 -3,1.22223 h -5.25 q -2.02778,0 -3.75001,-1.47223 -0.52777,-0.44444 -0.52777,-1.11111 z"
         id="text2"
         style="font-size:27.7778px;font-family:OCRA;-inkscape-font-specification:OCRA;letter-spacing:0px;stroke:#ffbf00;stroke-width:0;stroke-linecap:square;stroke-miterlimit:4.7;paint-order:stroke fill markers"
         aria-label="Output voltages" />
    </g>
    <path
       d="m 39.377426,1162.0291 v -4.2778 q 0,-0.5834 0.416667,-1 0.416667,-0.4167 1.000001,-0.4167 0.583333,0 0.972223,0.4167 0.416667,0.4166 0.416667,1 v 4.2778 q 0,0.5833 0.416667,1 0.416667,0.3889 1,0.3889 h 2.638891 q 0.583334,0 1.000001,-0.4167 0.416667,-0.4167 0.416667,-0.9722 v -16.0834 q 0,-0.5555 0.388889,-0.9722 0.416667,-0.4167 1.000001,-0.4167 0.583334,0 1.000001,0.4167 0.416667,0.4167 0.416667,0.9722 v 16.0834 q 0,1.7222 -1.250001,2.9722 -1.250001,1.2222 -2.972225,1.2222 h -2.638891 q -1.722223,0 -2.972224,-1.2222 -1.250001,-1.25 -1.250001,-2.9722 z m 18.722225,-0.8334 v -5.7222 q 0,-0.9722 0.444445,-1.8056 0.444445,-0.8333 0.805556,-1.1666 0.361112,-0.3334 1.222224,-1.0556 1.138889,-1 2.694446,-1 h 3.472225 q 0.361112,0 0.694445,0.056 0.333334,0.028 0.666667,0.1944 0.333334,0.1389 0.527779,0.2222 0.194444,0.056 0.527778,0.3334 0.333333,0.25 0.416667,0.3333 0.111111,0.056 0.472222,0.3889 0.388889,0.3056 0.416667,0.3333 1.472224,1.2778 1.472224,3.1667 v 5.7222 q 0,0.4445 -0.05556,0.8334 -0.05556,0.3611 -0.25,0.7222 -0.194445,0.3611 -0.305556,0.5833 -0.08333,0.1945 -0.444445,0.5556 -0.361111,0.3611 -0.444445,0.4444 -0.05555,0.083 -0.527778,0.5 l -0.472222,0.3889 q -1.13889,1 -2.694447,1 h -3.472225 q -0.444445,0 -0.861112,-0.083 -0.388889,-0.1111 -0.666667,-0.1945 -0.277778,-0.1111 -0.666667,-0.3611 -0.361111,-0.25 -0.527778,-0.3611 -0.138889,-0.1111 -0.527778,-0.4444 -0.361112,-0.3334 -0.472223,-0.4167 -1.444446,-1.1944 -1.444446,-3.1667 z m 2.805558,0 q 0,0.3334 0.166667,0.6389 0.166667,0.3056 0.333334,0.4722 0.194444,0.1667 0.527778,0.4445 0.333333,0.25 0.444445,0.3333 0.416667,0.3334 0.888889,0.3334 h 3.472225 q 0.388889,0 0.694445,-0.1667 0.305556,-0.1667 0.722223,-0.5833 0.416667,-0.4167 0.472223,-0.4445 0.5,-0.3889 0.5,-1.0278 v -5.7222 q 0,-0.7222 -0.833334,-1.4722 -0.833334,-0.75 -1.555557,-0.75 h -3.472225 q -0.388889,0 -0.694445,0.1666 -0.305556,0.1667 -0.722223,0.5834 -0.416667,0.4166 -0.472222,0.4444 -0.472223,0.3889 -0.472223,1.0278 z m 17.666669,10.5 q -0.388889,-0.3889 -0.388889,-0.9722 0,-0.5833 0.388889,-1 0.416667,-0.4167 1.000001,-0.4167 h 2.861114 l 1.861112,-4.25 h -0.583334 q -0.944445,0 -1.277778,-0.8611 l -4.138893,-9.4166 q -0.111111,-0.2223 -0.111111,-0.5556 v -2.3611 q 0,-0.5833 0.388889,-1 0.416667,-0.4167 1.000001,-0.4167 0.583334,0 1.000001,0.4167 0.416667,0.4167 0.416667,1 v 2.0555 l 3.638892,8.3334 h 0.888889 l 3.66667,-8.3334 v -2.0555 q 0,-0.5833 0.416667,-1 0.416667,-0.4167 1.000001,-0.4167 0.583333,0 1,0.4167 0.416667,0.4167 0.416667,1 v 2.3611 q 0,0.2778 -0.138889,0.5556 l -7.222227,16.5 q -0.361112,0.8333 -1.305557,0.8333 h -3.777781 q -0.583334,0 -1.000001,-0.4167 z m 19.694451,-15.1389 v -1.1666 q 0,-0.5834 0.388889,-1 0.416667,-0.4167 1.000001,-0.4167 h 11.027791 q 0.58333,0 1,0.4167 0.41666,0.4166 0.41666,1 v 1.1666 q 0,0.5834 -0.41666,1 -0.41667,0.4167 -1,0.4167 H 99.655219 q -0.583334,0 -1.000001,-0.4167 -0.388889,-0.4166 -0.388889,-1 z m 20.083331,8.25 q 0,-0.5555 0.38889,-0.9722 0.41667,-0.4166 1,-0.4166 h 4.11112 v -16.0556 h -4.11112 q -0.58333,0 -1,-0.4167 -0.38889,-0.4166 -0.38889,-1 0,-0.5555 0.38889,-0.9722 0.41667,-0.4167 1,-0.4167 h 11.02779 q 0.58334,0 1,0.4167 0.41667,0.4167 0.41667,0.9722 0,0.5834 -0.41667,1 -0.41666,0.4167 -1,0.4167 h -4.11111 v 16.0556 h 4.11111 q 0.58334,0 1,0.4166 0.41667,0.4167 0.41667,0.9722 0,0.5834 -0.41667,1 -0.41666,0.4167 -1,0.4167 h -11.02779 q -0.58333,0 -1,-0.4167 -0.38889,-0.4166 -0.38889,-1 z m 20.47223,-11.9444 q -0.38889,-0.4167 -0.38889,-1 0,-0.5833 0.38889,-1 0.41667,-0.4167 1,-0.4167 h 1.36111 v -3.3055 q 0,-0.5834 0.38889,-1 0.41667,-0.4167 1,-0.4167 0.58334,0 1,0.4167 0.41667,0.4166 0.41667,1 v 3.3055 h 5.47223 q 0.58333,0 0.97222,0.4167 0.41667,0.4167 0.41667,1 0,0.5833 -0.41667,1 -0.38889,0.3889 -0.97222,0.3889 h -5.47223 v 8.8055 q 0,0.5556 0.38889,0.9723 0.38889,0.3889 0.94445,0.3889 h 2.77777 q 0.55556,0 0.88889,-0.3612 0.36112,-0.3888 0.47223,-0.8055 0.13889,-0.4445 0.47222,-0.8056 0.36111,-0.3889 0.91667,-0.3889 0.58333,0 1,0.4167 0.41666,0.4167 0.41666,1 v 0.2222 q -0.27777,1.4445 -1.47222,2.5 -1.16667,1.0278 -2.69445,1.0278 h -2.77777 q -1.69445,0 -2.91667,-1.2222 -1.22223,-1.25 -1.22223,-2.9445 v -8.8055 h -1.36111 q -0.58333,0 -1,-0.3889 z m 39.77778,13.3611 v -21.6667 h 8.22223 q 2.27778,0 3.94445,1.6667 1.66667,1.6667 1.66667,3.9444 v 1.0278 q 0,2.4722 -1.94445,4.1945 1.94445,1.7222 1.94445,4.1944 v 1.0278 q 0,2.2778 -1.66667,3.9444 -1.66667,1.6667 -3.94445,1.6667 z m 2.80556,-2.8055 h 5.41667 q 1.13889,0 1.97222,-0.8334 0.83334,-0.8611 0.83334,-1.9722 v -1.0278 q 0,-1.1389 -0.83334,-1.9722 -0.83333,-0.8333 -1.97222,-0.8333 h -5.41667 z m 0,-9.4445 h 5.41667 q 1.13889,0 1.97222,-0.8333 0.83334,-0.8334 0.83334,-1.9445 v -1.0278 q 0,-1.1111 -0.83334,-1.9444 -0.83333,-0.8611 -1.97222,-0.8611 h -5.41667 z m 17.27779,-2.1111 q 0,-0.5833 0.38889,-1 0.41666,-0.4167 1,-0.4167 0.55555,0 0.97222,0.4167 0.41667,0.3889 0.41667,0.9444 l 0.36111,10.3056 q 0.0556,0.5556 0.41666,0.9444 0.38889,0.3612 0.94445,0.3612 h 1.97222 l 4.55556,-2.8889 v -8.6667 q 0,-0.5833 0.38889,-1 0.41667,-0.4167 1,-0.4167 0.58334,0 1,0.4167 0.41667,0.4167 0.41667,1 v 12.9444 q 0,0.5834 -0.41667,1 -0.41666,0.4167 -1,0.4167 -0.58333,0 -1,-0.4167 -0.38889,-0.4166 -0.38889,-1 v -0.9722 l -2.69444,1.7222 q -1.05556,0.6667 -2.25001,0.6667 h -1.58333 q -1.66667,0 -2.88889,-1.1667 -1.22222,-1.1944 -1.27778,-2.8333 z m 20.08334,8.1389 v -3.3334 q 0,-1.9166 1.44445,-3.1666 0.30555,-0.25 1,-0.9167 0.72222,-0.6944 1.16666,-1.0555 0.47223,-0.3889 1.27778,-0.7223 0.80556,-0.3611 1.66667,-0.3611 h 5.86112 q 0.58333,0 1,0.4167 0.41666,0.4167 0.41666,1 0,0.5833 -0.41666,1 -0.41667,0.3889 -1,0.3889 h -5.86112 q -0.55556,0 -0.88889,0.3333 l -2.38889,2.0556 q -0.47222,0.3055 -0.47222,1.0277 v 3.3334 q 0,0.6389 0.47222,1.0555 l 2.38889,2.0278 q 0.33333,0.3334 0.88889,0.3334 h 5.86112 q 0.58333,0 1,0.4166 0.41666,0.4167 0.41666,0.9722 0,0.5834 -0.41666,1 -0.41667,0.4167 -1,0.4167 h -5.86112 q -1.58333,0 -2.72222,-1 l -2.38889,-2.0555 q -1.44445,-1.25 -1.44445,-3.1667 z m 20.08333,4.8055 v -18.8611 q 0,-0.5555 0.38889,-0.9722 0.41666,-0.4167 1,-0.4167 0.58333,0 1,0.4167 0.41667,0.4167 0.41667,0.9722 v 11.0834 l 7.33333,-6.25 q 0.38889,-0.3334 0.88889,-0.3334 0.58334,0 1,0.4167 0.41667,0.4167 0.41667,1 0,0.6389 -0.5,1.0555 l -5.63889,4.8334 7.02778,6 q 0.5,0.4167 0.5,1.0555 0,0.5834 -0.41667,1 -0.38888,0.4167 -0.97222,0.4167 -0.52778,0 -0.94444,-0.3333 l -7.36112,-6.3056 -1.33333,1.1667 v 4.0555 q 0,0.5834 -0.41667,1 -0.41667,0.4167 -1,0.4167 -0.58334,0 -1,-0.4167 -0.38889,-0.4166 -0.38889,-1 z m 20.08334,0 v -18.8611 q 0,-0.5555 0.38889,-0.9722 0.41667,-0.4167 1,-0.4167 0.58333,0 1,0.4167 0.41667,0.4167 0.41667,0.9722 v 6.2778 q 1.88889,-1.7778 3.75,-1.7778 h 2.08334 q 0.36111,0 0.69444,0.056 0.33334,0.028 0.66667,0.1944 0.33333,0.1389 0.52778,0.2222 0.19444,0.056 0.52778,0.3334 0.33333,0.25 0.41666,0.3333 0.11111,0.056 0.47223,0.3889 0.38888,0.3056 0.41666,0.3333 1.47223,1.2778 1.47223,3.1667 v 5.7222 q 0,0.4445 -0.0556,0.8334 -0.0556,0.3611 -0.25,0.7222 -0.19444,0.3611 -0.30556,0.5833 -0.0833,0.1945 -0.44444,0.5556 -0.36111,0.3611 -0.44445,0.4444 -0.0555,0.083 -0.52777,0.5 l -0.47223,0.3889 q -1.13889,1 -2.69444,1 h -2.08334 q -0.80555,0 -1.55555,-0.3055 -0.75001,-0.3056 -1.16667,-0.6112 -0.38889,-0.3333 -1.02778,-0.9166 v 0.4166 q 0,0.5834 -0.41667,1 -0.41667,0.4167 -1,0.4167 -0.58333,0 -1,-0.4167 -0.38889,-0.4166 -0.38889,-1 z m 2.80556,-4.8055 q 0,0.6389 0.47222,1.0278 l 2.38889,2.0555 q 0.33334,0.3334 0.88889,0.3334 h 2.08334 q 0.38889,0 0.69444,-0.1667 0.30556,-0.1667 0.72222,-0.5833 0.41667,-0.4167 0.47223,-0.4445 0.5,-0.3889 0.5,-1.0278 v -5.7222 q 0,-0.3889 -0.19445,-0.6667 -0.16666,-0.2777 -0.61111,-0.6389 -0.41667,-0.3611 -0.44444,-0.3888 -0.58334,-0.5278 -1.13889,-0.5278 h -2.08334 q -0.55555,0 -0.88889,0.3333 l -2.38889,2.0556 q -0.47222,0.3055 -0.47222,1.0277 z m 17.27778,1.1944 v -5.7222 q 0,-0.9722 0.44445,-1.8056 0.44444,-0.8333 0.80556,-1.1666 0.36111,-0.3334 1.22222,-1.0556 1.13889,-1 2.69445,-1 h 3.47222 q 0.36111,0 0.69445,0.056 0.33333,0.028 0.66666,0.1944 0.33334,0.1389 0.52778,0.2222 0.19445,0.056 0.52778,0.3334 0.33333,0.25 0.41667,0.3333 0.11111,0.056 0.47222,0.3889 0.38889,0.3056 0.41667,0.3333 1.47222,1.2778 1.47222,3.1667 v 5.7222 q 0,0.4445 -0.0556,0.8334 -0.0555,0.3611 -0.25,0.7222 -0.19444,0.3611 -0.30555,0.5833 -0.0833,0.1945 -0.44445,0.5556 -0.36111,0.3611 -0.44444,0.4444 -0.0556,0.083 -0.52778,0.5 l -0.47222,0.3889 q -1.13889,1 -2.69445,1 h -3.47222 q -0.44445,0 -0.86112,-0.083 -0.38889,-0.1111 -0.66666,-0.1945 -0.27778,-0.1111 -0.66667,-0.3611 -0.36111,-0.25 -0.52778,-0.3611 -0.13889,-0.1111 -0.52778,-0.4444 -0.36111,-0.3334 -0.47222,-0.4167 -1.44445,-1.1944 -1.44445,-3.1667 z m 2.80556,0 q 0,0.3334 0.16667,0.6389 0.16667,0.3056 0.33333,0.4722 0.19445,0.1667 0.52778,0.4445 0.33333,0.25 0.44445,0.3333 0.41666,0.3334 0.88889,0.3334 h 3.47222 q 0.38889,0 0.69445,-0.1667 0.30555,-0.1667 0.72222,-0.5833 0.41667,-0.4167 0.47222,-0.4445 0.5,-0.3889 0.5,-1.0278 v -5.7222 q 0,-0.7222 -0.83333,-1.4722 -0.83334,-0.75 -1.55556,-0.75 h -3.47222 q -0.38889,0 -0.69445,0.1666 -0.30556,0.1667 -0.72222,0.5834 -0.41667,0.4166 -0.47222,0.4444 -0.47223,0.3889 -0.47223,1.0278 z m 17.27779,-9.3333 q 0,-0.5833 0.38889,-1 0.41666,-0.4167 1,-0.4167 0.55555,0 0.97222,0.4167 0.41667,0.3889 0.41667,0.9444 l 0.36111,10.3056 q 0.0556,0.5556 0.41667,0.9444 0.38889,0.3612 0.94444,0.3612 h 1.97223 l 4.55555,-2.8889 v -8.6667 q 0,-0.5833 0.38889,-1 0.41667,-0.4167 1,-0.4167 0.58334,0 1.00001,0.4167 0.41666,0.4167 0.41666,1 v 12.9444 q 0,0.5834 -0.41666,1 -0.41667,0.4167 -1.00001,0.4167 -0.58333,0 -1,-0.4167 -0.38889,-0.4166 -0.38889,-1 v -0.9722 l -2.69444,1.7222 q -1.05556,0.6667 -2.25,0.6667 h -1.58334 q -1.66667,0 -2.88889,-1.1667 -1.22222,-1.1944 -1.27778,-2.8333 z m 20.08331,11.7778 q 0,-0.5834 0.38889,-0.9722 0.38889,-0.4167 0.97222,-0.4167 0.5,0 1.02778,0.4167 0.52778,0.3888 0.77778,0.4722 0.0556,0.028 0.33333,0.1666 0.27778,0.1112 0.38889,0.1112 h 5.6389 q 0.66666,0 1.02778,-0.4445 0.38888,-0.4444 0.38888,-1.0555 0,-0.9445 -0.80555,-1.3056 l -7.69445,-3.3333 q -0.94445,-0.4167 -1.52778,-1.3334 -0.58334,-0.9444 -0.58334,-2.0278 0,-1.4166 1.02778,-2.4166 1.05556,-1.0556 2.52778,-1.0556 h 5.94445 q 2.08334,0 3.41667,1.75 0.27778,0.3611 0.27778,0.8334 0,0.5833 -0.41667,1 -0.41666,0.4166 -1,0.4166 -0.5,0 -1.13889,-0.5833 -0.61111,-0.6111 -1.13889,-0.6111 h -5.94445 q -0.36111,0 -0.58333,0.25 -0.19445,0.25 -0.19445,0.5555 0,0.5 0.44445,0.6667 l 7.72223,3.3333 q 1.05555,0.4723 1.77778,1.5556 0.75,1.0556 0.75,2.3333 v 0.056 q -0.0278,1.75 -1.27778,3 -1.25,1.2222 -3,1.2222 h -5.25001 q -2.02778,0 -3.75,-1.4722 -0.52778,-0.4445 -0.52778,-1.1111 z m 20.08334,-0.2222 v -16.0556 q 0,-1.1389 0.83334,-1.9722 0.83333,-0.8334 1.97222,-0.8334 h 8.22223 q 1.11111,0 1.94445,0.8334 0.86111,0.8333 0.86111,1.9722 v 16.0556 q 0,1.1388 -0.86111,1.9722 -0.83334,0.8333 -1.94445,0.8333 h -8.22223 q -1.13889,0 -1.97222,-0.8333 -0.83334,-0.8334 -0.83334,-1.9722 z m 2.80556,0 h 8.22223 v -16.0556 h -8.22223 z m 17.27779,1.3888 q 0,-0.5555 0.38889,-0.9722 0.41666,-0.4166 1,-0.4166 h 4.11111 v -16.0556 h -4.11111 q -0.58334,0 -1,-0.4167 -0.38889,-0.4166 -0.38889,-1 0,-0.5555 0.38889,-0.9722 0.41666,-0.4167 1,-0.4167 h 6.91667 v 18.8612 h 2.72222 v -5.6667 q 0,-0.5834 0.38889,-1 0.41667,-0.4167 1,-0.4167 0.58334,0 1.00001,0.4167 0.41666,0.4166 0.41666,1 v 7.0555 q 0,0.5834 -0.41666,1 -0.41667,0.4167 -1.00001,0.4167 h -11.02778 q -0.58334,0 -1,-0.4167 -0.38889,-0.4166 -0.38889,-1 z"
       id="text3"
       style="font-size:27.7778px;font-family:OCRA;-inkscape-font-specification:OCRA;letter-spacing:0px;stroke:#ffbf00;stroke-width:0;stroke-linecap:square;stroke-miterlimit:4.7;paint-order:stroke fill markers"
       aria-label="Joy-It Buckbous01" />
  </g>
  <g
     gorn="0.4"
     id="copper1">
    <g
       gorn="0.4.0"
       id="copper0">
      <g
         id="g1">
        <circle
           cx="358.46445"
           cy="45.70866"
           fill="#000000"
           gorn="0.4.0.0"
           id="connector4pad"
           stroke="none"
           stroke-width="20"
           r="30"
           style="fill:none;fill-opacity:1;stroke:#ffbf00;stroke-opacity:1" />
        <circle
           cx="358.46445"
           cy="478.78891"
           fill="#000000"
           gorn="0.4.0.1"
           id="connector5pad"
           r="30"
           stroke="none"
           stroke-width="20"
           style="fill:none;stroke:#ffbf00;stroke-opacity:1" />
        <g
           id="g3">
          <circle
             cx="543.54828"
             cy="163.46484"
             fill="none"
             gorn="0.4.0.2"
             id="connector0pin"
             r="45"
             stroke="#ffbf00"
             stroke-width="20" />
          <rect
             style="fill:none;fill-rule:evenodd;stroke:#ffbf00;stroke-width:20;stroke-dasharray:none;stroke-opacity:1"
             id="connector0terminal"
             width="90.000008"
             height="90.000008"
             x="498.00006"
             y="118.5437" />
        </g>
        <circle
           cx="543.54828"
           cy="360.31525"
           fill="none"
           gorn="0.4.0.3"
           id="connector1pin"
           r="45"
           stroke="#ffbf00"
           stroke-width="20" />
      </g>
      <g
         id="g5"
         transform="translate(0,600.29136)">
        <circle
           cx="358.46445"
           cy="45.70866"
           fill="#000000"
           gorn="0.4.0.0"
           id="connector6pad"
           stroke="none"
           stroke-width="20"
           r="30"
           style="fill:none;fill-opacity:1;stroke:#ffbf00;stroke-opacity:1" />
        <circle
           cx="358.46445"
           cy="478.78891"
           fill="#000000"
           gorn="0.4.0.1"
           id="connector7pad"
           r="30"
           stroke="none"
           stroke-width="20"
           style="fill:none;stroke:#ffbf00;stroke-opacity:1" />
        <g
           id="g4">
          <circle
             cx="543.54828"
             cy="163.46484"
             fill="none"
             gorn="0.4.0.2"
             id="connector2pin"
             r="45"
             stroke="#ffbf00"
             stroke-width="20" />
          <rect
             style="fill:none;fill-rule:evenodd;stroke:#ffbf00;stroke-width:20;stroke-dasharray:none;stroke-opacity:1"
             id="connector2terminal"
             width="90.000008"
             height="90.000008"
             x="498.00006"
             y="118.5437" />
        </g>
        <circle
           cx="543.54828"
           cy="360.31525"
           fill="none"
           gorn="0.4.0.3"
           id="connector3pin"
           r="45"
           stroke="#ffbf00"
           stroke-width="20" />
      </g>
    </g>
  </g>
</svg>
