<?xml version="1.0" encoding="UTF-8" standalone="no"?>
<svg
   gorn="0"
   height="30.480001mm"
   id="svg2"
   shape-rendering="crispEdges"
   version="1.2"
   viewBox="0 0 600.00004 1200.0001"
   width="15.240001mm"
   x="0in"
   y="0in"
   xmlns="http://www.w3.org/2000/svg"
   xmlns:svg="http://www.w3.org/2000/svg"
   xmlns:rdf="http://www.w3.org/1999/02/22-rdf-syntax-ns#"
   xmlns:cc="http://creativecommons.org/ns#"
   xmlns:dc="http://purl.org/dc/elements/1.1/">
  <metadata
     id="metadata27">
    <rdf:RDF>
      <cc:Work
         rdf:about="">
        <dc:format>image/svg+xml</dc:format>
        <dc:type
           rdf:resource="http://purl.org/dc/dcmitype/StillImage" />
      </cc:Work>
    </rdf:RDF>
  </metadata>
  <defs
     id="defs25" />
  <desc
     id="desc4">
    <referenceFile>XT30PW-M_1_pcb.svg</referenceFile>
  </desc>
  <g
     gorn="0.4"
     id="copper1">
    <g
       gorn="0.4.0"
       id="copper0">
      <g
         id="g1">
        <circle
           cx="358.46445"
           cy="45.70866"
           fill="#000000"
           gorn="0.4.0.0"
           id="connector4pad"
           stroke="none"
           stroke-width="20"
           r="30"
           style="fill:none;fill-opacity:1;stroke:#ffbf00;stroke-opacity:1" />
        <circle
           cx="358.46445"
           cy="478.78891"
           fill="#000000"
           gorn="0.4.0.1"
           id="connector5pad"
           r="30"
           stroke="none"
           stroke-width="20"
           style="fill:none;stroke:#ffbf00;stroke-opacity:1" />
        <g
           id="g3">
          <circle
             cx="543.54828"
             cy="163.46484"
             fill="none"
             gorn="0.4.0.2"
             id="connector0pad"
             r="45"
             stroke="#ffbf00"
             stroke-width="20" />
          <rect
             style="fill:none;fill-rule:evenodd;stroke:#ffbf00;stroke-width:20;stroke-dasharray:none;stroke-opacity:1"
             id="rect3"
             width="90.000008"
             height="90.000008"
             x="498.00006"
             y="118.5437" />
        </g>
        <circle
           cx="543.54828"
           cy="360.31525"
           fill="none"
           gorn="0.4.0.3"
           id="connector1pad"
           r="45"
           stroke="#ffbf00"
           stroke-width="20" />
      </g>
      <g
         id="g5"
         transform="translate(0,600.29136)"
         style="display:inline">
        <circle
           cx="358.46445"
           cy="45.70866"
           fill="#000000"
           gorn="0.4.0.0"
           id="connector6pad"
           stroke="none"
           stroke-width="20"
           r="30"
           style="fill:none;fill-opacity:1;stroke:#ffbf00;stroke-opacity:1" />
        <circle
           cx="358.46445"
           cy="478.78891"
           fill="#000000"
           gorn="0.4.0.1"
           id="connected7pad"
           r="30"
           stroke="none"
           stroke-width="20"
           style="fill:none;stroke:#ffbf00;stroke-opacity:1" />
        <g
           id="g4">
          <circle
             cx="543.54828"
             cy="163.46484"
             fill="none"
             gorn="0.4.0.2"
             id="connector2pad"
             r="45"
             stroke="#ffbf00"
             stroke-width="20" />
          <rect
             style="fill:none;fill-rule:evenodd;stroke:#ffbf00;stroke-width:20;stroke-dasharray:none;stroke-opacity:1"
             id="rect4"
             width="90.000008"
             height="90.000008"
             x="498.00006"
             y="118.5437" />
        </g>
        <circle
           cx="543.54828"
           cy="360.31525"
           fill="none"
           gorn="0.4.0.3"
           id="connector3pad"
           r="45"
           stroke="#ffbf00"
           stroke-width="20" />
      </g>
    </g>
  </g>
  <g
     gorn="0.3"
     id="silkscreen">
    <g
       id="g6">
      <rect
         fill="none"
         gorn="0.3.0"
         height="346.45676"
         id="rect2"
         stroke="#000000"
         stroke-width="9.99984"
         width="233.70094"
         x="4.9999199"
         y="88.464485" />
      <path
         d="m 319.96054,36.49624 c 0.65157,-20.003921 19.45819,-31.1801005 39.37007,-31.4960605 20.40181,0.0923 39.65215,15.8908295 39.37008,31.4960605 v 82.67716 h 78.74015 v 299.21257 h -78.74015 v 78.74016 c -8.26022,14.66691 -20.8415,22.13205 -39.37008,19.68503 -26.76067,1.83052 -34.59309,-7.98713 -39.37007,-19.68503 V 461.69306 L 238.99992,462 c 0,0 -0.41928,-388.700766 -0.37796,-390.070692 h 81.33858 z"
         fill="none"
         gorn="0.3.1"
         id="upper"
         stroke="#000000"
         stroke-width="10" />
      <path
         d="m 127.51967,255.07541 q 0,-0.58334 0.38889,-1 0.41667,-0.41667 1,-0.41667 0.58334,0 1.00001,0.41667 0.41666,0.41666 0.41666,1 0,0.38889 0.27778,0.66666 0.27778,0.27778 0.66667,0.27778 h 6.91667 q 0.36111,0 0.36111,-0.36111 l -10.3889,-13.3889 q -0.63889,-0.88889 -0.63889,-1.94445 v -0.0833 q 0,-1.25 0.91667,-2.16667 0.94445,-0.91666 2.22223,-0.91666 h 6.91667 q 1.52778,0 2.63889,1.11111 1.13889,1.11111 1.13889,2.63889 0,0.58333 -0.41667,1 -0.41667,0.41667 -1,0.41667 -0.58333,0 -1,-0.41667 -0.38889,-0.41667 -0.38889,-1 0,-0.36111 -0.30555,-0.63889 -0.27778,-0.30556 -0.66667,-0.30556 h -6.91667 q -0.33334,0 -0.33334,0.27778 v 0.0833 0.11112 l 10.33334,13.27778 q 0.69445,0.83334 0.69445,1.94445 -0.0556,1.30556 -0.97222,2.25 -0.88889,0.91667 -2.19445,0.91667 h -6.91667 q -1.52778,0 -2.63889,-1.11111 -1.11112,-1.11112 -1.11112,-2.63889 z m 20.08334,-1.27778 v -5.72223 q 0,-0.97222 0.44445,-1.80556 0.44444,-0.83333 0.80555,-1.16666 0.36111,-0.33334 1.22223,-1.05556 1.13889,-1 2.69444,-1 h 3.47223 q 0.36111,0 0.69444,0.0556 0.33334,0.0278 0.66667,0.19445 0.33333,0.13889 0.52778,0.22222 0.19444,0.0556 0.52778,0.33333 0.33333,0.25001 0.41666,0.33334 0.11111,0.0556 0.47223,0.38889 0.38889,0.30555 0.41666,0.33333 1.47223,1.27778 1.47223,3.16667 v 5.72223 q 0,0.44444 -0.0556,0.83333 -0.0555,0.36111 -0.25,0.72222 -0.19444,0.36112 -0.30556,0.58334 -0.0833,0.19444 -0.44444,0.55555 -0.36111,0.36112 -0.44444,0.44445 -0.0556,0.0833 -0.52778,0.5 l -0.47223,0.38889 q -1.13889,1 -2.69444,1 h -3.47223 q -0.44444,0 -0.86111,-0.0833 -0.38889,-0.11112 -0.66667,-0.19445 -0.27777,-0.11111 -0.66666,-0.36111 -0.36111,-0.25 -0.52778,-0.36111 -0.13889,-0.11111 -0.52778,-0.44445 -0.36111,-0.33333 -0.47222,-0.41666 -1.44445,-1.19445 -1.44445,-3.16667 z m 2.80556,0 q 0,0.33333 0.16667,0.63889 0.16666,0.30555 0.33333,0.47222 0.19444,0.16667 0.52778,0.44444 0.33333,0.25 0.44444,0.33334 0.41667,0.33333 0.88889,0.33333 h 3.47223 q 0.38889,0 0.69444,-0.16667 0.30556,-0.16666 0.72223,-0.58333 0.41666,-0.41667 0.47222,-0.44444 0.5,-0.38889 0.5,-1.02778 v -5.72223 q 0,-0.72222 -0.83334,-1.47222 -0.83333,-0.75 -1.55555,-0.75 h -3.47223 q -0.38889,0 -0.69444,0.16666 -0.30556,0.16667 -0.72222,0.58334 -0.41667,0.41666 -0.47223,0.44444 -0.47222,0.38889 -0.47222,1.02778 z m 18.63889,3.61111 q 0,-0.55555 0.41667,-0.97222 0.41667,-0.41667 1,-0.41667 h 2.72222 v -16.05557 h -2.72222 q -0.58333,0 -1,-0.41666 -0.41667,-0.41667 -0.41667,-1 0,-0.55556 0.41667,-0.97223 0.41667,-0.41666 1,-0.41666 h 4.13889 q 0.55556,0 0.97223,0.41666 0.41666,0.41667 0.41666,0.97223 v 17.47223 h 2.72223 q 0.58333,0 1,0.41667 0.41666,0.41667 0.41666,0.97222 0,0.58333 -0.41666,1 -0.41667,0.41667 -1,0.41667 h -8.25001 q -0.58333,0 -1,-0.41667 -0.41667,-0.41667 -0.41667,-1 z m 18.72223,-2.75 v -1.55556 q 0,-1.72222 1.22222,-2.94444 1.22223,-1.22223 2.91667,-1.22223 h 5.36112 q 0.66666,0 1.22222,0.19445 0,-0.19445 -0.0278,-0.63889 0,-0.47223 -0.0278,-0.66667 0,-0.22222 -0.0556,-0.61111 -0.0278,-0.38889 -0.11111,-0.55556 -0.0833,-0.19444 -0.25,-0.41666 -0.13889,-0.22223 -0.38889,-0.30556 -0.22222,-0.0833 -0.55556,-0.0833 h -5.16667 q -0.58333,0 -1,-0.38889 -0.38889,-0.41667 -0.38889,-1 0,-0.58334 0.38889,-1 0.41667,-0.41667 1,-0.41667 h 5.16667 q 1.69445,0 2.88889,1.19444 1.22223,1.16667 1.27778,2.83334 l 0.36111,10.36112 q 0,0.58333 -0.44444,1 -0.41667,0.38889 -1,0.38889 -0.55556,0 -0.97222,-0.41667 -0.38889,-0.41667 -0.38889,-0.97222 l -2.05556,1.19444 q -0.27778,0.19445 -0.69445,0.19445 h -4.13889 q -1.69444,0 -2.91667,-1.22222 -1.22222,-1.22223 -1.22222,-2.94445 z m 2.80556,0 q 0,0.55555 0.38889,0.97222 0.38889,0.38889 0.94444,0.38889 h 3.75 l 2.97223,-1.75 v -1.22222 q 0,-0.5 -0.44445,-0.88889 -0.41666,-0.41667 -0.91666,-0.41667 h -5.36112 q -0.52778,0 -0.94444,0.41667 -0.38889,0.38889 -0.38889,0.94444 z m 17.27778,2.75 v -12.94445 q 0,-0.58334 0.38888,-1 0.41667,-0.41667 1.00001,-0.41667 0.58333,0 1,0.41667 0.41666,0.41666 0.41666,1 v 1.63889 l 3.30556,-2.83334 q 0.30556,-0.22222 0.80556,-0.22222 h 2.75 q 1.69445,0 2.91667,1.25 1.25,1.22222 1.25,2.91667 v 0.77778 q 0,0.58333 -0.41667,1 -0.41666,0.38889 -1,0.38889 -0.58333,0 -1,-0.38889 -0.38889,-0.41667 -0.38889,-1 v -0.77778 q 0,-0.55556 -0.41666,-0.94445 -0.38889,-0.41666 -0.94445,-0.41666 h -2.25 l -4.61112,3.97222 v 7.58334 q 0,0.58333 -0.41666,1 -0.41667,0.41667 -1,0.41667 -0.58334,0 -1.00001,-0.41667 -0.38888,-0.41667 -0.38888,-1 z m 20.08333,-8.25001 v -1.16666 q 0,-0.58334 0.38889,-1 0.41667,-0.41667 1,-0.41667 h 11.02779 q 0.58333,0 1,0.41667 0.41667,0.41666 0.41667,1 v 1.16666 q 0,0.58334 -0.41667,1.00001 -0.41667,0.41666 -1,0.41666 h -11.02779 q -0.58333,0 -1,-0.41666 -0.38889,-0.41667 -0.38889,-1.00001 z m 20.08334,8.25001 v -20.25001 h 3.50001 l 3.41667,4.86111 3.38889,-4.86111 h 3.52778 v 20.25001 q 0,0.58333 -0.41667,1 -0.41666,0.41667 -1,0.41667 -0.58333,0 -1,-0.41667 -0.38889,-0.41667 -0.38889,-1 v -16.3889 l -2.72222,3.88889 v 0.72222 q 0,0.58334 -0.41667,1 -0.41667,0.41667 -0.97222,0.41667 -0.58334,0 -1,-0.41667 -0.41667,-0.41666 -0.41667,-1 v -0.72222 l -2.69445,-3.83334 v 16.33335 q 0,0.58333 -0.41666,1 -0.41667,0.41667 -1.00001,0.41667 -0.58333,0 -1,-0.41667 -0.38889,-0.41667 -0.38889,-1 z m 20.08333,-3.61111 v -5.72223 q 0,-0.97222 0.44445,-1.80556 0.44444,-0.83333 0.80555,-1.16666 0.36112,-0.33334 1.22223,-1.05556 1.13889,-1 2.69444,-1 h 3.47223 q 0.36111,0 0.69444,0.0556 0.33334,0.0278 0.66667,0.19445 0.33333,0.13889 0.52778,0.22222 0.19444,0.0556 0.52778,0.33333 0.33333,0.25001 0.41666,0.33334 0.11112,0.0556 0.47223,0.38889 0.38889,0.30555 0.41666,0.33333 1.47223,1.27778 1.47223,3.16667 v 5.72223 q 0,0.44444 -0.0556,0.83333 -0.0556,0.36111 -0.25,0.72222 -0.19444,0.36112 -0.30555,0.58334 -0.0833,0.19444 -0.44445,0.55555 -0.36111,0.36112 -0.44444,0.44445 -0.0556,0.0833 -0.52778,0.5 l -0.47222,0.38889 q -1.13889,1 -2.69445,1 h -3.47223 q -0.44444,0 -0.86111,-0.0833 -0.38889,-0.11112 -0.66667,-0.19445 -0.27777,-0.11111 -0.66666,-0.36111 -0.36111,-0.25 -0.52778,-0.36111 -0.13889,-0.11111 -0.52778,-0.44445 -0.36111,-0.33333 -0.47222,-0.41666 -1.44445,-1.19445 -1.44445,-3.16667 z m 2.80556,0 q 0,0.33333 0.16667,0.63889 0.16666,0.30555 0.33333,0.47222 0.19445,0.16667 0.52778,0.44444 0.33333,0.25 0.44444,0.33334 0.41667,0.33333 0.88889,0.33333 h 3.47223 q 0.38889,0 0.69444,-0.16667 0.30556,-0.16666 0.72223,-0.58333 0.41666,-0.41667 0.47222,-0.44444 0.5,-0.38889 0.5,-1.02778 v -5.72223 q 0,-0.72222 -0.83333,-1.47222 -0.83334,-0.75 -1.55556,-0.75 h -3.47223 q -0.38889,0 -0.69444,0.16666 -0.30556,0.16667 -0.72222,0.58334 -0.41667,0.41666 -0.47223,0.44444 -0.47222,0.38889 -0.47222,1.02778 z m 17.27779,0 v -5.72223 q 0,-1.33333 0.58333,-2.13889 0.58333,-0.83333 1.66667,-1.72222 0.13889,-0.11111 0.22222,-0.16667 1.13889,-1 2.69445,-1 h 2.08333 q 0.44445,0 0.86111,0.11111 0.41667,0.0833 0.66667,0.19444 0.27778,0.0833 0.69445,0.36112 0.41666,0.27777 0.52777,0.36111 0.11112,0.0833 0.52778,0.47222 0.44445,0.38889 0.5,0.41667 v -6.41667 q 0,-0.55556 0.38889,-0.97223 0.41667,-0.41666 1,-0.41666 0.58334,0 1,0.41666 0.41667,0.41667 0.41667,0.97223 v 18.86112 q 0,0.58333 -0.41667,1 -0.41666,0.41667 -1,0.41667 -0.58333,0 -1,-0.41667 -0.38889,-0.41667 -0.38889,-1 v -0.44444 q -0.63889,0.61111 -1.05555,0.94444 -0.38889,0.30556 -1.13889,0.61111 -0.75,0.30556 -1.58334,0.30556 h -2.08333 q -0.30556,0 -0.58334,-0.0278 -0.25,-0.0278 -0.52777,-0.11111 -0.25,-0.0833 -0.44445,-0.13889 -0.19444,-0.0833 -0.44444,-0.22222 -0.22223,-0.13889 -0.36112,-0.22222 -0.13888,-0.0833 -0.38888,-0.27778 -0.22223,-0.19445 -0.30556,-0.25 -0.0833,-0.0833 -0.36111,-0.30556 -0.25,-0.25 -0.30556,-0.30555 -1.44444,-1.19445 -1.44444,-3.16667 z m 2.80555,0 q 0,0.33333 0.16667,0.63889 0.16667,0.30555 0.33333,0.47222 0.19445,0.16667 0.52778,0.44444 0.33334,0.25 0.44445,0.33334 0.41666,0.33333 0.88889,0.33333 h 2.08333 q 0.5,0 0.88889,-0.33333 l 2.38889,-2.05556 q 0.5,-0.36111 0.5,-1.02778 v -3.33333 q 0,-0.58334 -0.5,-1.02778 l -2.38889,-2.05556 q -0.33333,-0.33333 -0.88889,-0.33333 h -2.08333 q -0.38889,0 -0.72223,0.19444 -0.30555,0.16667 -0.66666,0.52778 -0.36111,0.36111 -0.47223,0.44444 -0.5,0.44445 -0.5,1.05556 z m 17.27779,-9.33334 q 0,-0.58334 0.38889,-1 0.41667,-0.41667 1,-0.41667 0.55556,0 0.97222,0.41667 0.41667,0.38888 0.41667,0.94444 l 0.36111,10.30556 q 0.0556,0.55556 0.41667,0.94445 0.38889,0.36111 0.94444,0.36111 h 1.97223 l 4.55556,-2.88889 v -8.66667 q 0,-0.58334 0.38889,-1 0.41666,-0.41667 1,-0.41667 0.58333,0 1,0.41667 0.41666,0.41666 0.41666,1 v 12.94445 q 0,0.58333 -0.41666,1 -0.41667,0.41667 -1,0.41667 -0.58334,0 -1,-0.41667 -0.38889,-0.41667 -0.38889,-1 v -0.97222 l -2.69445,1.72222 q -1.05556,0.66667 -2.25,0.66667 h -1.58334 q -1.66666,0 -2.88889,-1.16667 -1.22222,-1.19444 -1.27778,-2.83333 z m 21.44444,12.94445 q 0,-0.55555 0.41667,-0.97222 0.41666,-0.41667 1,-0.41667 h 2.72222 v -16.05557 h -2.72222 q -0.58334,0 -1,-0.41666 -0.41667,-0.41667 -0.41667,-1 0,-0.55556 0.41667,-0.97223 0.41666,-0.41666 1,-0.41666 h 4.13889 q 0.55556,0 0.97222,0.41666 0.41667,0.41667 0.41667,0.97223 v 17.47223 h 2.72222 q 0.58334,0 1.00001,0.41667 0.41666,0.41667 0.41666,0.97222 0,0.58333 -0.41666,1 -0.41667,0.41667 -1.00001,0.41667 h -8.25 q -0.58334,0 -1,-0.41667 -0.41667,-0.41667 -0.41667,-1 z"
         id="text1"
         style="font-size:27.7778px;font-family:OCRA;-inkscape-font-specification:OCRA;letter-spacing:0px;stroke:#ffbf00;stroke-width:0;stroke-linecap:square;stroke-miterlimit:4.7;paint-order:stroke fill markers"
         aria-label="Solar-Modul" />
    </g>
    <g
       id="g7"
       transform="translate(0,600.00002)">
      <rect
         fill="none"
         gorn="0.3.0"
         height="346.45676"
         id="rect6"
         stroke="#000000"
         stroke-width="9.99984"
         width="233.70094"
         x="4.9999199"
         y="88.464485" />
      <path
         d="m 319.96054,36.49624 c 0.65157,-20.003921 19.45819,-31.1801005 39.37007,-31.4960605 20.40181,0.0923 39.65215,15.8908295 39.37008,31.4960605 v 82.67716 h 78.74015 v 299.21257 h -78.74015 v 78.74016 c -8.26022,14.66691 -20.8415,22.13205 -39.37008,19.68503 -26.76067,1.83052 -34.59309,-7.98713 -39.37007,-19.68503 V 461.69306 L 238.99992,462 c 0,0 -0.41928,-388.700766 -0.37796,-390.070692 h 81.33858 z"
         fill="none"
         gorn="0.3.1"
         id="path6"
         stroke="#000000"
         stroke-width="10" />
      <path
         d="m 126.45667,251.93149 q 0,-0.58334 0.38889,-1.00001 0.41667,-0.41666 1,-0.41666 0.58333,0 1,0.41666 0.41667,0.41667 0.41667,1.00001 0,0.38888 0.27778,0.66666 0.27777,0.27778 0.66666,0.27778 h 6.91668 q 0.36111,0 0.36111,-0.36111 l -10.3889,-13.3889 q -0.63889,-0.88889 -0.63889,-1.94445 v -0.0833 q 0,-1.25 0.91667,-2.16667 0.94444,-0.91667 2.22222,-0.91667 h 6.91667 q 1.52778,0 2.6389,1.11112 1.13889,1.11111 1.13889,2.63889 0,0.58333 -0.41667,1 -0.41667,0.41667 -1,0.41667 -0.58334,0 -1,-0.41667 -0.38889,-0.41667 -0.38889,-1 0,-0.36111 -0.30556,-0.63889 -0.27778,-0.30556 -0.66667,-0.30556 h -6.91667 q -0.33333,0 -0.33333,0.27778 v 0.0833 0.11111 l 10.33334,13.27779 q 0.69445,0.83334 0.69445,1.94445 -0.0556,1.30556 -0.97223,2.25 -0.88889,0.91667 -2.19444,0.91667 h -6.91668 q -1.52778,0 -2.63889,-1.11111 -1.11111,-1.11112 -1.11111,-2.63889 z m 20.08334,-1.27778 v -5.72223 q 0,-0.97222 0.44444,-1.80556 0.44445,-0.83333 0.80556,-1.16666 0.36111,-0.33334 1.22222,-1.05556 1.13889,-1 2.69445,-1 h 3.47222 q 0.36112,0 0.69445,0.0556 0.33333,0.0278 0.66667,0.19445 0.33333,0.13889 0.52777,0.22222 0.19445,0.0556 0.52778,0.33333 0.33334,0.25 0.41667,0.33334 0.11111,0.0556 0.47222,0.38889 0.38889,0.30555 0.41667,0.33333 1.47222,1.27778 1.47222,3.16667 v 5.72223 q 0,0.44444 -0.0555,0.83333 -0.0556,0.36111 -0.25,0.72222 -0.19445,0.36111 -0.30556,0.58334 -0.0833,0.19444 -0.44444,0.55555 -0.36111,0.36111 -0.44445,0.44445 -0.0555,0.0833 -0.52778,0.5 l -0.47222,0.38889 q -1.13889,1 -2.69445,1 h -3.47222 q -0.44445,0 -0.86111,-0.0833 -0.38889,-0.11111 -0.66667,-0.19444 -0.27778,-0.11111 -0.66667,-0.36111 -0.36111,-0.25 -0.52777,-0.36111 -0.13889,-0.11111 -0.52778,-0.44445 -0.36111,-0.33333 -0.47223,-0.41666 -1.44444,-1.19445 -1.44444,-3.16667 z m 2.80556,0 q 0,0.33333 0.16666,0.63889 0.16667,0.30555 0.33334,0.47222 0.19444,0.16667 0.52778,0.44444 0.33333,0.25 0.44444,0.33334 0.41667,0.33333 0.88889,0.33333 h 3.47222 q 0.38889,0 0.69445,-0.16667 0.30556,-0.16666 0.72222,-0.58333 0.41667,-0.41667 0.47222,-0.44445 0.50001,-0.38888 0.50001,-1.02777 v -5.72223 q 0,-0.72222 -0.83334,-1.47222 -0.83333,-0.75 -1.55556,-0.75 h -3.47222 q -0.38889,0 -0.69445,0.16666 -0.30555,0.16667 -0.72222,0.58334 -0.41667,0.41666 -0.47222,0.44444 -0.47222,0.38889 -0.47222,1.02778 z m 18.63889,3.61111 q 0,-0.55556 0.41667,-0.97222 0.41666,-0.41667 1,-0.41667 h 2.72222 v -16.05557 h -2.72222 q -0.58334,0 -1,-0.41666 -0.41667,-0.41667 -0.41667,-1.00001 0,-0.55555 0.41667,-0.97222 0.41666,-0.41667 1,-0.41667 h 4.13889 q 0.55555,0 0.97222,0.41667 0.41667,0.41667 0.41667,0.97222 v 17.47224 h 2.72222 q 0.58334,0 1,0.41667 0.41667,0.41666 0.41667,0.97222 0,0.58333 -0.41667,1 -0.41666,0.41667 -1,0.41667 h -8.25 q -0.58334,0 -1,-0.41667 -0.41667,-0.41667 -0.41667,-1 z m 18.72223,-2.75 v -1.55556 q 0,-1.72222 1.22222,-2.94445 1.22222,-1.22222 2.91667,-1.22222 h 5.36111 q 0.66667,0 1.22223,0.19445 0,-0.19445 -0.0278,-0.63889 0,-0.47223 -0.0278,-0.66667 0,-0.22222 -0.0555,-0.61111 -0.0278,-0.38889 -0.11112,-0.55556 -0.0833,-0.19444 -0.25,-0.41667 -0.13888,-0.22222 -0.38888,-0.30555 -0.22223,-0.0833 -0.55556,-0.0833 h -5.16667 q -0.58334,0 -1,-0.38889 -0.38889,-0.41667 -0.38889,-1 0,-0.58334 0.38889,-1.00001 0.41666,-0.41666 1,-0.41666 h 5.16667 q 1.69444,0 2.88889,1.19444 1.22222,1.16667 1.27778,2.83334 l 0.36111,10.36112 q 0,0.58333 -0.44444,1 -0.41667,0.38889 -1.00001,0.38889 -0.55555,0 -0.97222,-0.41667 -0.38889,-0.41667 -0.38889,-0.97222 l -2.05555,1.19444 q -0.27778,0.19445 -0.69445,0.19445 h -4.13889 q -1.69445,0 -2.91667,-1.22223 -1.22222,-1.22222 -1.22222,-2.94444 z m 2.80555,0 q 0,0.55555 0.38889,0.97222 0.38889,0.38889 0.94445,0.38889 h 3.75 l 2.97223,-1.75 v -1.22222 q 0,-0.5 -0.44445,-0.88889 -0.41667,-0.41667 -0.91667,-0.41667 h -5.36111 q -0.52778,0 -0.94445,0.41667 -0.38889,0.38889 -0.38889,0.94444 z m 17.27778,2.75 v -12.94445 q 0,-0.58334 0.38889,-1.00001 0.41667,-0.41666 1,-0.41666 0.58334,0 1,0.41666 0.41667,0.41667 0.41667,1.00001 v 1.63889 l 3.30556,-2.83334 q 0.30555,-0.22222 0.80555,-0.22222 h 2.75001 q 1.69444,0 2.91667,1.25 1.25,1.22222 1.25,2.91667 v 0.77778 q 0,0.58333 -0.41667,1 -0.41667,0.38889 -1,0.38889 -0.58334,0 -1,-0.38889 -0.38889,-0.41667 -0.38889,-1 v -0.77778 q 0,-0.55556 -0.41667,-0.94445 -0.38889,-0.41666 -0.94444,-0.41666 h -2.25001 l -4.61111,3.97222 v 7.58334 q 0,0.58333 -0.41667,1 -0.41666,0.41667 -1,0.41667 -0.58333,0 -1,-0.41667 -0.38889,-0.41667 -0.38889,-1 z m 20.08334,-8.25001 v -1.16666 q 0,-0.58334 0.38889,-1 0.41666,-0.41667 1,-0.41667 h 11.02778 q 0.58334,0 1.00001,0.41667 0.41666,0.41666 0.41666,1 v 1.16666 q 0,0.58334 -0.41666,1 -0.41667,0.41667 -1.00001,0.41667 h -11.02778 q -0.58334,0 -1,-0.41667 -0.38889,-0.41666 -0.38889,-1 z m 20.08334,9.66668 V 234.0148 h 8.22223 q 2.27778,0 3.94445,1.66667 1.66667,1.66667 1.66667,3.94445 v 1.02778 q 0,2.47222 -1.94445,4.19445 1.94445,1.72222 1.94445,4.19444 v 1.02778 q 0,2.27778 -1.66667,3.94445 -1.66667,1.66667 -3.94445,1.66667 z m 2.80556,-2.80556 h 5.41667 q 1.13889,0 1.97222,-0.83333 0.83334,-0.86112 0.83334,-1.97223 v -1.02778 q 0,-1.13889 -0.83334,-1.97222 -0.83333,-0.83333 -1.97222,-0.83333 h -5.41667 z m 0,-9.44445 h 5.41667 q 1.13889,0 1.97222,-0.83334 0.83334,-0.83333 0.83334,-1.94444 v -1.02778 q 0,-1.11111 -0.83334,-1.94445 -0.83333,-0.86111 -1.97222,-0.86111 h -5.41667 z m 17.27777,8.08334 v -1.55556 q 0,-1.72222 1.22222,-2.94445 1.22223,-1.22222 2.91667,-1.22222 h 5.36112 q 0.66666,0 1.22222,0.19445 0,-0.19445 -0.0278,-0.63889 0,-0.47223 -0.0278,-0.66667 0,-0.22222 -0.0556,-0.61111 -0.0278,-0.38889 -0.11111,-0.55556 -0.0833,-0.19444 -0.25,-0.41667 -0.13889,-0.22222 -0.38889,-0.30555 -0.22222,-0.0833 -0.55556,-0.0833 h -5.16667 q -0.58333,0 -1,-0.38889 -0.38889,-0.41667 -0.38889,-1 0,-0.58334 0.38889,-1.00001 0.41667,-0.41666 1,-0.41666 h 5.16667 q 1.69445,0 2.88889,1.19444 1.22223,1.16667 1.27778,2.83334 l 0.36111,10.36112 q 0,0.58333 -0.44444,1 -0.41667,0.38889 -1,0.38889 -0.55556,0 -0.97222,-0.41667 -0.38889,-0.41667 -0.38889,-0.97222 l -2.05556,1.19444 q -0.27778,0.19445 -0.69445,0.19445 h -4.13889 q -1.69444,0 -2.91667,-1.22223 -1.22222,-1.22222 -1.22222,-2.94444 z m 2.80556,0 q 0,0.55555 0.38889,0.97222 0.38889,0.38889 0.94444,0.38889 h 3.75 l 2.97223,-1.75 v -1.22222 q 0,-0.5 -0.44445,-0.88889 -0.41666,-0.41667 -0.91666,-0.41667 h -5.36112 q -0.52778,0 -0.94444,0.41667 -0.38889,0.38889 -0.38889,0.94444 z m 17.66667,-9.19445 q -0.38889,-0.41667 -0.38889,-1 0,-0.58334 0.38889,-1.00001 0.41667,-0.41666 1,-0.41666 h 1.36112 v -3.30556 q 0,-0.58333 0.38888,-1 0.41667,-0.41667 1.00001,-0.41667 0.58333,0 1,0.41667 0.41666,0.41667 0.41666,1 v 3.30556 h 5.47223 q 0.58333,0 0.97222,0.41666 0.41667,0.41667 0.41667,1.00001 0,0.58333 -0.41667,1 -0.38889,0.38889 -0.97222,0.38889 h -5.47223 v 8.80556 q 0,0.55555 0.38889,0.97222 0.38889,0.38889 0.94445,0.38889 h 2.77778 q 0.55555,0 0.88889,-0.36111 0.36111,-0.38889 0.47222,-0.80556 0.13889,-0.44444 0.47222,-0.80555 0.36111,-0.38889 0.91667,-0.38889 0.58333,0 1,0.41666 0.41667,0.41667 0.41667,1.00001 v 0.22222 q -0.27778,1.44444 -1.47223,2.5 -1.16666,1.02778 -2.69444,1.02778 h -2.77778 q -1.69445,0 -2.91667,-1.22223 -1.22222,-1.25 -1.22222,-2.94444 v -8.80556 h -1.36112 q -0.58333,0 -1,-0.38889 z m 20.08335,0 q -0.38889,-0.41667 -0.38889,-1 0,-0.58334 0.38889,-1.00001 0.41666,-0.41666 1,-0.41666 h 1.36111 v -3.30556 q 0,-0.58333 0.38889,-1 0.41667,-0.41667 1,-0.41667 0.58333,0 1,0.41667 0.41667,0.41667 0.41667,1 v 3.30556 h 5.47222 q 0.58334,0 0.97223,0.41666 0.41666,0.41667 0.41666,1.00001 0,0.58333 -0.41666,1 -0.38889,0.38889 -0.97223,0.38889 h -5.47222 v 8.80556 q 0,0.55555 0.38889,0.97222 0.38888,0.38889 0.94444,0.38889 h 2.77778 q 0.55556,0 0.88889,-0.36111 0.36111,-0.38889 0.47222,-0.80556 0.13889,-0.44444 0.47223,-0.80555 0.36111,-0.38889 0.91666,-0.38889 0.58334,0 1,0.41666 0.41667,0.41667 0.41667,1.00001 v 0.22222 q -0.27778,1.44444 -1.47222,2.5 -1.16667,1.02778 -2.69445,1.02778 h -2.77778 q -1.69444,0 -2.91667,-1.22223 -1.22222,-1.25 -1.22222,-2.94444 v -8.80556 h -1.36111 q -0.58334,0 -1,-0.38889 z m 19.69443,8.33334 v -5.72223 q 0,-0.97222 0.44445,-1.80556 0.44444,-0.83333 0.80556,-1.16666 0.36111,-0.33334 1.22222,-1.05556 1.13889,-1 2.69445,-1 h 3.47222 q 0.27778,0 0.52778,0.0278 0.27778,0.0278 0.55555,0.11111 0.27778,0.0833 0.44445,0.13889 0.16667,0.0556 0.44444,0.22222 0.27778,0.16667 0.36112,0.22222 0.11111,0.0556 0.38888,0.30556 0.27778,0.22222 0.33334,0.25 0.0555,0.0278 0.36111,0.30555 l 0.30556,0.27778 q 1.47222,1.27778 1.47222,3.16667 v 3.44445 q 0,0.58333 -0.41667,1 -0.41666,0.41666 -1,0.41666 h -9.61112 v 0.86112 q 0,0.33333 0.16667,0.63889 0.16667,0.30555 0.33333,0.47222 0.19445,0.16667 0.52778,0.44444 0.33333,0.25 0.44445,0.33334 0.41666,0.33333 0.88889,0.33333 h 7.25 q 0.58334,0 1,0.41667 0.41667,0.41666 0.41667,0.97222 0,0.58333 -0.41667,1 -0.41666,0.41667 -1,0.41667 h -7.25 q -0.30556,0 -0.58334,-0.0278 -0.25,-0.0278 -0.52778,-0.11111 -0.25,-0.0833 -0.44444,-0.13889 -0.19445,-0.0833 -0.44445,-0.22222 -0.22222,-0.13889 -0.36111,-0.22222 -0.13889,-0.0833 -0.38889,-0.27778 -0.22222,-0.19445 -0.30555,-0.25 -0.0833,-0.0833 -0.36111,-0.30556 -0.25,-0.25 -0.30556,-0.30555 -1.44445,-1.19445 -1.44445,-3.16667 z m 2.80556,-3.66667 h 8.22223 v -2.05556 q 0,-0.72222 -0.83333,-1.47222 -0.83334,-0.75 -1.55556,-0.75 h -3.47222 q -0.38889,0 -0.69445,0.16666 -0.30556,0.16667 -0.72222,0.58334 -0.41667,0.41666 -0.47222,0.44444 -0.47223,0.38889 -0.47223,1.02778 z m 17.27779,7.27778 v -12.94445 q 0,-0.58334 0.38889,-1.00001 0.41666,-0.41666 1,-0.41666 0.58333,0 1,0.41666 0.41667,0.41667 0.41667,1.00001 v 1.63889 l 3.30555,-2.83334 q 0.30556,-0.22222 0.80556,-0.22222 h 2.75 q 1.69445,0 2.91667,1.25 1.25,1.22222 1.25,2.91667 v 0.77778 q 0,0.58333 -0.41666,1 -0.41667,0.38889 -1.00001,0.38889 -0.58333,0 -1,-0.38889 -0.38889,-0.41667 -0.38889,-1 v -0.77778 q 0,-0.55556 -0.41666,-0.94445 -0.38889,-0.41666 -0.94445,-0.41666 h -2.25 l -4.61111,3.97222 v 7.58334 q 0,0.58333 -0.41667,1 -0.41667,0.41667 -1,0.41667 -0.58334,0 -1,-0.41667 -0.38889,-0.41667 -0.38889,-1 z m 21.44445,0 q 0,-0.55556 0.41667,-0.97222 0.41667,-0.41667 1,-0.41667 h 2.75 v -10.16667 h -2.75 q -0.58333,0 -1,-0.38889 -0.41667,-0.41667 -0.41667,-1 0,-0.58334 0.41667,-1.00001 0.41667,-0.41666 1,-0.41666 h 4.13889 q 0.55556,0 0.97223,0.41666 0.41666,0.41667 0.41666,1.00001 v 11.55556 h 2.72223 q 0.58333,0 1,0.41667 0.41667,0.41666 0.41667,0.97222 0,0.58333 -0.41667,1 -0.41667,0.41667 -1,0.41667 h -8.25001 q -0.58333,0 -1,-0.41667 -0.41667,-0.41667 -0.41667,-1 z m 2.75001,-18.86113 v -1.16666 q 0,-0.58334 0.41666,-0.97223 0.41667,-0.41666 1,-0.41666 h 1.38889 q 0.55556,0 0.97223,0.41666 0.41666,0.38889 0.41666,0.97223 v 1.16666 q 0,0.58334 -0.41666,1.00001 -0.41667,0.41666 -0.97223,0.41666 h -1.38889 q -0.58333,0 -1,-0.41666 -0.41666,-0.41667 -0.41666,-1.00001 z m 15.97223,15.25002 v -5.72223 q 0,-0.97222 0.44444,-1.80556 0.44445,-0.83333 0.80556,-1.16666 0.36111,-0.33334 1.22222,-1.05556 1.13889,-1 2.69445,-1 h 3.47222 q 0.27778,0 0.52778,0.0278 0.27778,0.0278 0.55556,0.11111 0.27777,0.0833 0.44444,0.13889 0.16667,0.0556 0.44444,0.22222 0.27778,0.16667 0.36112,0.22222 0.11111,0.0556 0.38889,0.30556 0.27777,0.22222 0.33333,0.25 0.0555,0.0278 0.36111,0.30555 l 0.30556,0.27778 q 1.47222,1.27778 1.47222,3.16667 v 3.44445 q 0,0.58333 -0.41667,1 -0.41666,0.41666 -1,0.41666 h -9.61112 v 0.86112 q 0,0.33333 0.16667,0.63889 0.16667,0.30555 0.33333,0.47222 0.19445,0.16667 0.52778,0.44444 0.33334,0.25 0.44445,0.33334 0.41666,0.33333 0.88889,0.33333 h 7.25 q 0.58334,0 1,0.41667 0.41667,0.41666 0.41667,0.97222 0,0.58333 -0.41667,1 -0.41666,0.41667 -1,0.41667 h -7.25 q -0.30556,0 -0.58334,-0.0278 -0.25,-0.0278 -0.52778,-0.11111 -0.25,-0.0833 -0.44444,-0.13889 -0.19445,-0.0833 -0.44445,-0.22222 -0.22222,-0.13889 -0.36111,-0.22222 -0.13889,-0.0833 -0.38889,-0.27778 -0.22222,-0.19445 -0.30555,-0.25 -0.0833,-0.0833 -0.36111,-0.30556 -0.25,-0.25 -0.30556,-0.30555 -1.44444,-1.19445 -1.44444,-3.16667 z m 2.80555,-3.66667 h 8.22223 v -2.05556 q 0,-0.72222 -0.83333,-1.47222 -0.83334,-0.75 -1.55556,-0.75 h -3.47222 q -0.38889,0 -0.69445,0.16666 -0.30555,0.16667 -0.72222,0.58334 -0.41667,0.41666 -0.47222,0.44444 -0.47223,0.38889 -0.47223,1.02778 z"
         id="text2"
         style="font-size:27.7778px;font-family:OCRA;-inkscape-font-specification:OCRA;letter-spacing:0px;stroke:#ffbf00;stroke-width:0;stroke-linecap:square;stroke-miterlimit:4.7;paint-order:stroke fill markers"
         aria-label="Solar-Batterie" />
    </g>
    <path
       d="m 38.016314,1164.8068 v -18.8611 q 0,-0.5555 0.388889,-0.9722 0.416667,-0.4167 1.000001,-0.4167 0.583333,0 1,0.4167 0.416667,0.4167 0.416667,0.9722 v 8.0278 H 49.0441 v -8.0278 q 0,-0.5555 0.388889,-0.9722 0.416667,-0.4167 1.000001,-0.4167 0.583334,0 1.000001,0.4167 0.416667,0.4167 0.416667,0.9722 v 18.8611 q 0,0.5834 -0.416667,1 -0.416667,0.4167 -1.000001,0.4167 -0.583334,0 -1.000001,-0.4167 -0.388889,-0.4166 -0.388889,-1 v -8.0277 h -8.222229 v 8.0277 q 0,0.5834 -0.416667,1 -0.416667,0.4167 -1,0.4167 -0.583334,0 -1.000001,-0.4167 -0.388889,-0.4166 -0.388889,-1 z m 20.083337,-8.25 v -1.1666 q 0,-0.5834 0.38889,-1 0.416667,-0.4167 1,-0.4167 h 11.027787 q 0.583334,0 1.000001,0.4167 0.416667,0.4166 0.416667,1 v 1.1666 q 0,0.5834 -0.416667,1 -0.416667,0.4167 -1.000001,0.4167 H 59.488541 q -0.583333,0 -1,-0.4167 -0.38889,-0.4166 -0.38889,-1 z m 20.083338,-8.25 v -3.75 h 13.833344 v 3.75 q 0,0.5834 -0.416667,1 -0.416667,0.4167 -1,0.4167 -0.583334,0 -1.000001,-0.4167 -0.388889,-0.4166 -0.388889,-1 v -0.9444 h -2.722225 v 17.4444 q 0,0.5834 -0.416667,1 -0.416667,0.4167 -0.972223,0.4167 -0.583333,0 -1,-0.4167 -0.416667,-0.4166 -0.416667,-1 v -17.4444 h -2.694447 v 0.9444 q 0,0.5834 -0.416667,1 -0.416667,0.4167 -1.000001,0.4167 -0.583334,0 -1.000001,-0.4167 -0.388889,-0.4166 -0.388889,-1 z m 20.08334,16.5 v -20.25 h 9.611121 q 1.72222,0 2.97222,1.25 1.25,1.25 1.25,2.9723 v 1.4444 q 0,1.7222 -1.27778,2.9722 -1.25,1.25 -2.94444,1.25 h -1.61111 l 5.63889,9.6667 q 0.19444,0.3889 0.19444,0.6944 0,0.5834 -0.41666,1 -0.41667,0.4167 -1,0.4167 -0.80556,0 -1.22223,-0.6944 l -6.47223,-11.0834 h -1.91666 v 10.3611 q 0,0.5834 -0.41667,1 -0.41667,0.4167 -1.000001,0.4167 -0.583334,0 -1.000001,-0.4167 -0.388889,-0.4166 -0.388889,-1 z m 2.805561,-13.1666 h 6.80556 q 0.55555,0 0.97222,-0.4167 0.44445,-0.4444 0.44445,-1 v -1.4444 q 0,-0.5834 -0.44445,-1 -0.41667,-0.4167 -0.97222,-0.4167 h -6.80556 z m 17.27777,3.75 q 0,-1.4723 0.66667,-2.8611 l 2.97223,-5.9723 q 0.44444,-0.8611 1.30555,-1.4166 0.88889,-0.5834 1.94445,-0.5834 1.08333,0 1.94445,0.5834 0.88888,0.5555 1.33333,1.4166 l 2.97222,5.9723 q 0.69445,1.4444 0.69445,2.8611 0,1.4166 -0.69445,2.8611 l -2.97222,5.9722 q -0.44445,0.8611 -1.33333,1.4445 -0.86112,0.5555 -1.94445,0.5555 -1.05556,0 -1.94445,-0.5555 -0.86111,-0.5834 -1.30555,-1.4445 l -2.97223,-5.9722 q -0.66667,-1.2778 -0.66667,-2.8611 z m 3.16667,-1.6111 q -0.36111,0.7777 -0.36111,1.6111 0,0.8333 0.36111,1.6111 l 3.00001,5.9444 q 0.22222,0.4723 0.72222,0.4723 0.55556,0 0.77778,-0.4445 l 2.97222,-5.9722 q 0.38889,-0.9445 0.38889,-1.6111 0,-0.8334 -0.38889,-1.6111 l -3,-5.9167 q -0.22222,-0.5 -0.75,-0.5 -0.47222,0 -0.72222,0.5 z m 16.91667,11.0277 v -20.25 h 3.69445 l 7.33334,16.7223 v -15.3334 q 0,-0.5555 0.38889,-0.9722 0.41666,-0.4167 1,-0.4167 0.58333,0 1,0.4167 0.41666,0.4167 0.41666,0.9722 v 20.2778 h -3.72222 l -7.30556,-16.6667 v 15.25 q 0,0.5834 -0.41667,1 -0.41667,0.4167 -1,0.4167 -0.58333,0 -1,-0.4167 -0.38889,-0.4166 -0.38889,-1 z m 20.08334,0 q 0,-0.5555 0.38889,-0.9722 0.41667,-0.4166 1,-0.4166 h 4.11112 v -16.0556 h -4.11112 q -0.58333,0 -1,-0.4167 -0.38889,-0.4166 -0.38889,-1 0,-0.5555 0.38889,-0.9722 0.41667,-0.4167 1,-0.4167 h 11.02779 q 0.58333,0 1,0.4167 0.41667,0.4167 0.41667,0.9722 0,0.5834 -0.41667,1 -0.41667,0.4167 -1,0.4167 h -4.11111 v 16.0556 h 4.11111 q 0.58333,0 1,0.4166 0.41667,0.4167 0.41667,0.9722 0,0.5834 -0.41667,1 -0.41667,0.4167 -1,0.4167 h -11.02779 q -0.58333,0 -1,-0.4167 -0.38889,-0.4166 -0.38889,-1 z m 20.08333,-9.4166 q 0,-1.4723 0.66667,-2.8611 l 2.80556,-5.6667 q 0.44444,-1 1.47222,-1.6389 1.05556,-0.6667 2.30556,-0.6667 h 5.16667 q 0.58333,0 1,0.4167 0.41667,0.4167 0.41667,0.9722 0,0.5834 -0.41667,1 -0.41667,0.4167 -1,0.4167 h -5.16667 q -0.86111,0 -1.22223,0.7778 l -2.86111,5.6389 q -0.36111,0.7777 -0.36111,1.6111 0,0.8333 0.36111,1.6111 l 2.86111,5.6389 q 0.36112,0.7778 1.22223,0.7778 h 5.16667 q 0.58333,0 1,0.4166 0.41667,0.4167 0.41667,0.9722 0,0.5834 -0.41667,1 -0.41667,0.4167 -1,0.4167 h -5.16667 q -1.22223,0 -2.25,-0.6667 -1,-0.6666 -1.5,-1.6666 -2.05556,-3.9167 -2.83334,-5.6389 -0.66667,-1.4167 -0.66667,-2.8611 z m 40.16669,7.0833 q 0,-0.5833 0.38889,-1 0.41667,-0.4167 1,-0.4167 0.58333,0 1,0.4167 0.41667,0.4167 0.41667,1 0,0.3889 0.27778,0.6667 0.27777,0.2778 0.66666,0.2778 h 6.91667 q 0.36112,0 0.36112,-0.3612 l -10.3889,-13.3889 q -0.63889,-0.8888 -0.63889,-1.9444 v -0.083 q 0,-1.25 0.91667,-2.1667 0.94444,-0.9167 2.22222,-0.9167 h 6.91667 q 1.52778,0 2.63889,1.1111 1.13889,1.1112 1.13889,2.6389 0,0.5834 -0.41666,1 -0.41667,0.4167 -1,0.4167 -0.58334,0 -1,-0.4167 -0.38889,-0.4166 -0.38889,-1 0,-0.3611 -0.30556,-0.6389 -0.27778,-0.3055 -0.66667,-0.3055 h -6.91667 q -0.33333,0 -0.33333,0.2778 v 0.083 0.1111 l 10.33334,13.2778 q 0.69444,0.8333 0.69444,1.9444 -0.0556,1.3056 -0.97222,2.25 -0.88889,0.9167 -2.19445,0.9167 h -6.91667 q -1.52778,0 -2.63889,-1.1111 -1.11111,-1.1111 -1.11111,-2.6389 z m 20.08333,-1.2778 v -5.7222 q 0,-0.9722 0.44444,-1.8056 0.44445,-0.8333 0.80556,-1.1666 0.36111,-0.3334 1.22222,-1.0556 1.13889,-1 2.69445,-1 h 3.47222 q 0.36111,0 0.69445,0.056 0.33333,0.028 0.66667,0.1944 0.33333,0.1389 0.52777,0.2222 0.19445,0.056 0.52778,0.3334 0.33334,0.25 0.41667,0.3333 0.11111,0.056 0.47222,0.3889 0.38889,0.3056 0.41667,0.3333 1.47222,1.2778 1.47222,3.1667 v 5.7222 q 0,0.4445 -0.0556,0.8334 -0.0556,0.3611 -0.25,0.7222 -0.19445,0.3611 -0.30556,0.5833 -0.0833,0.1945 -0.44444,0.5556 -0.36112,0.3611 -0.44445,0.4444 -0.0556,0.083 -0.52778,0.5 l -0.47222,0.3889 q -1.13889,1 -2.69445,1 h -3.47222 q -0.44445,0 -0.86111,-0.083 -0.38889,-0.1111 -0.66667,-0.1945 -0.27778,-0.1111 -0.66667,-0.3611 -0.36111,-0.25 -0.52778,-0.3611 -0.13888,-0.1111 -0.52777,-0.4444 -0.36112,-0.3334 -0.47223,-0.4167 -1.44444,-1.1944 -1.44444,-3.1667 z m 2.80556,0 q 0,0.3334 0.16666,0.6389 0.16667,0.3056 0.33334,0.4722 0.19444,0.1667 0.52777,0.4445 0.33334,0.25 0.44445,0.3333 0.41667,0.3334 0.88889,0.3334 h 3.47222 q 0.38889,0 0.69445,-0.1667 0.30555,-0.1667 0.72222,-0.5833 0.41667,-0.4167 0.47222,-0.4445 0.5,-0.3889 0.5,-1.0278 v -5.7222 q 0,-0.7222 -0.83333,-1.4722 -0.83333,-0.75 -1.55556,-0.75 h -3.47222 q -0.38889,0 -0.69445,0.1666 -0.30555,0.1667 -0.72222,0.5834 -0.41667,0.4166 -0.47222,0.4444 -0.47222,0.3889 -0.47222,1.0278 z m 18.63889,3.6111 q 0,-0.5555 0.41667,-0.9722 0.41667,-0.4166 1,-0.4166 h 2.72223 v -16.0556 h -2.72223 q -0.58333,0 -1,-0.4167 -0.41667,-0.4166 -0.41667,-1 0,-0.5555 0.41667,-0.9722 0.41667,-0.4167 1,-0.4167 h 4.13889 q 0.55556,0 0.97223,0.4167 0.41666,0.4167 0.41666,0.9722 v 17.4723 h 2.72223 q 0.58333,0 1,0.4166 0.41667,0.4167 0.41667,0.9722 0,0.5834 -0.41667,1 -0.41667,0.4167 -1,0.4167 h -8.25001 q -0.58333,0 -1,-0.4167 -0.41667,-0.4166 -0.41667,-1 z m 18.72223,-2.75 v -1.5555 q 0,-1.7222 1.22223,-2.9445 1.22222,-1.2222 2.91667,-1.2222 h 5.36111 q 0.66667,0 1.22223,0.1945 0,-0.1945 -0.0278,-0.6389 0,-0.4723 -0.0278,-0.6667 0,-0.2222 -0.0556,-0.6111 -0.0278,-0.3889 -0.11111,-0.5556 -0.0833,-0.1944 -0.25,-0.4166 -0.13889,-0.2223 -0.38889,-0.3056 -0.22222,-0.083 -0.55555,-0.083 h -5.16667 q -0.58334,0 -1,-0.3889 -0.38889,-0.4167 -0.38889,-1 0,-0.5833 0.38889,-1 0.41666,-0.4167 1,-0.4167 h 5.16667 q 1.69444,0 2.88889,1.1945 1.22222,1.1666 1.27778,2.8333 l 0.36111,10.3611 q 0,0.5834 -0.44445,1 -0.41666,0.3889 -1,0.3889 -0.55555,0 -0.97222,-0.4167 -0.38889,-0.4166 -0.38889,-0.9722 l -2.05556,1.1945 q -0.27777,0.1944 -0.69444,0.1944 h -4.13889 q -1.69445,0 -2.91667,-1.2222 -1.22223,-1.2222 -1.22223,-2.9445 z m 2.80556,0 q 0,0.5556 0.38889,0.9723 0.38889,0.3889 0.94445,0.3889 h 3.75 l 2.97222,-1.75 v -1.2223 q 0,-0.5 -0.44444,-0.8889 -0.41667,-0.4166 -0.91667,-0.4166 h -5.36111 q -0.52778,0 -0.94445,0.4166 -0.38889,0.3889 -0.38889,0.9445 z m 17.27779,2.75 v -12.9444 q 0,-0.5833 0.38889,-1 0.41666,-0.4167 1,-0.4167 0.58333,0 1,0.4167 0.41667,0.4167 0.41667,1 v 1.6389 l 3.30555,-2.8334 q 0.30556,-0.2222 0.80556,-0.2222 h 2.75 q 1.69445,0 2.91667,1.25 1.25,1.2222 1.25,2.9167 v 0.7778 q 0,0.5833 -0.41666,1 -0.41667,0.3889 -1.00001,0.3889 -0.58333,0 -1,-0.3889 -0.38889,-0.4167 -0.38889,-1 v -0.7778 q 0,-0.5556 -0.41666,-0.9445 -0.38889,-0.4166 -0.94445,-0.4166 h -2.25 l -4.61111,3.9722 v 7.5833 q 0,0.5834 -0.41667,1 -0.41667,0.4167 -1,0.4167 -0.58334,0 -1,-0.4167 -0.38889,-0.4166 -0.38889,-1 z m 20.08331,-8.25 v -1.1666 q 0,-0.5834 0.38889,-1 0.41667,-0.4167 1,-0.4167 h 11.02779 q 0.58333,0 1,0.4167 0.41667,0.4166 0.41667,1 v 1.1666 q 0,0.5834 -0.41667,1 -0.41667,0.4167 -1,0.4167 h -11.02779 q -0.58333,0 -1,-0.4167 -0.38889,-0.4166 -0.38889,-1 z m 20.08334,9.6667 v -20.2778 q 0,-0.5555 0.38889,-0.9722 0.41667,-0.4167 1,-0.4167 0.58334,0 1.00001,0.4167 0.41666,0.4167 0.41666,0.9722 v 17.4723 h 9.61112 q 0.58333,0 1,0.4166 0.41667,0.4167 0.41667,0.9722 0,0.5834 -0.41667,1 -0.41667,0.4167 -1,0.4167 z m 20.08335,-4.1667 v -1.5555 q 0,-1.7222 1.22222,-2.9445 1.22222,-1.2222 2.91667,-1.2222 h 5.36112 q 0.66666,0 1.22222,0.1945 0,-0.1945 -0.0278,-0.6389 0,-0.4723 -0.0278,-0.6667 0,-0.2222 -0.0555,-0.6111 -0.0278,-0.3889 -0.11111,-0.5556 -0.0833,-0.1944 -0.25,-0.4166 -0.13889,-0.2223 -0.38889,-0.3056 -0.22223,-0.083 -0.55556,-0.083 h -5.16667 q -0.58333,0 -1,-0.3889 -0.38889,-0.4167 -0.38889,-1 0,-0.5833 0.38889,-1 0.41667,-0.4167 1,-0.4167 h 5.16667 q 1.69445,0 2.88889,1.1945 1.22223,1.1666 1.27778,2.8333 l 0.36111,10.3611 q 0,0.5834 -0.44444,1 -0.41667,0.3889 -1,0.3889 -0.55556,0 -0.97223,-0.4167 -0.38889,-0.4166 -0.38889,-0.9722 l -2.05555,1.1945 q -0.27778,0.1944 -0.69445,0.1944 h -4.13889 q -1.69445,0 -2.91667,-1.2222 -1.22222,-1.2222 -1.22222,-2.9445 z m 2.80556,0 q 0,0.5556 0.38889,0.9723 0.38888,0.3889 0.94444,0.3889 h 3.75 l 2.97223,-1.75 v -1.2223 q 0,-0.5 -0.44445,-0.8889 -0.41666,-0.4166 -0.91666,-0.4166 h -5.36112 q -0.52778,0 -0.94444,0.4166 -0.38889,0.3889 -0.38889,0.9445 z m 17.27778,-0.8611 v -5.7222 q 0,-1.3333 0.58334,-2.1389 0.58333,-0.8333 1.66666,-1.7222 0.13889,-0.1111 0.22223,-0.1667 1.13889,-1 2.69444,-1 h 2.08334 q 0.44444,0 0.86111,0.1111 0.41667,0.083 0.66667,0.1945 0.27777,0.083 0.69444,0.3611 0.41667,0.2778 0.52778,0.3611 0.11111,0.083 0.52778,0.4722 0.44444,0.3889 0.5,0.4167 v -6.4167 q 0,-0.5555 0.38889,-0.9722 0.41666,-0.4167 1,-0.4167 0.58333,0 1,0.4167 0.41667,0.4167 0.41667,0.9722 v 18.8611 q 0,0.5834 -0.41667,1 -0.41667,0.4167 -1,0.4167 -0.58334,0 -1,-0.4167 -0.38889,-0.4166 -0.38889,-1 v -0.4444 q -0.63889,0.6111 -1.05556,0.9444 -0.38889,0.3056 -1.13889,0.6112 -0.75,0.3055 -1.58333,0.3055 h -2.08334 q -0.30555,0 -0.58333,-0.028 -0.25,-0.028 -0.52778,-0.1111 -0.25,-0.083 -0.44444,-0.1389 -0.19445,-0.083 -0.44445,-0.2222 -0.22222,-0.1389 -0.36111,-0.2222 -0.13889,-0.083 -0.38889,-0.2778 -0.22222,-0.1944 -0.30556,-0.25 -0.0833,-0.083 -0.36111,-0.3055 -0.25,-0.25 -0.30555,-0.3056 -1.44445,-1.1944 -1.44445,-3.1667 z m 2.80556,0 q 0,0.3334 0.16667,0.6389 0.16666,0.3056 0.33333,0.4722 0.19444,0.1667 0.52778,0.4445 0.33333,0.25 0.44444,0.3333 0.41667,0.3334 0.88889,0.3334 h 2.08334 q 0.5,0 0.88889,-0.3334 l 2.38889,-2.0555 q 0.5,-0.3611 0.5,-1.0278 v -3.3334 q 0,-0.5833 -0.5,-1.0277 l -2.38889,-2.0556 q -0.33334,-0.3333 -0.88889,-0.3333 h -2.08334 q -0.38889,0 -0.72222,0.1944 -0.30556,0.1667 -0.66667,0.5278 -0.36111,0.3611 -0.47222,0.4444 -0.5,0.4445 -0.5,1.0556 z m 17.27779,0 v -5.7222 q 0,-0.9722 0.44444,-1.8056 0.44444,-0.8333 0.80556,-1.1666 0.36111,-0.3334 1.22222,-1.0556 1.13889,-1 2.69445,-1 h 3.47222 q 0.27778,0 0.52778,0.028 0.27778,0.028 0.55556,0.1111 0.27777,0.083 0.44444,0.1389 0.16667,0.056 0.44444,0.2222 0.27778,0.1667 0.36112,0.2222 0.11111,0.056 0.38889,0.3056 0.27777,0.2222 0.33333,0.25 0.0555,0.028 0.36111,0.3056 l 0.30556,0.2777 q 1.47222,1.2778 1.47222,3.1667 v 3.4444 q 0,0.5834 -0.41667,1.0001 -0.41666,0.4166 -1,0.4166 h -9.61112 v 0.8611 q 0,0.3334 0.16667,0.6389 0.16667,0.3056 0.33333,0.4722 0.19445,0.1667 0.52778,0.4445 0.33334,0.25 0.44445,0.3333 0.41666,0.3334 0.88889,0.3334 h 7.25 q 0.58334,0 1,0.4166 0.41667,0.4167 0.41667,0.9722 0,0.5834 -0.41667,1 -0.41666,0.4167 -1,0.4167 h -7.25 q -0.30556,0 -0.58334,-0.028 -0.25,-0.028 -0.52778,-0.1111 -0.25,-0.083 -0.44444,-0.1389 -0.19445,-0.083 -0.44445,-0.2222 -0.22222,-0.1389 -0.36111,-0.2222 -0.13889,-0.083 -0.38889,-0.2778 -0.22222,-0.1944 -0.30555,-0.25 -0.0833,-0.083 -0.36111,-0.3055 -0.25,-0.25 -0.30556,-0.3056 -1.44444,-1.1944 -1.44444,-3.1667 z m 2.80555,-3.6666 h 8.22223 v -2.0556 q 0,-0.7222 -0.83333,-1.4722 -0.83334,-0.75 -1.55556,-0.75 h -3.47222 q -0.38889,0 -0.69445,0.1666 -0.30555,0.1667 -0.72222,0.5834 -0.41667,0.4166 -0.47222,0.4444 -0.47223,0.3889 -0.47223,1.0278 z m 17.27776,7.2777 v -12.9444 q 0,-0.5833 0.38889,-1 0.41666,-0.4167 1,-0.4167 0.58333,0 1,0.4167 0.41667,0.4167 0.41667,1 v 1.6389 l 3.30555,-2.8334 q 0.30556,-0.2222 0.80556,-0.2222 h 2.75 q 1.69445,0 2.91667,1.25 1.25,1.2222 1.25,2.9167 v 0.7778 q 0,0.5833 -0.41666,1 -0.41667,0.3889 -1.00001,0.3889 -0.58333,0 -1,-0.3889 -0.38889,-0.4167 -0.38889,-1 v -0.7778 q 0,-0.5556 -0.41666,-0.9445 -0.38889,-0.4166 -0.94445,-0.4166 h -2.25 l -4.61111,3.9722 v 7.5833 q 0,0.5834 -0.41667,1 -0.41667,0.4167 -1,0.4167 -0.58334,0 -1,-0.4167 -0.38889,-0.4166 -0.38889,-1 z m 20.08334,-3.6111 v -5.7222 q 0,-0.9722 0.44445,-1.8056 0.44444,-0.8333 0.80555,-1.1666 0.36111,-0.3334 1.22223,-1.0556 1.13889,-1 2.69444,-1 h 3.47223 q 0.27778,0 0.52778,0.028 0.27777,0.028 0.55555,0.1111 0.27778,0.083 0.44445,0.1389 0.16666,0.056 0.44444,0.2222 0.27778,0.1667 0.36111,0.2222 0.11111,0.056 0.38889,0.3056 0.27778,0.2222 0.33334,0.25 0.0555,0.028 0.36111,0.3056 l 0.30555,0.2777 q 1.47223,1.2778 1.47223,3.1667 v 3.4444 q 0,0.5834 -0.41667,1.0001 -0.41667,0.4166 -1,0.4166 h -9.61112 v 0.8611 q 0,0.3334 0.16667,0.6389 0.16666,0.3056 0.33333,0.4722 0.19444,0.1667 0.52778,0.4445 0.33333,0.25 0.44444,0.3333 0.41667,0.3334 0.88889,0.3334 h 7.25001 q 0.58333,0 1,0.4166 0.41667,0.4167 0.41667,0.9722 0,0.5834 -0.41667,1 -0.41667,0.4167 -1,0.4167 h -7.25001 q -0.30555,0 -0.58333,-0.028 -0.25,-0.028 -0.52778,-0.1111 -0.25,-0.083 -0.44444,-0.1389 -0.19445,-0.083 -0.44445,-0.2222 -0.22222,-0.1389 -0.36111,-0.2222 -0.13889,-0.083 -0.38889,-0.2778 -0.22222,-0.1944 -0.30556,-0.25 -0.0833,-0.083 -0.36111,-0.3055 -0.25,-0.25 -0.30555,-0.3056 -1.44445,-1.1944 -1.44445,-3.1667 z m 2.80556,-3.6666 h 8.22223 v -2.0556 q 0,-0.7222 -0.83334,-1.4722 -0.83333,-0.75 -1.55555,-0.75 h -3.47223 q -0.38889,0 -0.69444,0.1666 -0.30556,0.1667 -0.72223,0.5834 -0.41666,0.4166 -0.47222,0.4444 -0.47222,0.3889 -0.47222,1.0278 z m 17.27779,2.4722 v -4.5278 q 0,-0.3056 0.0278,-0.6111 0.0556,-0.3056 0.0833,-0.5278 0.0555,-0.2222 0.19444,-0.5 0.16667,-0.2778 0.22222,-0.4167 0.0556,-0.1388 0.27778,-0.3888 0.22222,-0.2778 0.27778,-0.3612 0.0556,-0.083 0.33333,-0.3333 0.30556,-0.25 0.33334,-0.2778 0.0555,-0.056 0.36111,-0.3055 0.33333,-0.2778 0.36111,-0.3056 1.13889,-1 2.69445,-1 h 2.08333 q 0.44445,0 0.86111,0.1111 0.41667,0.083 0.66667,0.1945 0.27778,0.083 0.69444,0.3611 0.41667,0.2778 0.52778,0.3611 0.11111,0.083 0.52778,0.4722 0.44445,0.3889 0.5,0.4167 v -0.5 q 0,-0.5833 0.38889,-1 0.41667,-0.4167 1,-0.4167 0.58334,0 1,0.4167 0.41667,0.4167 0.41667,1 v 15.2222 q 0,0.4445 -0.0556,0.8056 -0.0556,0.3889 -0.25,0.75 -0.19444,0.3611 -0.30555,0.5555 -0.0833,0.2223 -0.44445,0.5834 -0.36111,0.3611 -0.44444,0.4444 -0.0556,0.083 -0.52778,0.5 l -0.47222,0.3889 q -1.13889,1 -2.69445,1 h -5.86111 q -0.58334,0 -1.00001,-0.4167 -0.41666,-0.3889 -0.41666,-0.9722 0,-0.5833 0.41666,-1 0.41667,-0.4167 1.00001,-0.4167 h 5.86111 q 0.38889,0 0.69445,-0.1944 0.33333,-0.1944 0.72222,-0.5556 0.38889,-0.3611 0.47222,-0.4444 0.5,-0.3889 0.5,-1.0278 v -3.9166 q -0.63889,0.5833 -1.05555,0.9166 -0.41667,0.3334 -1.16667,0.6667 -0.75,0.3055 -1.55556,0.3055 h -2.08333 q -0.41667,0 -0.86112,-0.083 -0.41666,-0.1111 -0.66666,-0.1944 -0.25,-0.083 -0.66667,-0.3611 -0.41667,-0.3056 -0.52778,-0.3612 -0.0833,-0.083 -0.52778,-0.5 l -0.47222,-0.3888 q -1.44444,-1.25 -1.44444,-3.1667 z m 2.77778,0 q 0,0.75 0.80555,1.5 0.83334,0.75 1.58334,0.75 h 2.08333 q 0.55556,0 0.88889,-0.3333 l 2.38889,-2.0556 q 0.5,-0.3889 0.5,-1.0278 v -2.1667 q 0,-0.5833 -0.5,-1.0277 l -2.38889,-2.0556 q -0.33333,-0.3333 -0.88889,-0.3333 h -2.08333 q -0.41667,0 -0.75,0.1944 -0.30556,0.1945 -0.63889,0.5278 -0.33334,0.3333 -0.5,0.4444 -0.5,0.5 -0.5,1.0556 z m 18.66667,4.8055 q 0,-0.5555 0.41667,-0.9722 0.41666,-0.4166 1,-0.4166 h 2.72222 v -16.0556 h -2.72222 q -0.58334,0 -1,-0.4167 -0.41667,-0.4166 -0.41667,-1 0,-0.5555 0.41667,-0.9722 0.41666,-0.4167 1,-0.4167 h 4.13889 q 0.55556,0 0.97222,0.4167 0.41667,0.4167 0.41667,0.9722 v 17.4723 h 2.72223 q 0.58333,0 1,0.4166 0.41666,0.4167 0.41666,0.9722 0,0.5834 -0.41666,1 -0.41667,0.4167 -1,0.4167 h -8.25001 q -0.58334,0 -1,-0.4167 -0.41667,-0.4166 -0.41667,-1 z m 18.72223,-3.6111 v -5.7222 q 0,-0.9722 0.44445,-1.8056 0.44444,-0.8333 0.80555,-1.1666 0.36111,-0.3334 1.22223,-1.0556 1.13889,-1 2.69444,-1 h 3.47223 q 0.27778,0 0.52778,0.028 0.27777,0.028 0.55555,0.1111 0.27778,0.083 0.44445,0.1389 0.16666,0.056 0.44444,0.2222 0.27778,0.1667 0.36111,0.2222 0.11111,0.056 0.38889,0.3056 0.27778,0.2222 0.33334,0.25 0.0556,0.028 0.36111,0.3056 l 0.30555,0.2777 q 1.47223,1.2778 1.47223,3.1667 v 3.4444 q 0,0.5834 -0.41667,1.0001 -0.41667,0.4166 -1,0.4166 h -9.61112 v 0.8611 q 0,0.3334 0.16667,0.6389 0.16666,0.3056 0.33333,0.4722 0.19445,0.1667 0.52778,0.4445 0.33333,0.25 0.44444,0.3333 0.41667,0.3334 0.88889,0.3334 h 7.25001 q 0.58333,0 1,0.4166 0.41667,0.4167 0.41667,0.9722 0,0.5834 -0.41667,1 -0.41667,0.4167 -1,0.4167 h -7.25001 q -0.30555,0 -0.58333,-0.028 -0.25,-0.028 -0.52778,-0.1111 -0.25,-0.083 -0.44444,-0.1389 -0.19445,-0.083 -0.44445,-0.2222 -0.22222,-0.1389 -0.36111,-0.2222 -0.13889,-0.083 -0.38889,-0.2778 -0.22222,-0.1944 -0.30555,-0.25 -0.0833,-0.083 -0.36112,-0.3055 -0.25,-0.25 -0.30555,-0.3056 -1.44445,-1.1944 -1.44445,-3.1667 z m 2.80556,-3.6666 h 8.22223 v -2.0556 q 0,-0.7222 -0.83334,-1.4722 -0.83333,-0.75 -1.55555,-0.75 h -3.47223 q -0.38889,0 -0.69444,0.1666 -0.30556,0.1667 -0.72222,0.5834 -0.41667,0.4166 -0.47223,0.4444 -0.47222,0.3889 -0.47222,1.0278 z m 17.27779,7.2777 v -12.9444 q 0,-0.5833 0.38888,-1 0.41667,-0.4167 1.00001,-0.4167 0.58333,0 1,0.4167 0.41666,0.4167 0.41666,1 v 1.6389 l 3.30556,-2.8334 q 0.30556,-0.2222 0.80556,-0.2222 h 2.75 q 1.69445,0 2.91667,1.25 1.25,1.2222 1.25,2.9167 v 0.7778 q 0,0.5833 -0.41667,1 -0.41666,0.3889 -1,0.3889 -0.58333,0 -1,-0.3889 -0.38889,-0.4167 -0.38889,-1 v -0.7778 q 0,-0.5556 -0.41666,-0.9445 -0.38889,-0.4166 -0.94445,-0.4166 h -2.25 l -4.61112,3.9722 v 7.5833 q 0,0.5834 -0.41666,1 -0.41667,0.4167 -1,0.4167 -0.58334,0 -1.00001,-0.4167 -0.38888,-0.4166 -0.38888,-1 z"
       id="text3"
       style="font-size:27.7778px;font-family:OCRA;-inkscape-font-specification:OCRA;letter-spacing:0px;stroke:#ffbf00;stroke-width:0;stroke-linecap:square;stroke-miterlimit:4.7;paint-order:stroke fill markers"
       aria-label="H-TRONIC Solar-Laderegler" />
  </g>
</svg>
