<?xml version="1.0" encoding="UTF-8" standalone="no"?>
<!-- Created with Fritzing (https://fritzing.org/) -->

<svg
   gorn="0"
   height="6.0009999mm"
   id="svg82"
   version="1.2"
   viewBox="0 0 49.606342 17.010711"
   width="17.5mm"
   x="0in"
   y="0in"
   sodipodi:docname="jst6-xh_breadboard.svg"
   inkscape:version="1.4.4 (dcaf3e7, 2026-05-05)"
   xmlns:inkscape="http://www.inkscape.org/namespaces/inkscape"
   xmlns:sodipodi="http://sodipodi.sourceforge.net/DTD/sodipodi-0.dtd"
   xmlns="http://www.w3.org/2000/svg"
   xmlns:svg="http://www.w3.org/2000/svg">
  <sodipodi:namedview
     id="namedview50"
     pagecolor="#ffffff"
     bordercolor="#000000"
     borderopacity="0.25"
     inkscape:showpageshadow="2"
     inkscape:pageopacity="0.0"
     inkscape:pagecheckerboard="0"
     inkscape:deskcolor="#d1d1d1"
     inkscape:document-units="mm"
     inkscape:zoom="15.663333"
     inkscape:cx="28.282614"
     inkscape:cy="11.332199"
     inkscape:window-width="1920"
     inkscape:window-height="1017"
     inkscape:window-x="1912"
     inkscape:window-y="-8"
     inkscape:window-maximized="1"
     inkscape:current-layer="svg82" />
  <desc
     id="desc2">
    <referenceFile>stephena-jst4_aaa2d2a14434f18e4ffd8bb5e9652fa7_12_breadboard.svg</referenceFile>
  </desc>
  <defs
     id="defs86" />
  <g
     transform="translate(19.381,25.688)"
     id="g3">
    <g
       id="g2">
      <g
         id="g1">
        <g
           gorn="0.2.0.0.0"
           id="g31">
          <rect
             fill="#b9b9b9"
             gorn="0.2.0.0.0.0"
             height="4.402"
             id="rect27"
             width="1.563"
             x="-15.129"
             y="-25.684999" />
          <rect
             fill="#b9b9b9"
             gorn="0.2.0.0.0.1"
             height="4.402"
             id="rect29"
             width="1.563"
             x="24.235716"
             y="-25.684999" />
          <path
             d="M 24.236854,-24.746 H -13.566 v 3.463 h 37.802854 z"
             fill="#b9b9b9"
             gorn="0.2.0.0.0.2"
             id="path4286_4_"
             stroke-width="1.51167" />
          <path
             d="m 26.596977,-25.688 h 3.543 V -8.68 h -3.543 z"
             fill="#b9b9b9"
             gorn="0.2.0.0.0.3"
             id="path4286_2_" />
          <path
             d="m -19.381,-25.686 h 3.401 v 17.008 h -3.401 z"
             fill="#b9b9b9"
             gorn="0.2.0.0.0.4"
             id="path4286_3_" />
        </g>
      </g>
    </g>
  </g>
  <g
     transform="matrix(1.2336394,0,0,1,-108.2391,-73.7597)"
     id="g19">
    <g
       id="g18">
      <g
         id="g17">
        <g
           gorn="0.3.0.0.0"
           id="g16">
          <g
             transform="translate(106.654,99.4477)"
             id="g6">
            <g
               id="g5">
              <g
                 id="g4">
                <path
                   d="M 19.158339,-21.811 H -16.917 v 9.259 h 36.075339 z"
                   fill="#e2e2e2"
                   gorn="0.3.0.0.0.0.0.0.0"
                   id="path4286"
                   stroke-width="1.24581" />
              </g>
            </g>
          </g>
          <g
             transform="matrix(1.1949357,0,0,1,109.86712,99.4477)"
             id="g9">
            <g
               id="g8">
              <g
                 id="g7">
                <path
                   d="M 12.980322,-21.283 H -16.483 v 8.203 h 29.463322 z"
                   fill="#d0d0d0"
                   gorn="0.3.0.0.0.1.0.0.0"
                   id="path4286_1_"
                   stroke-width="1.14749" />
              </g>
            </g>
          </g>
          <g
             transform="translate(112.39842,99.4477)"
             id="g12">
            <g
               id="g11">
              <g
                 id="g10">
                <path
                   d="m 13.413859,-21.283 h -1.455 v 8.203 h 1.455 z"
                   fill="#efefef"
                   gorn="0.3.0.0.0.2.0.0.0"
                   id="path4286_5_" />
              </g>
            </g>
          </g>
          <g
             transform="translate(106.654,99.4477)"
             id="g15">
            <g
               id="g14">
              <g
                 id="g13">
                <path
                   d="m -15.462,-21.285 h -1.455 v 8.203 h 1.455 z"
                   fill="#efefef"
                   gorn="0.3.0.0.0.3.0.0.0"
                   id="path4286_6_" />
              </g>
            </g>
          </g>
        </g>
      </g>
    </g>
  </g>
  <g
     gorn="0.4.0.0.0"
     id="connector0pin"
     transform="translate(-85.713997,-79.251003)">
    <g
       transform="translate(105.095,104.939)"
       id="g22">
      <g
         id="g21">
        <g
           id="g20">
          <rect
             fill="#9a916c"
             gorn="0.4.0.0.0.0.0.0.0"
             height="3.2309999"
             id="connector0terminal"
             rx="0.28299999"
             width="3.2309999"
             x="-13.952"
             y="-18.798" />
        </g>
      </g>
    </g>
    <path
       d="m 92.234,86.948 h 1.049 c 0.156,0 0.283,0.126 0.283,0.283 v 1.049 c 0,0.157 -0.127,0.284 -0.283,0.284 h -1.049 c -0.157,0 -0.284,-0.127 -0.284,-0.284 v -1.049 c 0,-0.156 0.127,-0.283 0.284,-0.283 z"
       enable-background="new    "
       fill="#8c8663"
       gorn="0.4.0.0.0.1"
       id="path4154"
       opacity="0.95" />
    <path
       d="m 94.231,89.231 -0.808,-0.809 c -0.051,0.051 -0.063,0.143 -0.141,0.143 h -1.048 c -0.079,0 -0.091,-0.092 -0.143,-0.143 l -0.808,0.809 c 0.052,0.051 0.063,0.142 0.142,0.142 h 2.664 c 0.081,-0.001 0.091,-0.091 0.142,-0.142 z"
       enable-background="new    "
       fill="#5e5b43"
       gorn="0.4.0.0.0.2"
       id="path4217"
       opacity="0.95" />
    <path
       d="m 93.425,87.09 c 0.051,0.051 0.141,0.063 0.141,0.142 v 1.048 c 0,0.079 -0.091,0.092 -0.143,0.143 l 0.808,0.809 c 0.052,-0.052 0.143,-0.063 0.143,-0.141 v -2.667 c 0,-0.078 -0.091,-0.089 -0.143,-0.141 z"
       enable-background="new    "
       fill="#80795b"
       gorn="0.4.0.0.0.3"
       id="path4222"
       opacity="0.95" />
    <path
       d="m 91.285,86.283 c -0.052,0.051 -0.143,0.063 -0.143,0.141 v 2.667 c 0,0.078 0.091,0.089 0.143,0.141 l 0.808,-0.809 C 92.041,88.372 91.95,88.36 91.95,88.28 v -1.048 c 0,-0.079 0.092,-0.09 0.143,-0.141 z"
       enable-background="new    "
       fill="#9a916c"
       gorn="0.4.0.0.0.4"
       id="path4220"
       opacity="0.95" />
    <path
       d="m 91.285,86.283 0.808,0.808 c 0.052,-0.052 0.063,-0.142 0.143,-0.142 h 1.048 c 0.079,0 0.092,0.089 0.143,0.141 l 0.806,-0.807 c -0.051,-0.051 -0.062,-0.142 -0.141,-0.142 h -2.664 c -0.08,0 -0.091,0.091 -0.143,0.142 z"
       enable-background="new    "
       fill="#b8af82"
       gorn="0.4.0.0.0.5"
       id="path4159"
       opacity="0.95" />
  </g>
  <g
     gorn="0.5.0.0.0"
     id="connector1pin"
     transform="translate(-85.713997,-79.251003)">
    <g
       transform="translate(105.095,104.939)"
       id="g28">
      <g
         id="g27">
        <g
           id="g26">
          <rect
             fill="#9a916c"
             gorn="0.5.0.0.0.0.0.0.0"
             height="3.2309999"
             id="connector1terminal"
             rx="0.28299999"
             width="3.2309999"
             x="-6.8649998"
             y="-18.798" />
        </g>
      </g>
    </g>
    <path
       d="m 99.321,86.948 h 1.049 c 0.156,0 0.283,0.126 0.283,0.283 v 1.049 c 0,0.157 -0.127,0.284 -0.283,0.284 h -1.049 c -0.156,0 -0.283,-0.127 -0.283,-0.284 v -1.049 c 0,-0.156 0.127,-0.283 0.283,-0.283 z"
       enable-background="new    "
       fill="#8c8663"
       gorn="0.5.0.0.0.1"
       id="path5450"
       opacity="0.95" />
    <path
       d="m 101.319,89.231 -0.808,-0.809 c -0.052,0.051 -0.063,0.143 -0.141,0.143 h -1.049 c -0.078,0 -0.091,-0.092 -0.143,-0.143 l -0.808,0.809 c 0.052,0.051 0.063,0.142 0.143,0.142 h 2.664 c 0.08,-0.001 0.092,-0.091 0.142,-0.142 z"
       enable-background="new    "
       fill="#5e5b43"
       gorn="0.5.0.0.0.2"
       id="path5452"
       opacity="0.95" />
    <path
       d="m 100.513,87.09 c 0.052,0.051 0.141,0.063 0.141,0.142 v 1.048 c 0,0.079 -0.091,0.092 -0.142,0.143 l 0.808,0.809 c 0.051,-0.052 0.142,-0.063 0.142,-0.141 v -2.667 c 0,-0.078 -0.091,-0.089 -0.142,-0.141 z"
       enable-background="new    "
       fill="#80795b"
       gorn="0.5.0.0.0.3"
       id="path5454"
       opacity="0.95" />
    <path
       d="m 98.372,86.283 c -0.051,0.051 -0.142,0.063 -0.142,0.141 v 2.667 c 0,0.078 0.091,0.089 0.142,0.141 L 99.18,88.423 C 99.129,88.372 99.038,88.36 99.038,88.28 v -1.048 c 0,-0.079 0.091,-0.09 0.142,-0.141 z"
       enable-background="new    "
       fill="#9a916c"
       gorn="0.5.0.0.0.4"
       id="path5456"
       opacity="0.95" />
    <path
       d="m 98.372,86.283 0.808,0.808 c 0.052,-0.052 0.063,-0.142 0.143,-0.142 h 1.049 c 0.078,0 0.091,0.089 0.142,0.141 l 0.807,-0.807 c -0.051,-0.051 -0.063,-0.142 -0.141,-0.142 h -2.664 c -0.08,0 -0.092,0.091 -0.144,0.142 z"
       enable-background="new    "
       fill="#b8af82"
       gorn="0.5.0.0.0.5"
       id="path5458"
       opacity="0.95" />
  </g>
  <g
     gorn="0.6.0.0.0"
     id="connector2pin"
     transform="translate(-85.713997,-79.251003)">
    <g
       transform="translate(105.095,104.939)"
       id="g35">
      <g
         id="g34">
        <g
           id="g33">
          <rect
             fill="#9a916c"
             gorn="0.6.0.0.0.0.0.0.0"
             height="3.2309999"
             id="connector2terminal"
             rx="0.28299999"
             width="3.2309999"
             x="0.22400001"
             y="-18.798" />
        </g>
      </g>
    </g>
    <path
       d="m 106.408,86.947 h 1.049 c 0.156,0 0.283,0.127 0.283,0.284 v 1.049 c 0,0.156 -0.127,0.283 -0.283,0.283 h -1.049 c -0.156,0 -0.283,-0.127 -0.283,-0.283 v -1.049 c 0,-0.156 0.127,-0.284 0.283,-0.284 z"
       enable-background="new    "
       fill="#8c8663"
       gorn="0.6.0.0.0.1"
       id="path5464"
       opacity="0.95" />
    <path
       d="m 108.406,89.229 -0.809,-0.808 c -0.051,0.052 -0.063,0.142 -0.141,0.142 h -1.049 c -0.078,0 -0.09,-0.09 -0.143,-0.142 l -0.807,0.808 c 0.051,0.052 0.063,0.143 0.143,0.143 h 2.664 c 0.08,0 0.092,-0.092 0.142,-0.143 z"
       enable-background="new    "
       fill="#5e5b43"
       gorn="0.6.0.0.0.2"
       id="path5466"
       opacity="0.95" />
    <path
       d="m 107.6,87.088 c 0.051,0.051 0.141,0.064 0.141,0.143 v 1.049 c 0,0.078 -0.092,0.09 -0.143,0.142 l 0.809,0.808 c 0.051,-0.051 0.141,-0.063 0.141,-0.141 v -2.666 c 0,-0.078 -0.09,-0.089 -0.141,-0.141 z"
       enable-background="new    "
       fill="#80795b"
       gorn="0.6.0.0.0.3"
       id="path5468"
       opacity="0.95" />
    <path
       d="m 105.459,86.282 c -0.051,0.051 -0.143,0.063 -0.143,0.141 v 2.666 c 0,0.078 0.092,0.09 0.143,0.141 l 0.807,-0.808 c -0.051,-0.052 -0.141,-0.063 -0.141,-0.142 v -1.049 c 0,-0.078 0.09,-0.09 0.141,-0.141 z"
       enable-background="new    "
       fill="#9a916c"
       gorn="0.6.0.0.0.4"
       id="path5470"
       opacity="0.95" />
    <path
       d="m 105.459,86.282 0.807,0.808 c 0.053,-0.051 0.064,-0.142 0.143,-0.142 h 1.049 c 0.078,0 0.092,0.089 0.143,0.14 l 0.807,-0.806 c -0.051,-0.051 -0.063,-0.142 -0.141,-0.142 h -2.664 c -0.081,0 -0.093,0.091 -0.144,0.142 z"
       enable-background="new    "
       fill="#b8af82"
       gorn="0.6.0.0.0.5"
       id="path5472"
       opacity="0.95" />
  </g>
  <g
     gorn="0.7.0.0.0"
     id="connector3pin"
     transform="translate(-78.627798,-79.251003)">
    <g
       transform="translate(98.008798,104.939)"
       id="g41">
      <g
         id="g40">
        <g
           id="g39">
          <rect
             fill="#9a916c"
             gorn="0.7.0.0.0.0.0.0.0"
             height="3.2309999"
             id="connector3terminal"
             rx="0.28299999"
             width="3.2309999"
             x="7.309"
             y="-18.798" />
        </g>
      </g>
    </g>
    <path
       d="m 106.408,86.947 h 1.049 c 0.156,0 0.283,0.127 0.283,0.284 v 1.049 c 0,0.156 -0.127,0.283 -0.283,0.283 h -1.049 c -0.156,0 -0.283,-0.127 -0.283,-0.283 v -1.049 c 0,-0.156 0.127,-0.284 0.283,-0.284 z"
       enable-background="new    "
       fill="#8c8663"
       gorn="0.7.0.0.0.1"
       id="path321"
       opacity="0.95" />
    <path
       d="m 108.406,89.229 -0.809,-0.808 c -0.051,0.052 -0.063,0.142 -0.141,0.142 h -1.049 c -0.078,0 -0.09,-0.09 -0.143,-0.142 l -0.807,0.808 c 0.051,0.052 0.063,0.143 0.143,0.143 h 2.664 c 0.08,0 0.092,-0.092 0.142,-0.143 z"
       enable-background="new    "
       fill="#5e5b43"
       gorn="0.7.0.0.0.2"
       id="path323"
       opacity="0.95" />
    <path
       d="m 107.6,87.088 c 0.051,0.051 0.141,0.064 0.141,0.143 v 1.049 c 0,0.078 -0.092,0.09 -0.143,0.142 l 0.809,0.808 c 0.051,-0.051 0.141,-0.063 0.141,-0.141 v -2.666 c 0,-0.078 -0.09,-0.089 -0.141,-0.141 z"
       enable-background="new    "
       fill="#80795b"
       gorn="0.7.0.0.0.3"
       id="path325"
       opacity="0.95" />
    <path
       d="m 105.459,86.282 c -0.051,0.051 -0.143,0.063 -0.143,0.141 v 2.666 c 0,0.078 0.092,0.09 0.143,0.141 l 0.807,-0.808 c -0.051,-0.052 -0.141,-0.063 -0.141,-0.142 v -1.049 c 0,-0.078 0.09,-0.09 0.141,-0.141 z"
       enable-background="new    "
       fill="#9a916c"
       gorn="0.7.0.0.0.4"
       id="path327"
       opacity="0.95" />
    <path
       d="m 105.459,86.282 0.807,0.808 c 0.053,-0.051 0.064,-0.142 0.143,-0.142 h 1.049 c 0.078,0 0.092,0.089 0.143,0.14 l 0.807,-0.806 c -0.051,-0.051 -0.063,-0.142 -0.141,-0.142 h -2.664 c -0.081,0 -0.093,0.091 -0.144,0.142 z"
       enable-background="new    "
       fill="#b8af82"
       gorn="0.7.0.0.0.5"
       id="path329"
       opacity="0.95" />
  </g>
  <g
     gorn="0.8.0.0.0"
     id="connector4pin"
     transform="translate(-71.54118,-79.251003)">
    <g
       transform="translate(98.008798,104.939)"
       id="g47">
      <g
         id="g46">
        <g
           id="g45">
          <rect
             fill="#9a916c"
             gorn="0.8.0.0.0.0.0.0.0"
             height="3.2309999"
             id="rect1"
             rx="0.28299999"
             width="3.2309999"
             x="7.309"
             y="-18.798" />
        </g>
      </g>
    </g>
    <path
       d="m 106.408,86.947 h 1.049 c 0.156,0 0.283,0.127 0.283,0.284 v 1.049 c 0,0.156 -0.127,0.283 -0.283,0.283 h -1.049 c -0.156,0 -0.283,-0.127 -0.283,-0.283 v -1.049 c 0,-0.156 0.127,-0.284 0.283,-0.284 z"
       enable-background="new    "
       fill="#8c8663"
       gorn="0.8.0.0.0.1"
       id="path60"
       opacity="0.95" />
    <path
       d="m 108.406,89.229 -0.809,-0.808 c -0.051,0.052 -0.063,0.142 -0.141,0.142 h -1.049 c -0.078,0 -0.09,-0.09 -0.143,-0.142 l -0.807,0.808 c 0.051,0.052 0.063,0.143 0.143,0.143 h 2.664 c 0.08,0 0.092,-0.092 0.142,-0.143 z"
       enable-background="new    "
       fill="#5e5b43"
       gorn="0.8.0.0.0.2"
       id="path2"
       opacity="0.95" />
    <path
       d="m 107.6,87.088 c 0.051,0.051 0.141,0.064 0.141,0.143 v 1.049 c 0,0.078 -0.092,0.09 -0.143,0.142 l 0.809,0.808 c 0.051,-0.051 0.141,-0.063 0.141,-0.141 v -2.666 c 0,-0.078 -0.09,-0.089 -0.141,-0.141 z"
       enable-background="new    "
       fill="#80795b"
       gorn="0.8.0.0.0.3"
       id="path3"
       opacity="0.95" />
    <path
       d="m 105.459,86.282 c -0.051,0.051 -0.143,0.063 -0.143,0.141 v 2.666 c 0,0.078 0.092,0.09 0.143,0.141 l 0.807,-0.808 c -0.051,-0.052 -0.141,-0.063 -0.141,-0.142 v -1.049 c 0,-0.078 0.09,-0.09 0.141,-0.141 z"
       enable-background="new    "
       fill="#9a916c"
       gorn="0.8.0.0.0.4"
       id="path4"
       opacity="0.95" />
    <path
       d="m 105.459,86.282 0.807,0.808 c 0.053,-0.051 0.064,-0.142 0.143,-0.142 h 1.049 c 0.078,0 0.092,0.089 0.143,0.14 l 0.807,-0.806 c -0.051,-0.051 -0.063,-0.142 -0.141,-0.142 h -2.664 c -0.081,0 -0.093,0.091 -0.144,0.142 z"
       enable-background="new    "
       fill="#b8af82"
       gorn="0.8.0.0.0.5"
       id="path5"
       opacity="0.95" />
  </g>
  <g
     gorn="0.8.0.0.0"
     id="connector5pin"
     transform="translate(-64.454562,-79.251003)">
    <rect
       fill="#9a916c"
       gorn="0.8.0.0.0.0.0.0.0"
       height="3.2309999"
       id="rect50"
       rx="0.28299999"
       width="3.2309999"
       x="105.31779"
       y="86.140999" />
    <path
       d="m 106.408,86.947 h 1.049 c 0.156,0 0.283,0.127 0.283,0.284 v 1.049 c 0,0.156 -0.127,0.283 -0.283,0.283 h -1.049 c -0.156,0 -0.283,-0.127 -0.283,-0.283 v -1.049 c 0,-0.156 0.127,-0.284 0.283,-0.284 z"
       enable-background="new    "
       fill="#8c8663"
       gorn="0.8.0.0.0.1"
       id="path53"
       opacity="0.95" />
    <path
       d="m 108.406,89.229 -0.809,-0.808 c -0.051,0.052 -0.063,0.142 -0.141,0.142 h -1.049 c -0.078,0 -0.09,-0.09 -0.143,-0.142 l -0.807,0.808 c 0.051,0.052 0.063,0.143 0.143,0.143 h 2.664 c 0.08,0 0.092,-0.092 0.142,-0.143 z"
       enable-background="new    "
       fill="#5e5b43"
       gorn="0.8.0.0.0.2"
       id="path54"
       opacity="0.95" />
    <path
       d="m 107.6,87.088 c 0.051,0.051 0.141,0.064 0.141,0.143 v 1.049 c 0,0.078 -0.092,0.09 -0.143,0.142 l 0.809,0.808 c 0.051,-0.051 0.141,-0.063 0.141,-0.141 v -2.666 c 0,-0.078 -0.09,-0.089 -0.141,-0.141 z"
       enable-background="new    "
       fill="#80795b"
       gorn="0.8.0.0.0.3"
       id="path55"
       opacity="0.95" />
    <path
       d="m 105.459,86.282 c -0.051,0.051 -0.143,0.063 -0.143,0.141 v 2.666 c 0,0.078 0.092,0.09 0.143,0.141 l 0.807,-0.808 c -0.051,-0.052 -0.141,-0.063 -0.141,-0.142 v -1.049 c 0,-0.078 0.09,-0.09 0.141,-0.141 z"
       enable-background="new    "
       fill="#9a916c"
       gorn="0.8.0.0.0.4"
       id="path56"
       opacity="0.95" />
    <path
       d="m 105.459,86.282 0.807,0.808 c 0.053,-0.051 0.064,-0.142 0.143,-0.142 h 1.049 c 0.078,0 0.092,0.089 0.143,0.14 l 0.807,-0.806 c -0.051,-0.051 -0.063,-0.142 -0.141,-0.142 h -2.664 c -0.081,0 -0.093,0.091 -0.144,0.142 z"
       enable-background="new    "
       fill="#b8af82"
       gorn="0.8.0.0.0.5"
       id="path57"
       opacity="0.95" />
  </g>
</svg>
