<?xml version="1.0" encoding="UTF-8" standalone="no"?>
<svg
   gorn="0"
   height="0.40000001in"
   id="svg2"
   version="1.1"
   viewBox="0 0 21.6 28.8"
   width="0.30000001in"
   x="0px"
   xml:space="preserve"
   y="0px"
   xmlns="http://www.w3.org/2000/svg"
   xmlns:svg="http://www.w3.org/2000/svg"><defs
   id="defs2" />
    <desc
   id="desc1">
        <referenceFile>screw_terminal_2_100mil_schem.svg</referenceFile>
    </desc>
    <g
   gorn="0.0"
   id="schematic">
        <line
   fill="none"
   gorn="0.0.0"
   id="connector0pin"
   stroke="#787878"
   stroke-linecap="round"
   stroke-linejoin="round"
   stroke-width="0.699999"
   x1="0.34999901"
   x2="13.7"
   y1="3.5999999"
   y2="3.5999999" />
        <rect
   gorn="0.0.1"
   height="0.69999897"
   id="connector0terminal"
   width="1"
   x="0"
   y="3.25"
   style="display:inline" />
        <circle
   cx="17.299999"
   cy="3.5999999"
   fill="none"
   r="2.9000001"
   stroke="#787878"
   stroke-width="0.699999"
   id="circle1" />
        <line
   fill="none"
   gorn="0.0.3"
   id="connector1pin"
   stroke="#787878"
   stroke-linecap="round"
   stroke-linejoin="round"
   stroke-width="0.699999"
   x1="0.34999901"
   x2="13.7"
   y1="10.8"
   y2="10.8" />
        <rect
   gorn="0.0.4"
   height="0.69999897"
   id="connector1terminal"
   width="1"
   x="0"
   y="10.45" />
        <circle
   cx="17.299999"
   cy="10.8"
   fill="none"
   r="2.9000001"
   stroke="#787878"
   stroke-width="0.699999"
   id="circle2" /><path
   d="m 6.7457544,5.8876932 q 0,-0.04 0.028,-0.07 0.03,-0.03 0.072,-0.03 h 0.296 v -1.156 h -0.296 q -0.042,0 -0.072,-0.03 -0.028,-0.03 -0.028,-0.072 0,-0.04 0.028,-0.07 0.03,-0.03 0.072,-0.03 h 0.498 v 1.358 h 0.196 v -0.408 q 0,-0.042 0.028,-0.072 0.03,-0.03 0.072,-0.03 0.042,0 0.072,0.03 0.03,0.03 0.03,0.072 v 0.508 q 0,0.042 -0.03,0.072 -0.03,0.03 -0.072,0.03 h -0.794 q -0.042,0 -0.072,-0.03 -0.028,-0.03 -0.028,-0.072 z m 3.1879983,-0.486 v -0.384 q 0,-0.138 0.086,-0.25 l 0.234,-0.3 q 0.032,-0.038 0.08,-0.038 0.042,0 0.07,0.03 0.03,0.03 0.03,0.07 0,0.034 -0.02,0.064 l -0.234,0.298 q -0.044,0.058 -0.044,0.126 v 0.384 q 0,0.068 0.044,0.126 l 0.234,0.298 q 0.02,0.03 0.02,0.062 0,0.042 -0.03,0.072 -0.028,0.03 -0.07,0.03 -0.048,0 -0.08,-0.038 l -0.234,-0.3 q -0.086,-0.112 -0.086,-0.25 z m 1.1779993,-0.12 q -0.028,-0.03 -0.028,-0.072 0,-0.042 0.028,-0.072 0.03,-0.03 0.072,-0.03 h 0.296 v -0.296 q 0,-0.04 0.03,-0.07 0.03,-0.03 0.072,-0.03 0.04,0 0.07,0.03 0.03,0.03 0.03,0.07 v 0.296 h 0.296 q 0.042,0 0.072,0.03 0.03,0.03 0.03,0.072 0,0.042 -0.03,0.072 -0.03,0.028 -0.072,0.028 h -0.296 v 0.296 q 0,0.042 -0.03,0.072 -0.03,0.03 -0.07,0.03 -0.042,0 -0.072,-0.03 -0.03,-0.03 -0.03,-0.072 v -0.296 h -0.296 q -0.042,0 -0.072,-0.028 z m 1.615999,0.606 q 0,-0.032 0.02,-0.062 l 0.234,-0.298 q 0.044,-0.058 0.044,-0.126 v -0.384 q 0,-0.068 -0.044,-0.126 l -0.234,-0.298 q -0.02,-0.03 -0.02,-0.064 0,-0.04 0.028,-0.07 0.03,-0.03 0.072,-0.03 0.048,0 0.08,0.038 l 0.234,0.3 q 0.086,0.112 0.086,0.25 v 0.384 q 0,0.138 -0.086,0.25 l -0.234,0.3 q -0.032,0.038 -0.08,0.038 -0.042,0 -0.072,-0.03 -0.028,-0.03 -0.028,-0.072 z"
   id="text2"
   style="font-size:2px;line-height:1.15;font-family:OCRA;-inkscape-font-specification:OCRA;letter-spacing:0px;fill:#8c8c8c;fill-opacity:0.933333;stroke:#ffbf00;stroke-width:0;stroke-linecap:square;stroke-miterlimit:4.7;paint-order:stroke fill markers"
   aria-label="1 (+)" /><path
   d="m 6.7679979,13.224001 v -0.68 q 0,-0.082 0.06,-0.14 0.06,-0.06 0.142,-0.06 h 0.592 v -0.478 h -0.694 q -0.042,0 -0.072,-0.03 -0.028,-0.03 -0.028,-0.072 0,-0.04 0.028,-0.07 0.03,-0.03 0.072,-0.03 h 0.694 q 0.08,0 0.14,0.06 0.062,0.06 0.062,0.142 v 0.478 q 0,0.08 -0.06,0.14 -0.06,0.06 -0.142,0.06 h -0.592 v 0.478 h 0.692 q 0.042,0 0.072,0.03 0.03,0.03 0.03,0.07 0,0.042 -0.03,0.072 -0.03,0.03 -0.072,0.03 z m 3.1879983,-0.588 v -0.384 q 0,-0.138 0.086,-0.25 l 0.234,-0.3 q 0.032,-0.038 0.08,-0.038 0.042,0 0.07,0.03 0.03,0.03 0.03,0.07 0,0.034 -0.02,0.064 l -0.234,0.298 q -0.044,0.058 -0.044,0.126 v 0.384 q 0,0.068 0.044,0.126 l 0.234,0.298 q 0.02,0.03 0.02,0.062 0,0.042 -0.03,0.072 -0.028,0.03 -0.07,0.03 -0.048,0 -0.08,-0.038 l -0.234,-0.3 q -0.086,-0.112 -0.086,-0.25 z m 1.1499988,-0.108 v -0.084 q 0,-0.042 0.028,-0.072 0.03,-0.03 0.072,-0.03 h 0.794 q 0.042,0 0.072,0.03 0.03,0.03 0.03,0.072 v 0.084 q 0,0.042 -0.03,0.072 -0.03,0.03 -0.072,0.03 h -0.794 q -0.042,0 -0.072,-0.03 -0.028,-0.03 -0.028,-0.072 z m 1.643999,0.594 q 0,-0.032 0.02,-0.062 l 0.234,-0.298 q 0.044,-0.058 0.044,-0.126 v -0.384 q 0,-0.068 -0.044,-0.126 l -0.234,-0.298 q -0.02,-0.03 -0.02,-0.064 0,-0.04 0.028,-0.07 0.03,-0.03 0.072,-0.03 0.048,0 0.08,0.038 l 0.234,0.3 q 0.086,0.112 0.086,0.25 v 0.384 q 0,0.138 -0.086,0.25 l -0.234,0.3 q -0.032,0.038 -0.08,0.038 -0.042,0 -0.072,-0.03 -0.028,-0.03 -0.028,-0.072 z"
   id="text3"
   style="font-size:2px;line-height:1.15;font-family:OCRA;-inkscape-font-specification:OCRA;letter-spacing:0px;fill:#8c8c8c;fill-opacity:0.933333;stroke:#ffbf00;stroke-width:0;stroke-linecap:square;stroke-miterlimit:4.7;paint-order:stroke fill markers"
   aria-label="2 (-)" />
    <line
   fill="none"
   gorn="0.0.0"
   id="connector2pin"
   stroke="#787878"
   stroke-linecap="round"
   stroke-linejoin="round"
   stroke-width="0.699999"
   x1="0.34999901"
   x2="13.7"
   y1="18"
   y2="18" /><circle
   cx="17.299999"
   cy="18"
   fill="none"
   r="2.9000001"
   stroke="#787878"
   stroke-width="0.699999"
   id="circle3" /><line
   fill="none"
   gorn="0.0.3"
   id="connector3pin"
   stroke="#787878"
   stroke-linecap="round"
   stroke-linejoin="round"
   stroke-width="0.699999"
   x1="0.34999901"
   x2="13.7"
   y1="25.199999"
   y2="25.199999" /><circle
   cx="17.299999"
   cy="25.199999"
   fill="none"
   r="2.9000001"
   stroke="#787878"
   stroke-width="0.699999"
   id="circle4" /><path
   d="m 6.7679979,20.322 q 0,-0.04 0.028,-0.07 0.03,-0.03 0.072,-0.03 h 0.694 v -0.376 q 0,-0.04 -0.032,-0.07 -0.03,-0.032 -0.07,-0.032 h -0.394 q -0.042,0 -0.072,-0.028 -0.028,-0.03 -0.028,-0.072 0,-0.042 0.028,-0.072 0.03,-0.03 0.072,-0.03 h 0.394 q 0.042,0 0.072,-0.03 0.03,-0.03 0.03,-0.07 v -0.376 h -0.694 q -0.042,0 -0.072,-0.03 -0.028,-0.03 -0.028,-0.072 0,-0.04 0.028,-0.07 0.03,-0.03 0.072,-0.03 h 0.694 q 0.08,0 0.14,0.06 0.062,0.06 0.062,0.142 v 0.376 q 0,0.116 -0.08,0.202 0.08,0.086 0.08,0.202 v 0.376 q 0,0.082 -0.062,0.142 -0.06,0.06 -0.14,0.06 h -0.694 q -0.042,0 -0.072,-0.03 -0.028,-0.03 -0.028,-0.072 z m 3.1879983,-0.486 v -0.384 q 0,-0.138 0.086,-0.25 l 0.234,-0.3 q 0.032,-0.038 0.08,-0.038 0.042,0 0.07,0.03 0.03,0.03 0.03,0.07 0,0.034 -0.02,0.064 l -0.234,0.298 q -0.044,0.058 -0.044,0.126 v 0.384 q 0,0.068 0.044,0.126 l 0.234,0.298 q 0.02,0.03 0.02,0.062 0,0.042 -0.03,0.072 -0.028,0.03 -0.07,0.03 -0.048,0 -0.08,-0.038 l -0.234,-0.3 q -0.086,-0.112 -0.086,-0.25 z m 1.1779988,-0.12 q -0.028,-0.03 -0.028,-0.072 0,-0.042 0.028,-0.072 0.03,-0.03 0.072,-0.03 h 0.296 v -0.296 q 0,-0.04 0.03,-0.07 0.03,-0.03 0.072,-0.03 0.04,0 0.07,0.03 0.03,0.03 0.03,0.07 v 0.296 h 0.296 q 0.042,0 0.072,0.03 0.03,0.03 0.03,0.072 0,0.042 -0.03,0.072 -0.03,0.028 -0.072,0.028 h -0.296 v 0.296 q 0,0.042 -0.03,0.072 -0.03,0.03 -0.07,0.03 -0.042,0 -0.072,-0.03 -0.03,-0.03 -0.03,-0.072 v -0.296 h -0.296 q -0.042,0 -0.072,-0.028 z m 1.615999,0.606 q 0,-0.032 0.02,-0.062 l 0.234,-0.298 q 0.044,-0.058 0.044,-0.126 v -0.384 q 0,-0.068 -0.044,-0.126 l -0.234,-0.298 q -0.02,-0.03 -0.02,-0.064 0,-0.04 0.028,-0.07 0.03,-0.03 0.072,-0.03 0.048,0 0.08,0.038 l 0.234,0.3 q 0.086,0.112 0.086,0.25 v 0.384 q 0,0.138 -0.086,0.25 l -0.234,0.3 q -0.032,0.038 -0.08,0.038 -0.042,0 -0.072,-0.03 -0.028,-0.03 -0.028,-0.072 z"
   id="text4"
   style="font-size:2px;line-height:1.15;font-family:OCRA;-inkscape-font-specification:OCRA;letter-spacing:0px;fill:#8c8c8c;fill-opacity:0.933333;stroke:#ffbf00;stroke-width:0;stroke-linecap:square;stroke-miterlimit:4.7;paint-order:stroke fill markers"
   aria-label="3 (+)" /><path
   d="m 6.7680014,27.114001 v -0.95 q 0,-0.04 0.03,-0.07 0.03,-0.03 0.072,-0.03 0.042,0 0.07,0.03 0.03,0.03 0.03,0.07 v 0.748 h 0.394 v -0.578 q 0,-0.042 0.03,-0.07 0.03,-0.03 0.072,-0.03 0.04,0 0.07,0.03 0.03,0.028 0.03,0.07 v 0.578 q 0.042,0 0.07,0.03 0.03,0.03 0.03,0.072 0,0.042 -0.03,0.072 -0.028,0.028 -0.07,0.028 v 0.408 q 0,0.042 -0.03,0.072 -0.03,0.03 -0.07,0.03 -0.042,0 -0.072,-0.03 -0.03,-0.03 -0.03,-0.072 v -0.408 z m 3.1399983,-0.078 v -0.384 q 0,-0.138 0.086,-0.25 l 0.2340003,-0.3 q 0.032,-0.038 0.08,-0.038 0.042,0 0.07,0.03 0.03,0.03 0.03,0.07 0,0.034 -0.02,0.064 l -0.234,0.298 q -0.044,0.058 -0.044,0.126 v 0.384 q 0,0.068 0.044,0.126 l 0.234,0.298 q 0.02,0.03 0.02,0.062 0,0.042 -0.03,0.072 -0.028,0.03 -0.07,0.03 -0.048,0 -0.08,-0.038 l -0.2340003,-0.3 q -0.086,-0.112 -0.086,-0.25 z m 1.1499993,-0.108 v -0.084 q 0,-0.042 0.028,-0.072 0.03,-0.03 0.072,-0.03 h 0.794 q 0.042,0 0.072,0.03 0.03,0.03 0.03,0.072 v 0.084 q 0,0.042 -0.03,0.072 -0.03,0.03 -0.072,0.03 h -0.794 q -0.042,0 -0.072,-0.03 -0.028,-0.03 -0.028,-0.072 z m 1.643999,0.594 q 0,-0.032 0.02,-0.062 l 0.234,-0.298 q 0.044,-0.058 0.044,-0.126 v -0.384 q 0,-0.068 -0.044,-0.126 l -0.234,-0.298 q -0.02,-0.03 -0.02,-0.064 0,-0.04 0.028,-0.07 0.03,-0.03 0.072,-0.03 0.048,0 0.08,0.038 l 0.234,0.3 q 0.086,0.112 0.086,0.25 v 0.384 q 0,0.138 -0.086,0.25 l -0.234,0.3 q -0.032,0.038 -0.08,0.038 -0.042,0 -0.072,-0.03 -0.028,-0.03 -0.028,-0.072 z"
   id="text5"
   style="font-size:2px;line-height:1.15;font-family:OCRA;-inkscape-font-specification:OCRA;letter-spacing:0px;fill:#8c8c8c;fill-opacity:0.933333;stroke:#ffbf00;stroke-width:0;stroke-linecap:square;stroke-miterlimit:4.7;paint-order:stroke fill markers"
   aria-label="4 (-)" /><path
   d="m 0.22600006,7.7759204 q 0,-0.042 0.028,-0.072 0.03,-0.03 0.072,-0.03 0.042,0 0.072,0.03 0.03,0.03 0.03,0.072 0,0.028 0.02,0.048 0.02,0.02 0.048,0.02 h 0.498 q 0.026,0 0.026,-0.026 l -0.74800004,-0.964 q -0.046,-0.064 -0.046,-0.14 v -0.006 q 0,-0.09 0.066,-0.156 0.068,-0.066 0.16,-0.066 h 0.498 q 0.11000004,0 0.19000004,0.08 0.082,0.08 0.082,0.19 0,0.042 -0.03,0.072 -0.03,0.03 -0.072,0.03 -0.042,0 -0.072,-0.03 -0.028,-0.03 -0.028,-0.072 0,-0.026 -0.022,-0.046 -0.02,-0.022 -0.048,-0.022 h -0.498 q -0.024,0 -0.024,0.02 v 0.006 0.008 l 0.74400004,0.956 q 0.05,0.06 0.05,0.14 -0.004,0.094 -0.07,0.162 -0.064,0.066 -0.15800004,0.066 h -0.498 q -0.11,0 -0.19,-0.08 -0.08,-0.08 -0.08,-0.19 z m 1.44599914,-0.092 v -0.412 q 0,-0.07 0.032,-0.13 0.032,-0.06 0.058,-0.084 0.026,-0.024 0.088,-0.076 0.082,-0.072 0.194,-0.072 h 0.25 q 0.026,0 0.05,0.004 0.024,0.002 0.048,0.014 0.024,0.01 0.038,0.016 0.014,0.004 0.038,0.024 0.024,0.018 0.03,0.024 0.008,0.004 0.034,0.028 0.028,0.022 0.03,0.024 0.106,0.092 0.106,0.228 v 0.412 q 0,0.032 -0.004,0.06 -0.004,0.026 -0.018,0.052 -0.014,0.026 -0.022,0.042 -0.006,0.014 -0.032,0.04 -0.026,0.026 -0.032,0.032 -0.004,0.006 -0.038,0.036 l -0.034,0.028 q -0.082,0.072 -0.194,0.072 h -0.25 q -0.032,0 -0.062,-0.006 -0.028,-0.008 -0.048,-0.014 -0.02,-0.008 -0.048,-0.026 -0.026,-0.018 -0.038,-0.026 -0.01,-0.008 -0.038,-0.032 -0.026,-0.024 -0.034,-0.03 -0.104,-0.086 -0.104,-0.228 z m 0.202,0 q 0,0.024 0.012,0.046 0.012,0.022 0.024,0.034 0.014,0.012 0.038,0.032 0.024,0.018 0.032,0.024 0.03,0.024 0.064,0.024 h 0.25 q 0.028,0 0.05,-0.012 0.022,-0.012 0.052,-0.042 0.03,-0.03 0.034,-0.032 0.036,-0.028 0.036,-0.074 v -0.412 q 0,-0.052 -0.06,-0.106 -0.06,-0.054 -0.112,-0.054 h -0.25 q -0.028,0 -0.05,0.012 -0.022,0.012 -0.052,0.042 -0.03,0.03 -0.034,0.032 -0.034,0.028 -0.034,0.074 z m 1.3419991,0.26 q 0,-0.04 0.03,-0.07 0.03,-0.03 0.072,-0.03 h 0.196 v -1.156 h -0.196 q -0.042,0 -0.072,-0.03 -0.03,-0.03 -0.03,-0.072 0,-0.04 0.03,-0.07 0.03,-0.03 0.072,-0.03 h 0.298 q 0.04,0 0.07,0.03 0.03,0.03 0.03,0.07 v 1.258 h 0.196 q 0.042,0 0.072,0.03 0.03,0.03 0.03,0.07 0,0.042 -0.03,0.072 -0.03,0.03 -0.072,0.03 h -0.594 q -0.042,0 -0.072,-0.03 -0.03,-0.03 -0.03,-0.072 z m 1.3479992,-0.198 v -0.112 q 0,-0.124 0.088,-0.212 0.088,-0.088 0.21,-0.088 h 0.386 q 0.048,0 0.088,0.014 0,-0.014 -0.002,-0.046 0,-0.034 -0.002,-0.048 0,-0.016 -0.004,-0.044 -0.002,-0.028 -0.008,-0.04 -0.006,-0.014 -0.018,-0.03 -0.01,-0.016 -0.028,-0.022 -0.016,-0.006 -0.04,-0.006 h -0.372 q -0.042,0 -0.072,-0.028 -0.028,-0.03 -0.028,-0.072 0,-0.042 0.028,-0.072 0.03,-0.03 0.072,-0.03 h 0.372 q 0.122,0 0.208,0.086 0.088,0.084 0.092,0.204 l 0.026,0.746 q 0,0.042 -0.032,0.072 -0.03,0.028 -0.072,0.028 -0.04,0 -0.07,-0.03 -0.028,-0.03 -0.028,-0.07 l -0.148,0.086 q -0.02,0.014 -0.05,0.014 h -0.298 q -0.122,0 -0.21,-0.088 -0.088,-0.088 -0.088,-0.212 z m 0.202,0 q 0,0.04 0.028,0.07 0.028,0.028 0.068,0.028 h 0.27 l 0.214,-0.126 v -0.088 q 0,-0.036 -0.032,-0.064 -0.03,-0.03 -0.066,-0.03 h -0.386 q -0.038,0 -0.068,0.03 -0.028,0.028 -0.028,0.068 z m 1.2439991,0.198 v -0.932 q 0,-0.042 0.028,-0.072 0.03,-0.03 0.072,-0.03 0.042,0 0.072,0.03 0.03,0.03 0.03,0.072 v 0.118 l 0.238,-0.204 q 0.022,-0.016 0.058,-0.016 h 0.198 q 0.122,0 0.21,0.09 0.09,0.088 0.09,0.21 v 0.056 q 0,0.042 -0.03,0.072 -0.03,0.028 -0.072,0.028 -0.042,0 -0.072,-0.028 -0.028,-0.03 -0.028,-0.072 v -0.056 q 0,-0.04 -0.03,-0.068 -0.028,-0.03 -0.068,-0.03 h -0.162 l -0.332,0.286 v 0.546 q 0,0.042 -0.03,0.072 -0.03,0.03 -0.072,0.03 -0.042,0 -0.072,-0.03 -0.028,-0.03 -0.028,-0.072 z m 2.8919983,0.426 v -1.402 q 0,-0.04 0.028,-0.07 0.03,-0.03 0.072,-0.03 0.042,0 0.072,0.03 0.03,0.03 0.03,0.07 v 0.054 q 0.004,-0.004 0.022,-0.024 0.02,-0.02 0.026,-0.024 0.006,-0.006 0.024,-0.022 0.018,-0.018 0.028,-0.024 0.01,-0.006 0.028,-0.018 0.018,-0.014 0.032,-0.018 0.016,-0.006 0.034,-0.012 0.02,-0.008 0.04,-0.01 0.022,-0.002 0.044,-0.002 h 0.042 q 0.058,0 0.112,0.024 0.056,0.024 0.082,0.046 0.028,0.02 0.078,0.066 0.004,0.004 0.052,0.046 0.048,0.04 0.06,0.056 0.012,0.014 0.04,0.052 0.03,0.038 0.04,0.076 0.01,0.038 0.01,0.084 v 0.322 q 0,0.136 -0.106,0.228 l -0.172,0.148 q -0.082,0.072 -0.196,0.072 h -0.042 q -0.062,0 -0.118,-0.024 -0.054,-0.024 -0.086,-0.052 -0.032,-0.028 -0.074,-0.074 v 0.432 q 0,0.042 -0.03,0.07 -0.03,0.03 -0.072,0.03 -0.042,0 -0.072,-0.03 -0.028,-0.028 -0.028,-0.07 z m 0.202,-0.762 q 0,0.024 0.01,0.046 0.01,0.02 0.02,0.032 0.01,0.01 0.03,0.028 0.022,0.018 0.028,0.024 0.014,0.014 0.038,0.04 0.024,0.024 0.044,0.044 0.02,0.02 0.038,0.036 0.028,0.028 0.07,0.028 h 0.042 q 0.04,0 0.064,-0.024 l 0.174,-0.148 q 0.034,-0.026 0.034,-0.074 v -0.322 q 0,-0.048 -0.034,-0.074 l -0.174,-0.15 q -0.024,-0.024 -0.064,-0.024 h -0.042 q -0.042,0 -0.07,0.028 l -0.18,0.182 q -0.028,0.022 -0.028,0.068 z m 1.2439991,0.138 v -0.112 q 0,-0.124 0.088,-0.212 0.088,-0.088 0.21,-0.088 h 0.386 q 0.048,0 0.088,0.014 0,-0.014 -0.002,-0.046 0,-0.034 -0.002,-0.048 0,-0.016 -0.004,-0.044 -0.002,-0.028 -0.008,-0.04 -0.006,-0.014 -0.018,-0.03 -0.01,-0.016 -0.028,-0.022 -0.016,-0.006 -0.04,-0.006 h -0.372 q -0.042,0 -0.072,-0.028 -0.028,-0.03 -0.028,-0.072 0,-0.042 0.028,-0.072 0.03,-0.03 0.072,-0.03 h 0.372 q 0.122,0 0.208,0.086 0.088,0.084 0.092,0.204 l 0.026,0.746 q 0,0.042 -0.032,0.072 -0.03,0.028 -0.072,0.028 -0.04,0 -0.07,-0.03 -0.028,-0.03 -0.028,-0.07 l -0.148,0.086 q -0.02,0.014 -0.05,0.014 h -0.298 q -0.122,0 -0.21,-0.088 -0.088,-0.088 -0.088,-0.212 z m 0.202,0 q 0,0.04 0.028,0.07 0.028,0.028 0.068,0.028 h 0.27 l 0.214,-0.126 v -0.088 q 0,-0.036 -0.032,-0.064 -0.03,-0.03 -0.066,-0.03 h -0.386 q -0.038,0 -0.068,0.03 -0.028,0.028 -0.028,0.068 z m 1.243999,0.198 v -0.932 q 0,-0.042 0.028,-0.072 0.03,-0.03 0.072,-0.03 0.042,0 0.072,0.03 0.03,0.03 0.03,0.072 v 0.068 l 0.192,-0.122 q 0.076,-0.048 0.162,-0.048 h 0.114 q 0.122,0 0.208,0.086 0.088,0.084 0.092,0.204 l 0.024,0.744 q 0,0.042 -0.03,0.072 -0.028,0.03 -0.07,0.03 -0.04,0 -0.07,-0.028 -0.03,-0.03 -0.03,-0.07 l -0.026,-0.742 q -0.004,-0.038 -0.032,-0.066 -0.026,-0.028 -0.066,-0.028 h -0.142 l -0.326,0.21 v 0.622 q 0,0.042 -0.03,0.072 -0.03,0.03 -0.072,0.03 -0.042,0 -0.072,-0.03 -0.028,-0.03 -0.028,-0.072 z m 1.445999,-0.26 v -0.412 q 0,-0.07 0.032,-0.13 0.032,-0.06 0.058,-0.084 0.026,-0.024 0.088,-0.076 0.082,-0.072 0.194,-0.072 h 0.25 q 0.02,0 0.038,0.002 0.02,0.002 0.04,0.008 0.02,0.006 0.032,0.01 0.012,0.004 0.032,0.016 0.02,0.012 0.026,0.016 0.008,0.004 0.028,0.022 0.02,0.016 0.024,0.018 0.004,0.002 0.026,0.022 l 0.022,0.02 q 0.106,0.092 0.106,0.228 v 0.248 q 0,0.042 -0.03,0.072 -0.03,0.03 -0.072,0.03 h -0.692 v 0.062 q 0,0.024 0.012,0.046 0.012,0.022 0.024,0.034 0.014,0.012 0.038,0.032 0.024,0.018 0.032,0.024 0.03,0.024 0.064,0.024 h 0.522 q 0.042,0 0.072,0.03 0.03,0.03 0.03,0.07 0,0.042 -0.03,0.072 -0.03,0.03 -0.072,0.03 h -0.522 q -0.022,0 -0.042,-0.002 -0.018,-0.002 -0.038,-0.008 -0.018,-0.006 -0.032,-0.01 -0.014,-0.006 -0.032,-0.016 -0.016,-0.01 -0.026,-0.016 -0.01,-0.006 -0.028,-0.02 -0.016,-0.014 -0.022,-0.018 -0.006,-0.006 -0.026,-0.022 -0.018,-0.018 -0.022,-0.022 -0.104,-0.086 -0.104,-0.228 z m 0.202,-0.264 h 0.592 v -0.148 q 0,-0.052 -0.06,-0.106 -0.06,-0.054 -0.112,-0.054 h -0.25 q -0.028,0 -0.05,0.012 -0.022,0.012 -0.052,0.042 -0.03,0.03 -0.034,0.032 -0.034,0.028 -0.034,0.074 z m 1.342,0.524 q 0,-0.04 0.03,-0.07 0.03,-0.03 0.072,-0.03 h 0.196 v -1.156 h -0.196 q -0.042,0 -0.072,-0.03 -0.03,-0.03 -0.03,-0.072 0,-0.04 0.03,-0.07 0.03,-0.03 0.072,-0.03 h 0.298 q 0.04,0 0.07,0.03 0.03,0.03 0.03,0.07 v 1.258 h 0.196 q 0.042,0 0.072,0.03 0.03,0.03 0.03,0.07 0,0.042 -0.03,0.072 -0.03,0.03 -0.072,0.03 h -0.594 q -0.042,0 -0.072,-0.03 -0.03,-0.03 -0.03,-0.072 z"
   id="text1"
   style="font-size:2px;line-height:1.15;font-family:OCRA;-inkscape-font-specification:OCRA;letter-spacing:0px;fill:#8c8c8c;fill-opacity:0.933333;stroke:#ffbf00;stroke-width:0;stroke-linecap:square;stroke-miterlimit:4.7;paint-order:stroke fill markers"
   aria-label="Solar panel" /><path
   d="m 0.26997469,22.886344 0.406,-1.386 q 0.01,-0.032 0.036,-0.052 0.026,-0.02 0.06,-0.02 0.034,0 0.062,0.02 0.028,0.02 0.036,0.052 l 0.40400001,1.386 q 0,0.042 -0.032,0.072 -0.03,0.03 -0.072,0.03 -0.034,0 -0.06,-0.02 -0.026,-0.02 -0.036,-0.052 l -0.078,-0.268 h -0.446 l -0.078,0.268 q -0.01,0.032 -0.038,0.052 -0.026,0.02 -0.06,0.02 -0.042,0 -0.074,-0.03 -0.03,-0.03 -0.03,-0.072 z m 0.34,-0.44 h 0.326 l -0.164,-0.556 z m 1.11199911,0.094 v -0.24 q 0,-0.138 0.104,-0.228 0.022,-0.018 0.072,-0.066 0.052,-0.05 0.084,-0.076 0.034,-0.028 0.092,-0.052 0.058,-0.026 0.12,-0.026 h 0.422 q 0.042,0 0.072,0.03 0.03,0.03 0.03,0.072 0,0.042 -0.03,0.072 -0.03,0.028 -0.072,0.028 h -0.422 q -0.04,0 -0.064,0.024 l -0.172,0.148 q -0.034,0.022 -0.034,0.074 v 0.24 q 0,0.046 0.034,0.076 l 0.172,0.146 q 0.024,0.024 0.064,0.024 h 0.422 q 0.042,0 0.072,0.03 0.03,0.03 0.03,0.07 0,0.042 -0.03,0.072 -0.03,0.03 -0.072,0.03 h -0.422 q -0.114,0 -0.196,-0.072 l -0.172,-0.148 q -0.104,-0.09 -0.104,-0.228 z m 1.4459992,0 v -0.24 q 0,-0.138 0.104,-0.228 0.022,-0.018 0.072,-0.066 0.052,-0.05 0.084,-0.076 0.034,-0.028 0.092,-0.052 0.058,-0.026 0.12,-0.026 h 0.422 q 0.042,0 0.072,0.03 0.03,0.03 0.03,0.072 0,0.042 -0.03,0.072 -0.03,0.028 -0.072,0.028 h -0.422 q -0.04,0 -0.064,0.024 l -0.172,0.148 q -0.034,0.022 -0.034,0.074 v 0.24 q 0,0.046 0.034,0.076 l 0.172,0.146 q 0.024,0.024 0.064,0.024 h 0.422 q 0.042,0 0.072,0.03 0.03,0.03 0.03,0.07 0,0.042 -0.03,0.072 -0.03,0.03 -0.072,0.03 h -0.422 q -0.114,0 -0.196,-0.072 l -0.172,-0.148 q -0.104,-0.09 -0.104,-0.228 z m 1.4459991,-0.586 q 0,-0.042 0.028,-0.072 0.03,-0.03 0.072,-0.03 0.04,0 0.07,0.03 0.03,0.028 0.03,0.068 l 0.026,0.742 q 0.004,0.04 0.03,0.068 0.028,0.026 0.068,0.026 h 0.142 l 0.328,-0.208 v -0.624 q 0,-0.042 0.028,-0.072 0.03,-0.03 0.072,-0.03 0.042,0 0.072,0.03 0.03,0.03 0.03,0.072 v 0.932 q 0,0.042 -0.03,0.072 -0.03,0.03 -0.072,0.03 -0.042,0 -0.072,-0.03 -0.028,-0.03 -0.028,-0.072 v -0.07 l -0.194,0.124 q -0.076,0.048 -0.162,0.048 h -0.114 q -0.12,0 -0.208,-0.084 -0.088,-0.086 -0.092,-0.204 z m 1.4299992,0.932 v -0.932 q 0,-0.042 0.028,-0.072 0.03,-0.03 0.072,-0.03 0.032,0 0.058,0.02 0.028,0.02 0.038,0.05 0.082,-0.07 0.172,-0.07 0.122,0 0.194,0.096 l 0.044,-0.036 q 0.066,-0.054 0.15,-0.054 0.094,0 0.166,0.066 0.072,0.066 0.074,0.16 l 0.03,0.802 q 0,0.042 -0.03,0.072 -0.028,0.03 -0.07,0.03 -0.04,0 -0.07,-0.028 -0.03,-0.03 -0.032,-0.07 l -0.028,-0.798 q -0.004,-0.038 -0.034,-0.038 h -0.012 l -0.136,0.116 v 0.716 q 0,0.042 -0.03,0.072 -0.03,0.03 -0.07,0.03 -0.042,0 -0.072,-0.03 -0.03,-0.03 -0.03,-0.072 v -0.788 q 0,-0.044 -0.044,-0.044 h -0.016 l -0.15,0.13 v 0.702 q 0,0.042 -0.03,0.072 -0.03,0.03 -0.072,0.03 -0.042,0 -0.072,-0.03 -0.028,-0.03 -0.028,-0.072 z m 1.4619991,-0.932 q 0,-0.042 0.028,-0.072 0.03,-0.03 0.072,-0.03 0.04,0 0.07,0.03 0.03,0.028 0.03,0.068 l 0.026,0.742 q 0.004,0.04 0.03,0.068 0.028,0.026 0.068,0.026 h 0.142 l 0.328,-0.208 v -0.624 q 0,-0.042 0.028,-0.072 0.03,-0.03 0.072,-0.03 0.042,0 0.072,0.03 0.03,0.03 0.03,0.072 v 0.932 q 0,0.042 -0.03,0.072 -0.03,0.03 -0.072,0.03 -0.042,0 -0.072,-0.03 -0.028,-0.03 -0.028,-0.072 v -0.07 l -0.194,0.124 q -0.076,0.048 -0.162,0.048 h -0.114 q -0.12,0 -0.208,-0.084 -0.088,-0.086 -0.092,-0.204 z m 1.5439992,0.932 q 0,-0.04 0.03,-0.07 0.03,-0.03 0.072,-0.03 h 0.196 v -1.156 h -0.196 q -0.042,0 -0.072,-0.03 -0.03,-0.03 -0.03,-0.072 0,-0.04 0.03,-0.07 0.03,-0.03 0.072,-0.03 h 0.298 q 0.04,0 0.07,0.03 0.03,0.03 0.03,0.07 v 1.258 h 0.196 q 0.042,0 0.072,0.03 0.03,0.03 0.03,0.07 0,0.042 -0.03,0.072 -0.03,0.03 -0.072,0.03 h -0.594 q -0.042,0 -0.072,-0.03 -0.03,-0.03 -0.03,-0.072 z m 1.3479994,-0.198 v -0.112 q 0,-0.124 0.088,-0.212 0.088,-0.088 0.21,-0.088 h 0.386 q 0.048,0 0.088,0.014 0,-0.014 -0.002,-0.046 0,-0.034 -0.002,-0.048 0,-0.016 -0.004,-0.044 -0.002,-0.028 -0.008,-0.04 -0.006,-0.014 -0.018,-0.03 -0.01,-0.016 -0.028,-0.022 -0.016,-0.006 -0.04,-0.006 h -0.372 q -0.042,0 -0.072,-0.028 -0.028,-0.03 -0.028,-0.072 0,-0.042 0.028,-0.072 0.03,-0.03 0.072,-0.03 h 0.372 q 0.122,0 0.208,0.086 0.088,0.084 0.092,0.204 l 0.026,0.746 q 0,0.042 -0.032,0.072 -0.03,0.028 -0.072,0.028 -0.04,0 -0.07,-0.03 -0.028,-0.03 -0.028,-0.07 l -0.148,0.086 q -0.02,0.014 -0.05,0.014 h -0.298 q -0.122,0 -0.21,-0.088 -0.088,-0.088 -0.088,-0.212 z m 0.202,0 q 0,0.04 0.028,0.07 0.028,0.028 0.068,0.028 h 0.27 l 0.214,-0.126 v -0.088 q 0,-0.036 -0.032,-0.064 -0.03,-0.03 -0.066,-0.03 h -0.386 q -0.038,0 -0.068,0.03 -0.028,0.028 -0.028,0.068 z m 1.271999,-0.662 q -0.028,-0.03 -0.028,-0.072 0,-0.042 0.028,-0.072 0.03,-0.03 0.072,-0.03 h 0.098 v -0.238 q 0,-0.042 0.028,-0.072 0.03,-0.03 0.072,-0.03 0.042,0 0.072,0.03 0.03,0.03 0.03,0.072 v 0.238 h 0.394 q 0.042,0 0.07,0.03 0.03,0.03 0.03,0.072 0,0.042 -0.03,0.072 -0.028,0.028 -0.07,0.028 h -0.394 v 0.634 q 0,0.04 0.028,0.07 0.028,0.028 0.068,0.028 h 0.2 q 0.04,0 0.064,-0.026 0.026,-0.028 0.034,-0.058 0.01,-0.032 0.034,-0.058 0.026,-0.028 0.066,-0.028 0.042,0 0.072,0.03 0.03,0.03 0.03,0.072 v 0.016 q -0.02,0.104 -0.106,0.18 -0.084,0.074 -0.194,0.074 h -0.2 q -0.122,0 -0.21,-0.088 -0.088,-0.09 -0.088,-0.212 v -0.634 h -0.098 q -0.042,0 -0.072,-0.028 z m 1.417999,0.6 v -0.412 q 0,-0.07 0.032,-0.13 0.032,-0.06 0.058,-0.084 0.026,-0.024 0.088,-0.076 0.082,-0.072 0.194,-0.072 h 0.25 q 0.026,0 0.05,0.004 0.024,0.002 0.048,0.014 0.024,0.01 0.038,0.016 0.014,0.004 0.038,0.024 0.024,0.018 0.03,0.024 0.008,0.004 0.034,0.028 0.028,0.022 0.03,0.024 0.106,0.092 0.106,0.228 v 0.412 q 0,0.032 -0.004,0.06 -0.004,0.026 -0.018,0.052 -0.014,0.026 -0.022,0.042 -0.006,0.014 -0.032,0.04 -0.026,0.026 -0.032,0.032 -0.004,0.006 -0.038,0.036 l -0.034,0.028 q -0.082,0.072 -0.194,0.072 h -0.25 q -0.032,0 -0.062,-0.006 -0.028,-0.008 -0.048,-0.014 -0.02,-0.008 -0.048,-0.026 -0.026,-0.018 -0.038,-0.026 -0.01,-0.008 -0.038,-0.032 -0.026,-0.024 -0.034,-0.03 -0.104,-0.086 -0.104,-0.228 z m 0.202,0 q 0,0.024 0.012,0.046 0.012,0.022 0.024,0.034 0.014,0.012 0.038,0.032 0.024,0.018 0.032,0.024 0.03,0.024 0.064,0.024 h 0.25 q 0.028,0 0.05,-0.012 0.022,-0.012 0.052,-0.042 0.03,-0.03 0.034,-0.032 0.036,-0.028 0.036,-0.074 v -0.412 q 0,-0.052 -0.06,-0.106 -0.06,-0.054 -0.112,-0.054 h -0.25 q -0.028,0 -0.05,0.012 -0.022,0.012 -0.052,0.042 -0.03,0.03 -0.034,0.032 -0.034,0.028 -0.034,0.074 z m 1.243999,0.26 v -0.932 q 0,-0.042 0.028,-0.072 0.03,-0.03 0.072,-0.03 0.042,0 0.072,0.03 0.03,0.03 0.03,0.072 v 0.118 l 0.238,-0.204 q 0.022,-0.016 0.058,-0.016 h 0.198 q 0.122,0 0.21,0.09 0.09,0.088 0.09,0.21 v 0.056 q 0,0.042 -0.03,0.072 -0.03,0.028 -0.072,0.028 -0.042,0 -0.072,-0.028 -0.028,-0.03 -0.028,-0.072 v -0.056 q 0,-0.04 -0.03,-0.068 -0.028,-0.03 -0.068,-0.03 h -0.162 l -0.332,0.286 v 0.546 q 0,0.042 -0.03,0.072 -0.03,0.03 -0.072,0.03 -0.042,0 -0.072,-0.03 -0.028,-0.03 -0.028,-0.072 z"
   id="text6"
   style="font-size:2px;line-height:1.15;font-family:OCRA;-inkscape-font-specification:OCRA;letter-spacing:0px;fill:#8c8c8c;fill-opacity:0.933333;stroke:#ffbf00;stroke-width:0;stroke-linecap:square;stroke-miterlimit:4.7;paint-order:stroke fill markers"
   aria-label="Accumulator" /><rect
   gorn="0.0.1"
   height="0.69999897"
   id="connector2terminal"
   width="1"
   x="0"
   y="17.65"
   style="display:inline" /><rect
   gorn="0.0.4"
   height="0.69999897"
   id="connector3terminal"
   width="1"
   x="0"
   y="24.849998" /></g>
</svg>
