<?xml version="1.0" encoding="UTF-8" standalone="no"?>
<svg
   id="svg2"
   y="0in"
   version="1.2"
   height="0.51226932in"
   width="0.58629924in"
   x="0in"
   viewBox="0 0 586.29921 512.26928"
   xml:space="preserve"
   xmlns="http://www.w3.org/2000/svg"
   xmlns:svg="http://www.w3.org/2000/svg"
   xmlns:rdf="http://www.w3.org/1999/02/22-rdf-syntax-ns#"
   xmlns:cc="http://creativecommons.org/ns#"
   xmlns:dc="http://purl.org/dc/elements/1.1/">
  <metadata
   id="metadata24">
    <rdf:RDF>
      <cc:Work
   rdf:about="">
        <dc:format>image/svg+xml</dc:format>
        <dc:type
   rdf:resource="http://purl.org/dc/dcmitype/StillImage" />
      </cc:Work>
    </rdf:RDF>
  </metadata>
  <defs
   id="defs22" />
  <desc
   id="desc4">
    <referenceFile>XT30PW-M_1_breadboard.svg</referenceFile>
  </desc>
  <g
   id="breadboard">
    <rect
   id="rect2"
   width="236.22044"
   height="354.33069"
   x="0"
   y="86.614174"
   fill="#f5e400"
   fill-opacity="1"
   stroke="#ffcc00"
   stroke-width="0" />
    <line
   y1="163.12703"
   y2="163.12703"
   x2="545.04718"
   x1="464.46704"
   id="line24"
   stroke-linejoin="round"
   stroke-linecap="round"
   stroke-width="80"
   stroke="#d4aa00"
   fill="#d4aa00" />
    <line
   y1="163.12703"
   y2="163.12703"
   x2="545.04718"
   x1="464.46704"
   id="line1"
   stroke-linejoin="round"
   stroke-linecap="round"
   stroke-width="80"
   stroke="#ffcc00"
   fill="none" />
    <line
   y1="356.02359"
   y2="356.02359"
   x2="545.04462"
   x1="464.45926"
   id="line2"
   stroke-linejoin="round"
   stroke-linecap="round"
   stroke-width="80"
   stroke="#ffcc00"
   fill="#d4aa00" />
    <path
   id="upper"
   d="m 314.96062,31.496061 c 0.65157,-20.00392 19.45819,-31.18009869 39.37007,-31.496061 20.40181,0.09235477 39.65215,15.890832 39.37008,31.496061 v 82.677159 h 78.74015 v 299.21257 h -78.74015 v 78.74016 c -8.26022,14.66691 -20.8415,22.13205 -39.37008,19.68503 -26.76067,1.83052 -34.59309,-7.98713 -39.37007,-19.68503 v -35.43307 h -78.74016 c 0,0 -1.60049,-392.550835 -2.59842,-389.763751 h 81.33858 z"
   fill="#ffff00"
   stroke-width="0" />
    <rect
   id="rect3"
   width="236.22044"
   height="19.685038"
   x="0"
   y="86.614166"
   fill="#e1d100"
   fill-opacity="0.82"
   stroke="none"
   stroke-width="0" />
    <rect
   id="rect4"
   width="236.22044"
   height="39.370075"
   x="0"
   y="244.09447"
   fill="#e1d100"
   fill-opacity="0.82"
   stroke="none"
   stroke-width="0" />
    <rect
   id="rect5"
   width="236.22044"
   height="19.685038"
   x="0"
   y="421.2598"
   fill="#e1d100"
   fill-opacity="0.82"
   stroke="none"
   stroke-width="0" />
    <circle
   id="path5"
   cx="353.46454"
   cy="46.368374"
   r="15"
   fill="#ffffff"
   fill-opacity="0.82"
   stroke="none"
   stroke-width="7" />
    <circle
   id="circle5"
   cx="353.46454"
   cy="475.51178"
   r="15"
   fill="#ffffff"
   fill-opacity="0.82"
   stroke="none"
   stroke-width="7" />
    <circle
   id="connector0pin"
   cx="40"
   cy="163.11023"
   r="40"
   fill="#ffcc00"
   fill-opacity="0.82"
   stroke="none"
   stroke-width="7" />
    <circle
   id="connector1pin"
   cx="40"
   cy="356.02359"
   r="40"
   fill="#ffcc00"
   fill-opacity="0.82"
   stroke="none"
   stroke-width="7" />
    <circle
   id="connector3pin"
   cx="546.29919"
   cy="356.02359"
   r="40"
   fill="#ffcc00"
   fill-opacity="0.82"
   stroke="none"
   stroke-width="7" />
    <circle
   id="connector2pin"
   cx="546.29919"
   cy="163.11023"
   r="40"
   fill="#ffcc00"
   fill-opacity="0.82"
   stroke="none"
   stroke-width="7" />
  </g>
<g
   id="text1"
   style="font-size:27.7778px;font-family:OCRA;-inkscape-font-specification:OCRA;letter-spacing:0px;stroke:#ffbf00;stroke-width:0;stroke-linecap:square;stroke-miterlimit:4.7;paint-order:stroke fill markers"
   aria-label="XT30&#10;Right angle"><path
     d="m 253.93084,211.03366 q 0,-0.36111 0.16666,-0.69444 l 5.11112,-8.72223 -5.11112,-8.72223 q -0.16666,-0.33333 -0.16666,-0.72222 0,-0.55556 0.38889,-0.97222 0.41666,-0.41667 1,-0.41667 0.80555,0 1.22222,0.69444 l 4.30556,7.33334 4.27778,-7.33334 q 0.41667,-0.69444 1.22222,-0.69444 0.58334,0 1,0.41667 0.41667,0.41666 0.41667,0.97222 0,0.33333 -0.19444,0.72222 l -5.11112,8.72223 5.11112,8.72223 q 0.19444,0.38889 0.19444,0.69444 0,0.58334 -0.41667,1.00001 -0.41666,0.41666 -1,0.41666 -0.80555,0 -1.22222,-0.69444 l -4.27778,-7.33334 -4.30556,7.33334 q -0.41667,0.69444 -1.22222,0.69444 -0.58334,0 -1,-0.41666 -0.38889,-0.41667 -0.38889,-1.00001 z m 20.08334,-16.50001 v -3.75 h 13.83334 v 3.75 q 0,0.58334 -0.41667,1 -0.41666,0.41667 -1,0.41667 -0.58333,0 -1,-0.41667 -0.38889,-0.41666 -0.38889,-1 v -0.94444 h -2.72222 v 17.44445 q 0,0.58334 -0.41667,1.00001 -0.41667,0.41666 -0.97222,0.41666 -0.58334,0 -1,-0.41666 -0.41667,-0.41667 -0.41667,-1.00001 v -17.44445 h -2.69445 v 0.94444 q 0,0.58334 -0.41666,1 -0.41667,0.41667 -1,0.41667 -0.58334,0 -1.00001,-0.41667 -0.38888,-0.41666 -0.38888,-1 z m 20.08333,16.50001 q 0,-0.55555 0.38889,-0.97222 0.41667,-0.41667 1,-0.41667 h 9.6389 v -5.22222 q 0,-0.55556 -0.44445,-0.97222 -0.41666,-0.44445 -0.97222,-0.44445 h -5.47222 q -0.58334,0 -1.00001,-0.38889 -0.38888,-0.41667 -0.38888,-1 0,-0.58333 0.38888,-1 0.41667,-0.41667 1.00001,-0.41667 h 5.47222 q 0.58334,0 1,-0.41666 0.41667,-0.41667 0.41667,-0.97223 v -5.22222 h -9.6389 q -0.58333,0 -1,-0.41667 -0.38889,-0.41667 -0.38889,-1 0,-0.55556 0.38889,-0.97222 0.41667,-0.41667 1,-0.41667 h 9.6389 q 1.11111,0 1.94445,0.83333 0.86111,0.83334 0.86111,1.97223 v 5.22222 q 0,1.61112 -1.11111,2.80556 1.11111,1.19445 1.11111,2.80556 v 5.22222 q 0,1.13889 -0.86111,1.97223 -0.83334,0.83333 -1.94445,0.83333 h -9.6389 q -0.58333,0 -1,-0.41666 -0.38889,-0.41667 -0.38889,-1.00001 z m 20.08334,-1.38889 v -16.05556 q 0,-1.13889 0.83334,-1.97223 0.83333,-0.83333 1.97222,-0.83333 h 8.22223 q 1.11111,0 1.94445,0.83333 0.86111,0.83334 0.86111,1.97223 v 16.05556 q 0,1.13889 -0.86111,1.97223 -0.83334,0.83333 -1.94445,0.83333 h -8.22223 q -1.13889,0 -1.97222,-0.83333 -0.83334,-0.83334 -0.83334,-1.97223 z m 2.80556,0 h 8.22223 v -16.05556 h -8.22223 z"
     id="path1" /><path
     d="M 253.93084,245.75591 V 225.5059 h 9.61112 q 1.72222,0 2.97222,1.25 1.25,1.25 1.25,2.97222 v 1.44445 q 0,1.72222 -1.27778,2.97222 -1.25,1.25001 -2.94444,1.25001 h -1.61112 l 5.6389,9.66667 q 0.19444,0.38889 0.19444,0.69444 0,0.58334 -0.41667,1.00001 -0.41666,0.41666 -1,0.41666 -0.80555,0 -1.22222,-0.69444 l -6.47223,-11.08334 h -1.91666 v 10.36111 q 0,0.58334 -0.41667,1.00001 -0.41667,0.41666 -1,0.41666 -0.58334,0 -1,-0.41666 -0.38889,-0.41667 -0.38889,-1.00001 z m 2.80556,-13.16667 h 6.80556 q 0.55555,0 0.97222,-0.41667 0.44444,-0.44444 0.44444,-1 v -1.44445 q 0,-0.58333 -0.44444,-1 -0.41667,-0.41666 -0.97222,-0.41666 h -6.80556 z m 18.63889,13.16667 q 0,-0.55555 0.41666,-0.97222 0.41667,-0.41667 1.00001,-0.41667 h 2.75 v -10.16667 h -2.75 q -0.58334,0 -1.00001,-0.38889 -0.41666,-0.41667 -0.41666,-1 0,-0.58333 0.41666,-1 0.41667,-0.41667 1.00001,-0.41667 h 4.13889 q 0.55555,0 0.97222,0.41667 0.41667,0.41667 0.41667,1 v 11.55556 h 2.72222 q 0.58334,0 1,0.41667 0.41667,0.41667 0.41667,0.97222 0,0.58334 -0.41667,1.00001 -0.41666,0.41666 -1,0.41666 h -8.25 q -0.58334,0 -1.00001,-0.41666 -0.41666,-0.41667 -0.41666,-1.00001 z m 2.75,-18.86112 v -1.16667 q 0,-0.58333 0.41667,-0.97222 0.41666,-0.41667 1,-0.41667 h 1.38889 q 0.55555,0 0.97222,0.41667 0.41667,0.38889 0.41667,0.97222 v 1.16667 q 0,0.58333 -0.41667,1 -0.41667,0.41667 -0.97222,0.41667 h -1.38889 q -0.58334,0 -1,-0.41667 -0.41667,-0.41667 -0.41667,-1 z m 15.97222,14.05557 v -4.52779 q 0,-0.30555 0.0278,-0.61111 0.0556,-0.30555 0.0833,-0.52778 0.0556,-0.22222 0.19445,-0.5 0.16667,-0.27777 0.22222,-0.41666 0.0556,-0.13889 0.27778,-0.38889 0.22222,-0.27778 0.27778,-0.36111 0.0555,-0.0833 0.33333,-0.33334 0.30556,-0.25 0.33333,-0.27778 0.0556,-0.0556 0.36112,-0.30555 0.33333,-0.27778 0.36111,-0.30556 1.13889,-1 2.69444,-1 h 2.08334 q 0.44444,0 0.86111,0.11111 0.41667,0.0833 0.66667,0.19445 0.27778,0.0833 0.69444,0.36111 0.41667,0.27778 0.52778,0.36111 0.11111,0.0833 0.52778,0.47222 0.44444,0.38889 0.5,0.41667 v -0.5 q 0,-0.58333 0.38889,-1 0.41667,-0.41667 1,-0.41667 0.58333,0 1,0.41667 0.41667,0.41667 0.41667,1 v 15.22223 q 0,0.44445 -0.0556,0.80556 -0.0555,0.38889 -0.25,0.75 -0.19444,0.36111 -0.30555,0.55556 -0.0833,0.22222 -0.44445,0.58333 -0.36111,0.36111 -0.44444,0.44445 -0.0556,0.0833 -0.52778,0.5 l -0.47222,0.38888 q -1.13889,1.00001 -2.69445,1.00001 h -5.86112 q -0.58333,0 -1,-0.41667 -0.41666,-0.38889 -0.41666,-0.97222 0,-0.58334 0.41666,-1.00001 0.41667,-0.41666 1,-0.41666 h 5.86112 q 0.38889,0 0.69444,-0.19445 0.33334,-0.19444 0.72223,-0.55555 0.38889,-0.36111 0.47222,-0.44445 0.5,-0.38889 0.5,-1.02778 v -3.91667 q -0.63889,0.58334 -1.05556,0.91667 -0.41666,0.33334 -1.16666,0.66667 -0.75,0.30555 -1.55556,0.30555 h -2.08334 q -0.41666,0 -0.86111,-0.0833 -0.41666,-0.11111 -0.66666,-0.19444 -0.25001,-0.0833 -0.66667,-0.36111 -0.41667,-0.30556 -0.52778,-0.36112 -0.0833,-0.0833 -0.52778,-0.5 l -0.47222,-0.38889 q -1.44445,-1.25 -1.44445,-3.16666 z m 2.77778,0 q 0,0.75 0.80556,1.5 0.83333,0.75 1.58333,0.75 h 2.08334 q 0.55556,0 0.88889,-0.33334 l 2.38889,-2.05555 q 0.5,-0.38889 0.5,-1.02778 v -2.16667 q 0,-0.58333 -0.5,-1.02778 l -2.38889,-2.05556 q -0.33333,-0.33333 -0.88889,-0.33333 h -2.08334 q -0.41666,0 -0.75,0.19444 -0.30555,0.19445 -0.63889,0.52778 -0.33333,0.33334 -0.5,0.44445 -0.5,0.5 -0.5,1.05555 z m 17.30556,4.80555 v -18.86112 q 0,-0.55556 0.38889,-0.97222 0.41667,-0.41667 1,-0.41667 0.58334,0 1,0.41667 0.41667,0.41666 0.41667,0.97222 v 6.86111 l 2.66667,-1.69444 q 1.05556,-0.66667 2.25,-0.66667 h 1.58334 q 1.69444,0 2.88889,1.19445 1.22222,1.16666 1.27778,2.83333 l 0.33333,10.33334 q 0,0.58334 -0.41667,1.00001 -0.38889,0.41666 -0.97222,0.41666 -0.55556,0 -0.97222,-0.38889 -0.41667,-0.41666 -0.41667,-0.97222 l -0.36111,-10.30556 q -0.0556,-0.52778 -0.44445,-0.91667 -0.36111,-0.38889 -0.91666,-0.38889 h -1.97223 l -4.52778,2.91667 v 8.63889 q 0,0.58334 -0.41667,1.00001 -0.41666,0.41666 -1,0.41666 -0.58333,0 -1,-0.41666 -0.38889,-0.41667 -0.38889,-1.00001 z m 20.47223,-11.94445 q -0.38889,-0.41667 -0.38889,-1 0,-0.58333 0.38889,-1 0.41667,-0.41667 1,-0.41667 h 1.36111 v -3.30556 q 0,-0.58333 0.38889,-1 0.41667,-0.41666 1,-0.41666 0.58333,0 1,0.41666 0.41667,0.41667 0.41667,1 v 3.30556 h 5.47223 q 0.58333,0 0.97222,0.41667 0.41667,0.41667 0.41667,1 0,0.58333 -0.41667,1 -0.38889,0.38889 -0.97222,0.38889 h -5.47223 v 8.80556 q 0,0.55556 0.38889,0.97223 0.38889,0.38888 0.94444,0.38888 h 2.77778 q 0.55556,0 0.88889,-0.36111 0.36111,-0.38889 0.47223,-0.80555 0.13888,-0.44445 0.47222,-0.80556 0.36111,-0.38889 0.91667,-0.38889 0.58333,0 1,0.41667 0.41666,0.41667 0.41666,1 v 0.22222 q -0.27777,1.44445 -1.47222,2.5 -1.16667,1.02778 -2.69445,1.02778 h -2.77778 q -1.69444,0 -2.91667,-1.22222 -1.22222,-1.25 -1.22222,-2.94445 v -8.80556 h -1.36111 q -0.58333,0 -1,-0.38889 z m 39.77779,9.19445 v -1.55555 q 0,-1.72223 1.22222,-2.94445 1.22222,-1.22222 2.91667,-1.22222 h 5.36112 q 0.66666,0 1.22222,0.19444 0,-0.19444 -0.0278,-0.63889 0,-0.47222 -0.0278,-0.66667 0,-0.22222 -0.0555,-0.61111 -0.0278,-0.38889 -0.11111,-0.55555 -0.0833,-0.19445 -0.25,-0.41667 -0.13889,-0.22222 -0.38889,-0.30556 -0.22223,-0.0833 -0.55556,-0.0833 h -5.16667 q -0.58333,0 -1,-0.38889 -0.38889,-0.41667 -0.38889,-1 0,-0.58333 0.38889,-1 0.41667,-0.41667 1,-0.41667 h 5.16667 q 1.69445,0 2.88889,1.19445 1.22223,1.16666 1.27778,2.83333 l 0.36111,10.36112 q 0,0.58334 -0.44444,1 -0.41667,0.38889 -1,0.38889 -0.55556,0 -0.97223,-0.41666 -0.38889,-0.41667 -0.38889,-0.97223 l -2.05555,1.19445 q -0.27778,0.19444 -0.69445,0.19444 h -4.13889 q -1.69445,0 -2.91667,-1.22222 -1.22222,-1.22222 -1.22222,-2.94445 z m 2.80556,0 q 0,0.55556 0.38889,0.97223 0.38888,0.38888 0.94444,0.38888 h 3.75 l 2.97223,-1.75 v -1.22222 q 0,-0.5 -0.44445,-0.88889 -0.41666,-0.41667 -0.91666,-0.41667 h -5.36112 q -0.52778,0 -0.94444,0.41667 -0.38889,0.38889 -0.38889,0.94445 z m 17.27777,2.75 v -12.94445 q 0,-0.58333 0.38889,-1 0.41666,-0.41667 1,-0.41667 0.58333,0 1,0.41667 0.41666,0.41667 0.41666,1 v 0.94444 l 2.66667,-1.69444 q 1.05556,-0.66667 2.25,-0.66667 h 1.58334 q 1.69445,0 2.88889,1.19445 1.22222,1.16666 1.27778,2.83333 l 0.33333,10.33334 q 0,0.58334 -0.41666,1.00001 -0.38889,0.41666 -0.97223,0.41666 -0.55555,0 -0.97222,-0.38889 -0.41667,-0.41666 -0.41667,-0.97222 l -0.36111,-10.30556 q -0.0556,-0.52778 -0.44444,-0.91667 -0.36111,-0.38889 -0.91667,-0.38889 h -1.97222 l -4.52779,2.91667 v 8.63889 q 0,0.58334 -0.41666,1.00001 -0.41667,0.41666 -1,0.41666 -0.58334,0 -1,-0.41666 -0.38889,-0.41667 -0.38889,-1.00001 z m 20.08334,-4.80555 v -4.52779 q 0,-0.30555 0.0278,-0.61111 0.0556,-0.30555 0.0833,-0.52778 0.0556,-0.22222 0.19445,-0.5 0.16666,-0.27777 0.22222,-0.41666 0.0556,-0.13889 0.27778,-0.38889 0.22222,-0.27778 0.27777,-0.36111 0.0556,-0.0833 0.33334,-0.33334 0.30555,-0.25 0.33333,-0.27778 0.0556,-0.0556 0.36111,-0.30555 0.33334,-0.27778 0.36111,-0.30556 1.13889,-1 2.69445,-1 h 2.08334 q 0.44444,0 0.86111,0.11111 0.41666,0.0833 0.66666,0.19445 0.27778,0.0833 0.69445,0.36111 0.41667,0.27778 0.52778,0.36111 0.11111,0.0833 0.52778,0.47222 0.44444,0.38889 0.5,0.41667 v -0.5 q 0,-0.58333 0.38889,-1 0.41666,-0.41667 1,-0.41667 0.58333,0 1,0.41667 0.41666,0.41667 0.41666,1 v 15.22223 q 0,0.44445 -0.0555,0.80556 -0.0556,0.38889 -0.25,0.75 -0.19445,0.36111 -0.30556,0.55556 -0.0833,0.22222 -0.44444,0.58333 -0.36111,0.36111 -0.44445,0.44445 -0.0555,0.0833 -0.52778,0.5 l -0.47222,0.38888 q -1.13889,1.00001 -2.69444,1.00001 h -5.86112 q -0.58333,0 -1,-0.41667 -0.41667,-0.38889 -0.41667,-0.97222 0,-0.58334 0.41667,-1.00001 0.41667,-0.41666 1,-0.41666 h 5.86112 q 0.38888,0 0.69444,-0.19445 0.33333,-0.19444 0.72222,-0.55555 0.38889,-0.36111 0.47223,-0.44445 0.5,-0.38889 0.5,-1.02778 v -3.91667 q -0.63889,0.58334 -1.05556,0.91667 -0.41667,0.33334 -1.16667,0.66667 -0.75,0.30555 -1.55555,0.30555 h -2.08334 q -0.41667,0 -0.86111,-0.0833 -0.41667,-0.11111 -0.66667,-0.19444 -0.25,-0.0833 -0.66667,-0.36111 -0.41666,-0.30556 -0.52777,-0.36112 -0.0833,-0.0833 -0.52778,-0.5 l -0.47222,-0.38889 q -1.44445,-1.25 -1.44445,-3.16666 z m 2.77778,0 q 0,0.75 0.80556,1.5 0.83333,0.75 1.58333,0.75 h 2.08334 q 0.55555,0 0.88889,-0.33334 l 2.38889,-2.05555 q 0.5,-0.38889 0.5,-1.02778 v -2.16667 q 0,-0.58333 -0.5,-1.02778 l -2.38889,-2.05556 q -0.33334,-0.33333 -0.88889,-0.33333 h -2.08334 q -0.41667,0 -0.75,0.19444 -0.30556,0.19445 -0.63889,0.52778 -0.33333,0.33334 -0.5,0.44445 -0.5,0.5 -0.5,1.05555 z m 18.66668,4.80555 q 0,-0.55555 0.41666,-0.97222 0.41667,-0.41667 1,-0.41667 h 2.72223 v -16.05556 h -2.72223 q -0.58333,0 -1,-0.41667 -0.41666,-0.41667 -0.41666,-1 0,-0.55556 0.41666,-0.97222 0.41667,-0.41667 1,-0.41667 h 4.1389 q 0.55555,0 0.97222,0.41667 0.41667,0.41666 0.41667,0.97222 v 17.47223 h 2.72222 q 0.58333,0 1,0.41667 0.41667,0.41667 0.41667,0.97222 0,0.58334 -0.41667,1.00001 -0.41667,0.41666 -1,0.41666 h -8.25001 q -0.58333,0 -1,-0.41666 -0.41666,-0.41667 -0.41666,-1.00001 z m 18.72221,-3.61111 v -5.72223 q 0,-0.97222 0.44445,-1.80555 0.44444,-0.83334 0.80555,-1.16667 0.36111,-0.33333 1.22223,-1.05556 1.13889,-1 2.69444,-1 h 3.47223 q 0.27778,0 0.52778,0.0278 0.27777,0.0278 0.55555,0.11111 0.27778,0.0833 0.44445,0.13889 0.16666,0.0556 0.44444,0.22222 0.27778,0.16667 0.36111,0.22222 0.11111,0.0556 0.38889,0.30556 0.27778,0.22222 0.33334,0.25 0.0556,0.0278 0.36111,0.30556 l 0.30555,0.27777 q 1.47223,1.27778 1.47223,3.16667 v 3.44445 q 0,0.58333 -0.41667,1 -0.41667,0.41667 -1,0.41667 h -9.61112 v 0.86111 q 0,0.33333 0.16667,0.63889 0.16666,0.30556 0.33333,0.47222 0.19444,0.16667 0.52778,0.44445 0.33333,0.25 0.44444,0.33333 0.41667,0.33333 0.88889,0.33333 h 7.25001 q 0.58333,0 1,0.41667 0.41667,0.41667 0.41667,0.97222 0,0.58334 -0.41667,1.00001 -0.41667,0.41666 -1,0.41666 h -7.25001 q -0.30555,0 -0.58333,-0.0278 -0.25,-0.0278 -0.52778,-0.11111 -0.25,-0.0833 -0.44444,-0.13889 -0.19445,-0.0833 -0.44445,-0.22222 -0.22222,-0.13889 -0.36111,-0.22222 -0.13889,-0.0833 -0.38889,-0.27778 -0.22222,-0.19444 -0.30556,-0.25 -0.0833,-0.0833 -0.36111,-0.30555 -0.25,-0.25 -0.30555,-0.30556 -1.44445,-1.19445 -1.44445,-3.16667 z m 2.80556,-3.66667 h 8.22223 v -2.05556 q 0,-0.72222 -0.83334,-1.47222 -0.83333,-0.75 -1.55555,-0.75 h -3.47223 q -0.38889,0 -0.69444,0.16667 -0.30556,0.16666 -0.72223,0.58333 -0.41666,0.41667 -0.47222,0.44445 -0.47222,0.38888 -0.47222,1.02777 z"
     id="path2" /></g><path
   style="font-size:55.5555px;line-height:1.15;font-family:OCRA;-inkscape-font-specification:OCRA;letter-spacing:0px;fill:#8c8c8c;fill-opacity:0.933333;stroke:#ffbf00;stroke-width:0;stroke-linecap:square;stroke-miterlimit:4.7;paint-order:stroke fill markers"
   d="m 122.72442,165.16664 v -2.33333 q 0,-1.16667 0.77778,-2 0.83333,-0.83333 1.99999,-0.83333 h 22.05554 q 1.16666,0 2,0.83333 0.83333,0.83333 0.83333,2 v 2.33333 q 0,1.16667 -0.83333,2 -0.83334,0.83333 -2,0.83333 h -22.05554 q -1.16666,0 -1.99999,-0.83333 -0.77778,-0.83333 -0.77778,-2 z"
   id="text3"
   aria-label="-" /><path
   d="m 125.28001,355.83329 q -0.77778,-0.83333 -0.77778,-2 0,-1.16666 0.77778,-1.99999 0.83333,-0.83334 1.99999,-0.83334 h 8.22222 v -8.22221 q 0,-1.11111 0.83333,-1.94444 0.83333,-0.83334 2,-0.83334 1.11111,0 1.94444,0.83334 0.83333,0.83333 0.83333,1.94444 v 8.22221 h 8.22222 q 1.16666,0 1.99999,0.83334 0.83334,0.83333 0.83334,1.99999 0,1.16667 -0.83334,2 -0.83333,0.77778 -1.99999,0.77778 h -8.22222 v 8.22221 q 0,1.16667 -0.83333,2 -0.83333,0.83333 -1.94444,0.83333 -1.16667,0 -2,-0.83333 -0.83333,-0.83333 -0.83333,-2 v -8.22221 H 127.28 q -1.16666,0 -1.99999,-0.77778 z"
   id="text4"
   style="font-size:55.5555px;line-height:1.15;font-family:OCRA;-inkscape-font-specification:OCRA;letter-spacing:0px;fill:#8c8c8c;fill-opacity:0.933333;stroke:#ffbf00;stroke-width:0;stroke-linecap:square;stroke-miterlimit:4.7;paint-order:stroke fill markers"
   aria-label="+" /></svg>
