<?xml version="1.0" encoding="UTF-8" standalone="no"?>
<svg
   shape-rendering="crispEdges"
   viewBox="0 0 603.54824 522.23302"
   x="0in"
   width="0.60354823in"
   height="0.52223301in"
   version="1.2"
   y="0in"
   id="svg2"
   xmlns="http://www.w3.org/2000/svg"
   xmlns:svg="http://www.w3.org/2000/svg"
   xmlns:rdf="http://www.w3.org/1999/02/22-rdf-syntax-ns#"
   xmlns:cc="http://creativecommons.org/ns#"
   xmlns:dc="http://purl.org/dc/elements/1.1/">
  <metadata
     id="metadata27">
    <rdf:RDF>
      <cc:Work
         rdf:about="">
        <dc:format>image/svg+xml</dc:format>
        <dc:type
           rdf:resource="http://purl.org/dc/dcmitype/StillImage" />
      </cc:Work>
    </rdf:RDF>
  </metadata>
  <defs
     id="defs25" />
  <desc
     id="desc4">
    <referenceFile>XT30PW-M_1_pcb.svg</referenceFile>
  </desc>
  <g
     id="silkscreen">
    <rect
       id="rect2"
       width="233.70094"
       height="346.45676"
       x="4.9999199"
       y="88.464485"
       fill="none"
       stroke="#000000"
       stroke-width="9.99984" />
    <path
       id="upper"
       d="m 319.96054,36.49624 c 0.65157,-20.003921 19.45819,-31.1801005 39.37007,-31.4960605 20.40181,0.0923 39.65215,15.8908295 39.37008,31.4960605 v 82.67716 h 78.74015 v 299.21257 h -78.74015 v 78.74016 c -8.26022,14.66691 -20.8415,22.13205 -39.37008,19.68503 -26.76067,1.83052 -34.59309,-7.98713 -39.37007,-19.68503 v -35.43307 l -80.96062,0.30694 c 0,0 -0.41928,-388.700766 -0.37796,-390.070692 h 81.33858 z"
       fill="none"
       stroke="#000000"
       stroke-width="10" />
    <g
       id="text1"
       style="font-size:27.7778px;font-family:OCRA;-inkscape-font-specification:OCRA;letter-spacing:0px;stroke:#ffbf00;stroke-width:0;stroke-linecap:square;stroke-miterlimit:4.7;paint-order:stroke fill markers"
       aria-label="XT30&#10;Right angle">
      <path
         d="m 252.29436,242.71926 q 0,-0.36111 0.16667,-0.69445 l 5.11112,-8.72223 -5.11112,-8.72223 q -0.16667,-0.33333 -0.16667,-0.72222 0,-0.55555 0.38889,-0.97222 0.41667,-0.41667 1,-0.41667 0.80556,0 1.22223,0.69445 l 4.30556,7.33334 4.27778,-7.33334 q 0.41666,-0.69445 1.22222,-0.69445 0.58333,0 1,0.41667 0.41667,0.41667 0.41667,0.97222 0,0.33334 -0.19445,0.72222 l -5.11111,8.72223 5.11111,8.72223 q 0.19445,0.38889 0.19445,0.69445 0,0.58333 -0.41667,1 -0.41667,0.41667 -1,0.41667 -0.80556,0 -1.22222,-0.69445 l -4.27778,-7.33334 -4.30556,7.33334 q -0.41667,0.69445 -1.22223,0.69445 -0.58333,0 -1,-0.41667 -0.38889,-0.41667 -0.38889,-1 z m 20.08334,-16.50002 v -3.75 h 13.83335 v 3.75 q 0,0.58334 -0.41667,1.00001 -0.41667,0.41666 -1,0.41666 -0.58334,0 -1,-0.41666 -0.38889,-0.41667 -0.38889,-1.00001 v -0.94444 h -2.72223 v 17.44446 q 0,0.58333 -0.41666,1 -0.41667,0.41667 -0.97223,0.41667 -0.58333,0 -1,-0.41667 -0.41666,-0.41667 -0.41666,-1 V 225.2748 h -2.69445 v 0.94444 q 0,0.58334 -0.41667,1.00001 -0.41667,0.41666 -1,0.41666 -0.58333,0 -1,-0.41666 -0.38889,-0.41667 -0.38889,-1.00001 z m 20.08334,16.50002 q 0,-0.55556 0.38889,-0.97223 0.41666,-0.41666 1,-0.41666 h 9.6389 v -5.22223 q 0,-0.55555 -0.44445,-0.97222 -0.41667,-0.44445 -0.97222,-0.44445 h -5.47223 q -0.58333,0 -1,-0.38889 -0.38889,-0.41666 -0.38889,-1 0,-0.58333 0.38889,-1 0.41667,-0.41666 1,-0.41666 h 5.47223 q 0.58333,0 1,-0.41667 0.41667,-0.41667 0.41667,-0.97222 v -5.22223 h -9.6389 q -0.58334,0 -1,-0.41667 -0.38889,-0.41666 -0.38889,-1 0,-0.55555 0.38889,-0.97222 0.41666,-0.41667 1,-0.41667 h 9.6389 q 1.11111,0 1.94444,0.83334 0.86111,0.83333 0.86111,1.97222 v 5.22223 q 0,1.61111 -1.11111,2.80555 1.11111,1.19445 1.11111,2.80556 v 5.22223 q 0,1.13889 -0.86111,1.97222 -0.83333,0.83334 -1.94444,0.83334 h -9.6389 q -0.58334,0 -1,-0.41667 -0.38889,-0.41667 -0.38889,-1 z m 20.08334,-1.38889 V 225.2748 q 0,-1.13889 0.83333,-1.97222 0.83334,-0.83334 1.97223,-0.83334 h 8.22222 q 1.11112,0 1.94445,0.83334 0.86111,0.83333 0.86111,1.97222 v 16.05557 q 0,1.13889 -0.86111,1.97222 -0.83333,0.83334 -1.94445,0.83334 h -8.22222 q -1.13889,0 -1.97223,-0.83334 -0.83333,-0.83333 -0.83333,-1.97222 z m 2.80556,0 h 8.22222 V 225.2748 h -8.22222 z"
         id="path1" />
      <path
         d="m 252.29436,277.44151 v -20.25002 h 9.61112 q 1.72223,0 2.97223,1.25 1.25,1.25 1.25,2.97223 v 1.44444 q 0,1.72223 -1.27778,2.97223 -1.25,1.25 -2.94445,1.25 h -1.61111 l 5.63889,9.66667 q 0.19445,0.38889 0.19445,0.69445 0,0.58333 -0.41667,1 -0.41667,0.41666 -1,0.41666 -0.80556,0 -1.22222,-0.69444 l -6.47223,-11.08334 h -1.91667 v 10.36112 q 0,0.58333 -0.41667,1 -0.41666,0.41666 -1,0.41666 -0.58333,0 -1,-0.41666 -0.38889,-0.41667 -0.38889,-1 z m 2.80556,-13.16668 h 6.80556 q 0.55556,0 0.97222,-0.41667 0.44445,-0.44444 0.44445,-1 v -1.44444 q 0,-0.58334 -0.44445,-1 -0.41666,-0.41667 -0.97222,-0.41667 h -6.80556 z m 18.63889,13.16668 q 0,-0.55556 0.41667,-0.97223 0.41667,-0.41666 1,-0.41666 h 2.75 v -10.16668 h -2.75 q -0.58333,0 -1,-0.38889 -0.41667,-0.41666 -0.41667,-1 0,-0.58333 0.41667,-1 0.41667,-0.41667 1,-0.41667 h 4.13889 q 0.55556,0 0.97223,0.41667 0.41666,0.41667 0.41666,1 v 11.55557 h 2.72223 q 0.58333,0 1,0.41666 0.41667,0.41667 0.41667,0.97223 0,0.58333 -0.41667,1 -0.41667,0.41666 -1,0.41666 h -8.25001 q -0.58333,0 -1,-0.41666 -0.41667,-0.41667 -0.41667,-1 z m 2.75001,-18.86113 v -1.16667 q 0,-0.58333 0.41666,-0.97222 0.41667,-0.41667 1,-0.41667 h 1.38889 q 0.55556,0 0.97223,0.41667 0.41666,0.38889 0.41666,0.97222 v 1.16667 q 0,0.58333 -0.41666,1 -0.41667,0.41667 -0.97223,0.41667 h -1.38889 q -0.58333,0 -1,-0.41667 -0.41666,-0.41667 -0.41666,-1 z m 15.97222,14.05557 v -4.52778 q 0,-0.30556 0.0278,-0.61112 0.0556,-0.30555 0.0833,-0.52777 0.0556,-0.22223 0.19444,-0.5 0.16667,-0.27778 0.22223,-0.41667 0.0556,-0.13889 0.27777,-0.38889 0.22223,-0.27778 0.27778,-0.36111 0.0556,-0.0833 0.33334,-0.33334 0.30555,-0.25 0.33333,-0.27777 0.0556,-0.0556 0.36111,-0.30556 0.33334,-0.27778 0.36111,-0.30555 1.13889,-1.00001 2.69445,-1.00001 h 2.08333 q 0.44445,0 0.86112,0.11112 0.41666,0.0833 0.66666,0.19444 0.27778,0.0833 0.69445,0.36111 0.41667,0.27778 0.52778,0.36111 0.11111,0.0833 0.52777,0.47223 0.44445,0.38888 0.50001,0.41666 v -0.5 q 0,-0.58333 0.38888,-1 0.41667,-0.41667 1.00001,-0.41667 0.58333,0 1,0.41667 0.41666,0.41667 0.41666,1 v 15.22224 q 0,0.44444 -0.0555,0.80555 -0.0556,0.38889 -0.25,0.75 -0.19445,0.36111 -0.30556,0.55556 -0.0833,0.22222 -0.44444,0.58333 -0.36111,0.36111 -0.44445,0.44445 -0.0555,0.0833 -0.52778,0.5 l -0.47222,0.38889 q -1.13889,1 -2.69445,1 h -5.86111 q -0.58334,0 -1,-0.41667 -0.41667,-0.38889 -0.41667,-0.97222 0,-0.58334 0.41667,-1 0.41666,-0.41667 1,-0.41667 h 5.86111 q 0.38889,0 0.69445,-0.19444 0.33333,-0.19445 0.72222,-0.55556 0.38889,-0.36111 0.47222,-0.44444 0.50001,-0.38889 0.50001,-1.02778 v -3.91667 q -0.63889,0.58333 -1.05556,0.91666 -0.41667,0.33334 -1.16667,0.66667 -0.75,0.30556 -1.55556,0.30556 h -2.08333 q -0.41667,0 -0.86111,-0.0833 -0.41667,-0.11111 -0.66667,-0.19444 -0.25,-0.0833 -0.66667,-0.36111 -0.41666,-0.30556 -0.52777,-0.36111 -0.0833,-0.0833 -0.52778,-0.5 l -0.47223,-0.38889 q -1.44444,-1.25 -1.44444,-3.16667 z m 2.77778,0 q 0,0.75 0.80555,1.5 0.83334,0.75 1.58334,0.75 h 2.08333 q 0.55556,0 0.88889,-0.33333 l 2.38889,-2.05556 q 0.50001,-0.38889 0.50001,-1.02778 v -2.16667 q 0,-0.58333 -0.50001,-1.02778 l -2.38889,-2.05555 q -0.33333,-0.33334 -0.88889,-0.33334 h -2.08333 q -0.41667,0 -0.75,0.19445 -0.30556,0.19444 -0.63889,0.52778 -0.33333,0.33333 -0.5,0.44444 -0.5,0.5 -0.5,1.05556 z m 17.30556,4.80556 v -18.86113 q 0,-0.55555 0.38889,-0.97222 0.41666,-0.41667 1,-0.41667 0.58333,0 1,0.41667 0.41667,0.41667 0.41667,0.97222 v 6.86112 l 2.66666,-1.69445 q 1.05556,-0.66667 2.25001,-0.66667 h 1.58333 q 1.69445,0 2.88889,1.19445 1.22223,1.16667 1.27778,2.83334 l 0.33333,10.33334 q 0,0.58333 -0.41666,1 -0.38889,0.41666 -0.97223,0.41666 -0.55555,0 -0.97222,-0.38888 -0.41667,-0.41667 -0.41667,-0.97223 l -0.36111,-10.30556 q -0.0555,-0.52778 -0.44444,-0.91667 -0.36111,-0.38889 -0.91667,-0.38889 h -1.97222 l -4.52778,2.91667 v 8.6389 q 0,0.58333 -0.41667,1 -0.41667,0.41666 -1,0.41666 -0.58334,0 -1,-0.41666 -0.38889,-0.41667 -0.38889,-1 z m 20.47222,-11.94446 q -0.38889,-0.41666 -0.38889,-1 0,-0.58333 0.38889,-1 0.41667,-0.41667 1,-0.41667 h 1.36112 v -3.30555 q 0,-0.58334 0.38889,-1 0.41666,-0.41667 1,-0.41667 0.58333,0 1,0.41667 0.41666,0.41666 0.41666,1 v 3.30555 h 5.47223 q 0.58333,0 0.97222,0.41667 0.41667,0.41667 0.41667,1 0,0.58334 -0.41667,1 -0.38889,0.38889 -0.97222,0.38889 h -5.47223 v 8.80556 q 0,0.55556 0.38889,0.97223 0.38889,0.38889 0.94445,0.38889 h 2.77778 q 0.55555,0 0.88889,-0.36111 0.36111,-0.38889 0.47222,-0.80556 0.13889,-0.44445 0.47222,-0.80556 0.36111,-0.38889 0.91667,-0.38889 0.58333,0 1,0.41667 0.41667,0.41667 0.41667,1 v 0.22222 q -0.27778,1.44445 -1.47222,2.50001 -1.16667,1.02777 -2.69445,1.02777 h -2.77778 q -1.69445,0 -2.91667,-1.22222 -1.22222,-1.25 -1.22222,-2.94445 v -8.80556 h -1.36112 q -0.58333,0 -1,-0.38889 z m 39.77779,9.19445 v -1.55555 q 0,-1.72223 1.22223,-2.94445 1.22222,-1.22222 2.91667,-1.22222 h 5.36111 q 0.66667,0 1.22222,0.19444 0,-0.19444 -0.0278,-0.63889 0,-0.47222 -0.0278,-0.66666 0,-0.22223 -0.0556,-0.61112 -0.0278,-0.38888 -0.11111,-0.55555 -0.0833,-0.19445 -0.25,-0.41667 -0.13889,-0.22222 -0.38889,-0.30555 -0.22222,-0.0833 -0.55555,-0.0833 h -5.16667 q -0.58334,0 -1,-0.38889 -0.38889,-0.41666 -0.38889,-1 0,-0.58333 0.38889,-1 0.41666,-0.41667 1,-0.41667 h 5.16667 q 1.69444,0 2.88889,1.19445 1.22222,1.16667 1.27778,2.83334 l 0.36111,10.36111 q 0,0.58334 -0.44445,1.00001 -0.41666,0.38888 -1,0.38888 -0.55555,0 -0.97222,-0.41666 -0.38889,-0.41667 -0.38889,-0.97223 l -2.05556,1.19445 q -0.27778,0.19444 -0.69444,0.19444 h -4.13889 q -1.69445,0 -2.91667,-1.22222 -1.22223,-1.22222 -1.22223,-2.94445 z m 2.80556,0 q 0,0.55556 0.38889,0.97223 0.38889,0.38889 0.94445,0.38889 h 3.75 l 2.97222,-1.75 v -1.22223 q 0,-0.5 -0.44444,-0.88889 -0.41667,-0.41666 -0.91667,-0.41666 h -5.36111 q -0.52778,0 -0.94445,0.41666 -0.38889,0.38889 -0.38889,0.94445 z m 17.27777,2.75001 v -12.94446 q 0,-0.58333 0.38889,-1 0.41667,-0.41667 1,-0.41667 0.58334,0 1,0.41667 0.41667,0.41667 0.41667,1 v 0.94445 l 2.66667,-1.69445 q 1.05555,-0.66667 2.25,-0.66667 h 1.58333 q 1.69445,0 2.8889,1.19445 1.22222,1.16667 1.27777,2.83334 l 0.33334,10.33334 q 0,0.58333 -0.41667,1 -0.38889,0.41666 -0.97222,0.41666 -0.55556,0 -0.97222,-0.38888 -0.41667,-0.41667 -0.41667,-0.97223 L 403.5444,267.1915 q -0.0556,-0.52778 -0.44445,-0.91667 -0.36111,-0.38889 -0.91667,-0.38889 h -1.97222 l -4.52778,2.91667 v 8.6389 q 0,0.58333 -0.41667,1 -0.41666,0.41666 -1,0.41666 -0.58333,0 -1,-0.41666 -0.38889,-0.41667 -0.38889,-1 z m 20.08335,-4.80556 v -4.52778 q 0,-0.30556 0.0278,-0.61112 0.0556,-0.30555 0.0833,-0.52777 0.0555,-0.22223 0.19444,-0.5 0.16667,-0.27778 0.22222,-0.41667 0.0556,-0.13889 0.27778,-0.38889 0.22222,-0.27778 0.27778,-0.36111 0.0556,-0.0833 0.33333,-0.33334 0.30556,-0.25 0.33334,-0.27777 0.0555,-0.0556 0.36111,-0.30556 0.33333,-0.27778 0.36111,-0.30555 1.13889,-1.00001 2.69445,-1.00001 h 2.08333 q 0.44445,0 0.86111,0.11112 0.41667,0.0833 0.66667,0.19444 0.27778,0.0833 0.69445,0.36111 0.41666,0.27778 0.52777,0.36111 0.11111,0.0833 0.52778,0.47223 0.44445,0.38888 0.5,0.41666 v -0.5 q 0,-0.58333 0.38889,-1 0.41667,-0.41667 1,-0.41667 0.58334,0 1,0.41667 0.41667,0.41667 0.41667,1 v 15.22224 q 0,0.44444 -0.0556,0.80555 -0.0556,0.38889 -0.25,0.75 -0.19444,0.36111 -0.30555,0.55556 -0.0833,0.22222 -0.44445,0.58333 -0.36111,0.36111 -0.44444,0.44445 -0.0556,0.0833 -0.52778,0.5 l -0.47222,0.38889 q -1.13889,1 -2.69445,1 h -5.86111 q -0.58334,0 -1.00001,-0.41667 -0.41666,-0.38889 -0.41666,-0.97222 0,-0.58334 0.41666,-1 0.41667,-0.41667 1.00001,-0.41667 h 5.86111 q 0.38889,0 0.69445,-0.19444 0.33333,-0.19445 0.72222,-0.55556 0.38889,-0.36111 0.47222,-0.44444 0.5,-0.38889 0.5,-1.02778 v -3.91667 q -0.63889,0.58333 -1.05555,0.91666 -0.41667,0.33334 -1.16667,0.66667 -0.75,0.30556 -1.55556,0.30556 h -2.08333 q -0.41667,0 -0.86112,-0.0833 -0.41666,-0.11111 -0.66666,-0.19444 -0.25,-0.0833 -0.66667,-0.36111 -0.41667,-0.30556 -0.52778,-0.36111 -0.0833,-0.0833 -0.52778,-0.5 l -0.47222,-0.38889 q -1.44444,-1.25 -1.44444,-3.16667 z m 2.77778,0 q 0,0.75 0.80555,1.5 0.83334,0.75 1.58334,0.75 h 2.08333 q 0.55556,0 0.88889,-0.33333 l 2.38889,-2.05556 q 0.5,-0.38889 0.5,-1.02778 v -2.16667 q 0,-0.58333 -0.5,-1.02778 l -2.38889,-2.05555 q -0.33333,-0.33334 -0.88889,-0.33334 h -2.08333 q -0.41667,0 -0.75,0.19445 -0.30556,0.19444 -0.63889,0.52778 -0.33334,0.33333 -0.5,0.44444 -0.5,0.5 -0.5,1.05556 z m 18.66667,4.80556 q 0,-0.55556 0.41667,-0.97223 0.41667,-0.41666 1,-0.41666 h 2.72222 v -16.05557 h -2.72222 q -0.58333,0 -1,-0.41667 -0.41667,-0.41667 -0.41667,-1 0,-0.55555 0.41667,-0.97222 0.41667,-0.41667 1,-0.41667 h 4.13889 q 0.55556,0 0.97222,0.41667 0.41667,0.41667 0.41667,0.97222 v 17.47224 h 2.72223 q 0.58333,0 1,0.41666 0.41666,0.41667 0.41666,0.97223 0,0.58333 -0.41666,1 -0.41667,0.41666 -1,0.41666 h -8.25001 q -0.58333,0 -1,-0.41666 -0.41667,-0.41667 -0.41667,-1 z m 18.72222,-3.61112 v -5.72222 q 0,-0.97223 0.44444,-1.80556 0.44445,-0.83333 0.80556,-1.16667 0.36111,-0.33333 1.22222,-1.05555 1.13889,-1.00001 2.69445,-1.00001 h 3.47222 q 0.27778,0 0.52778,0.0278 0.27778,0.0278 0.55556,0.11111 0.27778,0.0833 0.44444,0.13889 0.16667,0.0556 0.44445,0.22223 0.27777,0.16666 0.36111,0.22222 0.11111,0.0555 0.38889,0.30555 0.27778,0.22223 0.33333,0.25 0.0556,0.0278 0.36111,0.30556 l 0.30556,0.27778 q 1.47222,1.27778 1.47222,3.16667 v 3.44444 q 0,0.58334 -0.41667,1 -0.41666,0.41667 -1,0.41667 h -9.61112 v 0.86111 q 0,0.33334 0.16667,0.63889 0.16667,0.30556 0.33334,0.47223 0.19444,0.16666 0.52777,0.44444 0.33334,0.25 0.44445,0.33333 0.41667,0.33334 0.88889,0.33334 h 7.25 q 0.58334,0 1,0.41666 0.41667,0.41667 0.41667,0.97223 0,0.58333 -0.41667,1 -0.41666,0.41666 -1,0.41666 h -7.25 q -0.30556,0 -0.58334,-0.0278 -0.25,-0.0278 -0.52777,-0.11111 -0.25,-0.0833 -0.44445,-0.13889 -0.19444,-0.0833 -0.44444,-0.22223 -0.22223,-0.13888 -0.36112,-0.22222 -0.13888,-0.0833 -0.38888,-0.27778 -0.22223,-0.19444 -0.30556,-0.25 -0.0833,-0.0833 -0.36111,-0.30555 -0.25,-0.25 -0.30556,-0.30556 -1.44444,-1.19444 -1.44444,-3.16667 z m 2.80555,-3.66667 h 8.22223 v -2.05555 q 0,-0.72223 -0.83333,-1.47223 -0.83333,-0.75 -1.55556,-0.75 h -3.47222 q -0.38889,0 -0.69445,0.16667 -0.30555,0.16667 -0.72222,0.58333 -0.41667,0.41667 -0.47222,0.44445 -0.47223,0.38889 -0.47223,1.02778 z"
         id="path2" />
    </g>
  </g>
  <g
     id="copper1">
    <g
       id="copper0">
      <circle
         stroke-width="20"
         stroke="#ffbf00"
         fill="none"
         id="connector0pin"
         cy="163.46484"
         r="45"
         cx="543.54828" />
      <circle
         cx="359"
         cy="47"
         fill="#000000"
         gorn="0.4.0.0"
         id="connector1pad"
         stroke="none"
         stroke-width="20"
         r="30"
         style="fill:none;fill-opacity:1;stroke:#ffbf00;stroke-opacity:1" />
      <circle
         cx="359"
         cy="480.08026"
         fill="#000000"
         gorn="0.4.0.1"
         id="circle2"
         r="30"
         stroke="none"
         stroke-width="20"
         style="fill:none;stroke:#ffbf00;stroke-opacity:1" />
      <circle
         stroke-width="20"
         stroke="#ffbf00"
         fill="none"
         id="connector3pad"
         gorn="0.2.0.2"
         cx="543.48553"
         cy="360.35449"
         r="45" />
      <circle
         stroke-width="20"
         stroke="#ffbf00"
         fill="none"
         id="connector2pad"
         gorn="0.2.0.1"
         cx="-163"
         cy="543.50128"
         r="45"
         transform="rotate(-90)" />
      <rect
         style="fill:none;fill-rule:evenodd;stroke:#ffbf00;stroke-width:20;stroke-dasharray:none;stroke-opacity:1"
         id="rect3"
         width="90"
         height="90.000008"
         x="498.00003"
         y="118.00001" />
    </g>
  </g>
</svg>
