<?xml version="1.0" encoding="UTF-8" standalone="no"?>
<svg
   viewBox="0 0 266.04826 171.13101"
   x="0in"
   width="0.26604825in"
   height="0.17113101in"
   version="1.2"
   y="0in"
   id="svg2"
   xmlns="http://www.w3.org/2000/svg"
   xmlns:svg="http://www.w3.org/2000/svg"
   xmlns:rdf="http://www.w3.org/1999/02/22-rdf-syntax-ns#"
   xmlns:cc="http://creativecommons.org/ns#"
   xmlns:dc="http://purl.org/dc/elements/1.1/">
  <metadata
     id="metadata41">
    <rdf:RDF>
      <cc:Work
         rdf:about="">
        <dc:format>image/svg+xml</dc:format>
        <dc:type
           rdf:resource="http://purl.org/dc/dcmitype/StillImage" />
      </cc:Work>
    </rdf:RDF>
  </metadata>
  <defs
     id="defs39" />
  <desc
     id="desc4">
    <referenceFile>XT30PW-M_1_schematic.svg</referenceFile>
  </desc>
  <g
     id="schematic">
    <polyline
       stroke-linecap="round"
       stroke-width="0.7"
       fill="none"
       points="14.1,5.557 9.928,3.6 14.1,1.643"
       stroke-linejoin="round"
       stroke="#000000"
       id="polyline1"
       transform="matrix(-13.88889,0,0,13.88889,200.69446,-10.91066)" />
    <line
       y2="39.089344"
       stroke-linecap="round"
       x1="60.277802"
       stroke-width="9.72222"
       x2="133.97223"
       fill="none"
       id="line"
       y1="39.089344"
       stroke-linejoin="round"
       stroke="#000000"
       gorn="0.0.3" />
    <path
       d="M 101.57794,24.922672 H 98.591828 V 7.5962952 q 0,-1.4930545 0.03472,-2.3958317 0.03472,-0.9027771 0.104166,-1.8749987 Q 98.175161,3.88102 97.723773,4.2629642 97.272384,4.6449084 96.57794,5.2351857 L 93.939053,7.387962 92.341832,5.3393523 99.043216,0.13102255 h 2.534724 z"
       id="text1"
       class="text"
       style="font-size:34.7222px;font-family:'Droid Sans';text-anchor:middle;fill:#8c8c8c;stroke-width:0"
       aria-label="1" />
    <polyline
       stroke-linecap="round"
       stroke-width="0.7"
       fill="none"
       points="14.1,12.757 9.928,10.8 14.1,8.843"
       stroke-linejoin="round"
       stroke="#000000"
       id="polyline2"
       transform="matrix(-13.88889,0,0,13.88889,200.69446,-10.91066)" />
    <line
       y2="139.08936"
       stroke-linecap="round"
       x1="60.277802"
       stroke-width="9.72222"
       x2="133.97223"
       fill="none"
       id="line2"
       y1="139.08936"
       stroke-linejoin="round"
       stroke="#000000"
       gorn="0.0.8" />
    <path
       d="M 107.59499,124.92268 H 91.206109 v -2.53472 l 6.493051,-6.56249 q 1.874999,-1.875 3.15972,-3.33333 1.28472,-1.45834 1.94444,-2.84722 0.65973,-1.42361 0.65973,-3.09028 0,-2.04861 -1.21528,-3.09027 -1.21528,-1.07639 -3.159722,-1.07639 -1.805554,0 -3.194442,0.625 -1.354166,0.625 -2.777776,1.73611 l -1.631943,-2.04861 q 1.458332,-1.21528 3.333331,-2.04861 1.909721,-0.868058 4.27083,-0.868058 3.472222,0 5.486112,1.770828 2.01388,1.73611 2.01388,4.82639 0,1.94444 -0.79861,3.64583 -0.79861,1.70139 -2.22222,3.36805 -1.42361,1.63195 -3.33333,3.50695 l -5.173607,5.10416 v 0.13889 h 12.534717 z"
       id="text2"
       class="text"
       style="font-size:34.7222px;font-family:'Droid Sans';text-anchor:middle;fill:#8c8c8c;stroke-width:0"
       aria-label="2" />
    <polyline
       fill="none"
       stroke="#000000"
       stroke-linecap="round"
       stroke-linejoin="round"
       stroke-width="0.7"
       points="9.898,1.643 14.1,3.6 9.898,5.556"
       id="polyline1-4"
       transform="matrix(13.88889,0,0,13.88889,65.344157,-10.91066)" />
    <line
       fill="none"
       stroke="#000000"
       y2="39.089344"
       stroke-linecap="round"
       stroke-linejoin="round"
       x2="165.39005"
       y1="39.089344"
       stroke-width="9.99998"
       gorn="0.0.3"
       x1="255.14255"
       id="line-5" />
    <path
       d="m 180.41473,119.45656 h -3.61111 v 5.625 h -2.95138 v -5.625 h -11.875 v -2.60416 l 11.66666,-16.70138 h 3.15972 v 16.56249 h 3.61111 z m -6.56249,-10.55555 q 0,-1.80555 0.0694,-3.05555 0.0694,-1.28472 0.10417,-2.43055 h -0.13889 q -0.27778,0.65972 -0.69445,1.42361 -0.41666,0.76388 -0.79861,1.28472 l -7.43055,10.59027 h 8.88889 z"
       id="text1-5"
       class="text"
       style="font-size:34.7222px;font-family:'Droid Sans';text-anchor:middle;fill:#8c8c8c;stroke-width:0"
       aria-label="4" />
    <polyline
       fill="none"
       stroke="#000000"
       stroke-linecap="round"
       stroke-linejoin="round"
       stroke-width="0.7"
       points="9.898,8.843 14.1,10.8 9.898,12.756"
       id="polyline2-1"
       transform="matrix(13.88889,0,0,13.88889,65.344157,-10.91066)" />
    <line
       fill="none"
       stroke="#000000"
       y2="139.08936"
       stroke-linecap="round"
       stroke-linejoin="round"
       x2="165.43343"
       y1="139.08936"
       stroke-width="9.72224"
       gorn="0.0.8"
       x1="255.05989"
       id="line2-1" />
    <path
       d="m 180.60726,6.1907057 q 0,2.4999983 -1.38889,3.9930523 -1.38889,1.458333 -3.75,1.944444 v 0.138888 q 2.98611,0.347222 4.44444,1.874999 1.45833,1.527777 1.45833,3.993053 0,2.152776 -1.00694,3.854164 -1.00694,1.666666 -3.125,2.604165 -2.08333,0.937499 -5.38194,0.937499 -1.94444,0 -3.61111,-0.3125 -1.66666,-0.277777 -3.19444,-1.041666 v -2.84722 q 1.5625,0.763889 3.36805,1.215277 1.80556,0.416667 3.47222,0.416667 3.33333,0 4.79167,-1.284722 1.49305,-1.319443 1.49305,-3.611108 0,-2.326388 -1.84027,-3.333331 -1.80556,-1.041666 -5.10417,-1.041666 h -2.39583 v -2.604165 h 2.43055 q 3.05556,0 4.61806,-1.2847217 1.59722,-1.2847213 1.59722,-3.4027754 0,-1.8055544 -1.21528,-2.7777759 -1.21528,-1.0069438 -3.29861,-1.0069438 -2.01389,0 -3.4375,0.5902774 -1.42361,0.5902774 -2.81249,1.4930545 L 165.1906,2.6143192 q 1.31944,-1.0416659 3.26389,-1.80555429 1.97916,-0.76388837 4.47916,-0.76388837 3.88889,0 5.76388,1.73610996 1.90973,1.7361099 1.90973,4.4097192 z"
       id="text2-5"
       class="text"
       style="font-size:34.7222px;font-family:'Droid Sans';text-anchor:middle;fill:#8c8c8c;stroke-width:0"
       aria-label="3" />
    <line
       y2="38.996067"
       stroke-linecap="round"
       x1="162.75317"
       stroke-width="9.99998"
       x2="75.09156"
       fill="none"
       id="connector0pin"
       y1="38.996067"
       stroke-linejoin="round"
       stroke="#000000"
       gorn="0.0.0" />
    <rect
       width="7.583334"
       x="-62.46521"
       y="34.056217"
       fill="none"
       id="connector0terminal"
       height="10"
       gorn="0.0.1"
       transform="scale(-1,1)"
       stroke-width="0" />
    <line
       y2="139.0748"
       stroke-linecap="round"
       x1="166.00513"
       stroke-width="9.72223"
       x2="72.958717"
       fill="none"
       id="connector1pin"
       y1="139.0748"
       stroke-linejoin="round"
       stroke="#000000"
       gorn="0.0.5" />
    <rect
       width="10"
       x="-65"
       y="134.2137"
       fill="none"
       id="connector1terminal"
       height="10"
       gorn="0.0.6"
       transform="scale(-1,1)"
       stroke-width="0" />
    <line
       fill="none"
       stroke="#000000"
       y2="139.41341"
       stroke-linecap="round"
       stroke-linejoin="round"
       x2="252.21335"
       y1="139.41341"
       stroke-width="9.72226"
       gorn="0.0.5"
       x1="161.86113"
       id="connector3pin" />
    <rect
       fill="none"
       x="255"
       height="10"
       gorn="0.0.6"
       id="connector3terminal"
       width="10"
       y="134.55228"
       stroke-width="0" />
    <line
       fill="none"
       stroke="#000000"
       y2="39.089344"
       stroke-linecap="round"
       stroke-linejoin="round"
       x2="261.18713"
       y1="39.089344"
       stroke-width="9.72222"
       gorn="0.0.0"
       x1="162.28436"
       id="connector2pin" />
    <rect
       fill="none"
       x="255"
       height="10"
       gorn="0.0.1"
       id="connector2terminal"
       width="10"
       y="34.55228"
       stroke-width="0" />
  </g>
</svg>
