<?xml version="1.0" encoding="UTF-8" standalone="no"?>
<svg
   viewBox="0 0 266.04826 171.13101"
   x="0in"
   width="0.26604825in"
   height="0.17113101in"
   version="1.2"
   y="0in"
   id="svg2"
   xmlns="http://www.w3.org/2000/svg"
   xmlns:svg="http://www.w3.org/2000/svg"
   xmlns:rdf="http://www.w3.org/1999/02/22-rdf-syntax-ns#"
   xmlns:cc="http://creativecommons.org/ns#"
   xmlns:dc="http://purl.org/dc/elements/1.1/">
  <metadata
     id="metadata41">
    <rdf:RDF>
      <cc:Work
         rdf:about="">
        <dc:format>image/svg+xml</dc:format>
        <dc:type
           rdf:resource="http://purl.org/dc/dcmitype/StillImage" />
      </cc:Work>
    </rdf:RDF>
  </metadata>
  <defs
     id="defs39" />
  <desc
     id="desc4">
    <referenceFile>XT30PW-M_1_schematic.svg</referenceFile>
  </desc>
  <g
     id="schematic">
    <polyline
       stroke-linecap="round"
       stroke-width="0.7"
       fill="none"
       points="14.1,5.557 9.928,3.6 14.1,1.643"
       stroke-linejoin="round"
       stroke="#000000"
       id="polyline1"
       transform="matrix(-13.88889,0,0,13.88889,200.69446,-10.91066)" />
    <line
       y2="39.089344"
       stroke-linecap="round"
       x1="60.277802"
       stroke-width="9.72222"
       x2="133.97223"
       fill="none"
       id="line"
       y1="39.089344"
       stroke-linejoin="round"
       stroke="#000000"
       gorn="0.0.3" />
    <path
       d="M 101.67438,24.922672 H 98.690442 V 9.4434891 q 0,-0.7290306 0,-1.5597863 0.01695,-0.8307557 0.03391,-1.6445573 0.03391,-0.8307557 0.05086,-1.5767404 0.03391,-0.7629389 0.05086,-1.3393817 Q 98.537854,3.628199 98.31745,3.8486036 98.097045,4.0690081 97.859686,4.2724585 97.639282,4.4759089 97.384969,4.7132677 97.130656,4.9336723 96.774617,5.2388478 L 94.265396,7.2903059 92.637793,5.2049394 99.131251,0.13563409 h 2.543129 z"
       id="text1"
       class="text"
       style="font-size:34.7222px;font-family:'Droid Sans';text-anchor:middle;fill:#8c8c8c;stroke-width:0"
       aria-label="1" />
    <polyline
       stroke-linecap="round"
       stroke-width="0.7"
       fill="none"
       points="14.1,12.757 9.928,10.8 14.1,8.843"
       stroke-linejoin="round"
       stroke="#000000"
       id="polyline2"
       transform="matrix(-13.88889,0,0,13.88889,200.69446,-10.91066)" />
    <line
       y2="139.08936"
       stroke-linecap="round"
       x1="60.277802"
       stroke-width="9.72222"
       x2="133.97223"
       fill="none"
       id="line2"
       y1="139.08936"
       stroke-linejoin="round"
       stroke="#000000"
       gorn="0.0.8" />
    <path
       d="M 106.99767,124.92268 H 91.535436 v -2.64485 l 5.93397,-6.45955 q 1.271565,-1.37329 2.271862,-2.50922 1.000302,-1.13593 1.695422,-2.221 0.71207,-1.08507 1.08507,-2.17014 0.37299,-1.10202 0.37299,-2.39054 0,-1.0003 -0.28822,-1.76324 -0.28822,-0.76294 -0.83076,-1.28852 -0.52558,-0.54253 -1.25461,-0.8138 -0.729029,-0.27127 -1.627602,-0.27127 -1.610648,0 -2.916122,0.66122 -1.288519,0.64426 -2.458358,1.66151 l -1.729329,-2.01755 q 0.678168,-0.61035 1.458061,-1.13593 0.779894,-0.54254 1.678466,-0.93248 0.898573,-0.38995 1.89887,-0.61035 1.000298,-0.237363 2.102321,-0.237363 1.627603,0 2.933073,0.457763 1.32243,0.45776 2.23796,1.32243 0.91552,0.84771 1.4072,2.08536 0.50862,1.22071 0.50862,2.76354 0,1.44111 -0.45776,2.74658 -0.44081,1.30547 -1.23766,2.57704 -0.77989,1.25461 -1.88191,2.52617 -1.08507,1.27157 -2.35664,2.64486 l -4.764127,5.0693 v 0.13564 h 11.681447 z"
       id="text2"
       class="text"
       style="font-size:34.7222px;font-family:'Droid Sans';text-anchor:middle;fill:#8c8c8c;stroke-width:0"
       aria-label="2" />
    <polyline
       fill="none"
       stroke="#000000"
       stroke-linecap="round"
       stroke-linejoin="round"
       stroke-width="0.7"
       points="9.898,1.643 14.1,3.6 9.898,5.556"
       id="polyline1-4"
       transform="matrix(13.88889,0,0,13.88889,65.344157,-10.91066)" />
    <line
       fill="none"
       stroke="#000000"
       y2="39.089344"
       stroke-linecap="round"
       stroke-linejoin="round"
       x2="165.39005"
       y1="39.089344"
       stroke-width="9.99998"
       gorn="0.0.3"
       x1="255.14255"
       id="line-5" />
    <path
       d="m 180.04568,119.52058 h -3.61124 v 5.56098 h -2.98394 v -5.56098 h -11.44409 v -2.69572 l 11.24064,-16.66597 h 3.18739 v 16.54729 h 3.61124 z m -6.59518,-2.8144 v -6.03569 q 0,-0.94944 0.017,-1.98364 0.0339,-1.05116 0.0678,-2.03451 0.0339,-1.00029 0.0678,-1.86496 0.0509,-0.86466 0.0678,-1.4411 h -0.15259 q -0.11868,0.33908 -0.30517,0.76293 -0.16954,0.40691 -0.38995,0.83076 -0.20345,0.4069 -0.42385,0.79685 -0.22041,0.38994 -0.4069,0.66121 l -6.96818,10.30815 z"
       id="text1-5"
       class="text"
       style="font-size:34.7222px;font-family:'Droid Sans';text-anchor:middle;fill:#8c8c8c;stroke-width:0"
       aria-label="4" />
    <polyline
       fill="none"
       stroke="#000000"
       stroke-linecap="round"
       stroke-linejoin="round"
       stroke-width="0.7"
       points="9.898,8.843 14.1,10.8 9.898,12.756"
       id="polyline2-1"
       transform="matrix(13.88889,0,0,13.88889,65.344157,-10.91066)" />
    <line
       fill="none"
       stroke="#000000"
       y2="139.08936"
       stroke-linecap="round"
       stroke-linejoin="round"
       x2="165.43343"
       y1="139.08936"
       stroke-width="9.72224"
       gorn="0.0.8"
       x1="255.05989"
       id="line2-1" />
    <path
       d="m 180.15059,6.1950459 q 0,1.2376565 -0.38995,2.2549084 -0.38995,1.017252 -1.10202,1.7632367 -0.69513,0.745985 -1.67847,1.237656 -0.98334,0.474718 -2.18709,0.678168 v 0.101726 q 3.00089,0.372992 4.56068,1.915824 1.55979,1.525878 1.55979,3.984237 0,1.627603 -0.55949,2.983939 -0.54254,1.356335 -1.66151,2.339679 -1.11898,0.983344 -2.83136,1.525878 -1.71237,0.542534 -4.05205,0.542534 -1.84801,0 -3.49256,-0.288221 -1.62761,-0.288222 -3.06871,-1.05116 v -2.882214 q 1.47501,0.779893 3.18738,1.203748 1.72933,0.423855 3.30607,0.423855 1.55979,0 2.69572,-0.339084 1.13593,-0.339084 1.86496,-0.966389 0.74599,-0.627306 1.08507,-1.542832 0.35604,-0.915527 0.35604,-2.051459 0,-1.152885 -0.45776,-1.966687 -0.44081,-0.830755 -1.27157,-1.356335 -0.83075,-0.542535 -2.0345,-0.796848 -1.1868,-0.254313 -2.69572,-0.254313 h -2.25491 v -2.560084 h 2.25491 q 1.37329,0 2.4414,-0.339084 1.06812,-0.339084 1.7802,-0.966389 0.72903,-0.6273053 1.10202,-1.4919694 0.37299,-0.8646642 0.37299,-1.8988703 0,-0.8816183 -0.30517,-1.5767404 -0.30518,-0.6951222 -0.86467,-1.1698397 -0.55949,-0.4916718 -1.33938,-0.7459848 -0.77989,-0.2543129 -1.72933,-0.2543129 -1.8141,0 -3.20434,0.5764427 -1.37329,0.5594886 -2.6279,1.4750153 l -1.55979,-2.1192748 q 0.64426,-0.5255802 1.42415,-0.9833435 0.79685,-0.4577634 1.72933,-0.79684737 0.93248,-0.35603817 1.98364,-0.55948855 1.06812,-0.20345038 2.25491,-0.20345038 1.83105,0 3.20434,0.45776336 1.39025,0.45776336 2.32273,1.28851904 0.93248,0.8138016 1.4072,1.9497329 0.47472,1.1189771 0.47472,2.4583587 z"
       id="text2-5"
       class="text"
       style="font-size:34.7222px;font-family:'Droid Sans';text-anchor:middle;fill:#8c8c8c;stroke-width:0"
       aria-label="3" />
    <line
       y2="38.996067"
       stroke-linecap="round"
       x1="162.75317"
       stroke-width="9.99998"
       x2="75.09156"
       fill="none"
       id="connector0pin"
       y1="38.996067"
       stroke-linejoin="round"
       stroke="#000000"
       gorn="0.0.0" />
    <rect
       width="7.583334"
       x="-62.46521"
       y="34.056217"
       fill="none"
       id="connector0terminal"
       height="10"
       gorn="0.0.1"
       transform="scale(-1,1)"
       stroke-width="0" />
    <line
       y2="139.0748"
       stroke-linecap="round"
       x1="166.00513"
       stroke-width="9.72223"
       x2="72.958717"
       fill="none"
       id="connector1pin"
       y1="139.0748"
       stroke-linejoin="round"
       stroke="#000000"
       gorn="0.0.5" />
    <rect
       width="10"
       x="-65"
       y="134.2137"
       fill="none"
       id="connector1terminal"
       height="10"
       gorn="0.0.6"
       transform="scale(-1,1)"
       stroke-width="0" />
    <line
       fill="none"
       stroke="#000000"
       y2="139.41341"
       stroke-linecap="round"
       stroke-linejoin="round"
       x2="252.21335"
       y1="139.41341"
       stroke-width="9.72226"
       gorn="0.0.5"
       x1="161.86113"
       id="connector3pin" />
    <rect
       fill="none"
       x="255"
       height="10"
       gorn="0.0.6"
       id="connector3terminal"
       width="10"
       y="134.55228"
       stroke-width="0" />
    <line
       fill="none"
       stroke="#000000"
       y2="39.089344"
       stroke-linecap="round"
       stroke-linejoin="round"
       x2="261.18713"
       y1="39.089344"
       stroke-width="9.72222"
       gorn="0.0.0"
       x1="162.28436"
       id="connector2pin" />
    <rect
       fill="none"
       x="255"
       height="10"
       gorn="0.0.1"
       id="connector2terminal"
       width="10"
       y="34.55228"
       stroke-width="0" />
    <path
       d="m 129.4354,57.277796 q -0.38889,-0.416667 -0.38889,-1 0,-0.583334 0.38889,-1.000001 0.41667,-0.416667 1,-0.416667 h 4.11112 v -4.111115 q 0,-0.555556 0.41667,-0.972223 0.41666,-0.416667 1,-0.416667 0.55555,0 0.97222,0.416667 0.41667,0.416667 0.41667,0.972223 v 4.111115 h 4.11111 q 0.58333,0 1,0.416667 0.41667,0.416667 0.41667,1.000001 0,0.583333 -0.41667,1 -0.41667,0.38889 -1,0.38889 h -4.11111 V 61.7778 q 0,0.583334 -0.41667,1.000001 -0.41667,0.416667 -0.97222,0.416667 -0.58334,0 -1,-0.416667 -0.41667,-0.416667 -0.41667,-1.000001 v -4.111114 h -4.11112 q -0.58333,0 -1,-0.38889 z"
       id="text3"
       style="font-size:27.7778px;line-height:1.15;font-family:OCRA;-inkscape-font-specification:OCRA;letter-spacing:0px;fill:#8c8c8c;fill-opacity:0.933333;stroke:#ffbf00;stroke-width:0;stroke-linecap:square;stroke-miterlimit:4.7;paint-order:stroke fill markers"
       aria-label="+" />
    <path
       d="m 130.82821,154.25079 v -1.16667 q 0,-0.58333 0.38889,-1 0.41667,-0.41666 1,-0.41666 h 11.02779 q 0.58333,0 1,0.41666 0.41667,0.41667 0.41667,1 v 1.16667 q 0,0.58333 -0.41667,1 -0.41667,0.41667 -1,0.41667 H 132.2171 q -0.58333,0 -1,-0.41667 -0.38889,-0.41667 -0.38889,-1 z"
       id="text4"
       style="font-size:27.7778px;line-height:1.15;font-family:OCRA;-inkscape-font-specification:OCRA;letter-spacing:0px;fill:#8c8c8c;fill-opacity:0.933333;stroke:#ffbf00;stroke-width:0;stroke-linecap:square;stroke-miterlimit:4.7;paint-order:stroke fill markers"
       aria-label="-" />
  </g>
</svg>
