<?xml version="1.0" encoding="UTF-8" standalone="no"?>
<!-- Created with Fritzing (https://fritzing.org/) -->

<svg
   height="6.0009999mm"
   viewBox="0 0 42.519722 17.010711"
   width="15mm"
   id="svg82"
   x="0in"
   version="1.2"
   y="0in"
   gorn="0"
   xmlns="http://www.w3.org/2000/svg"
   xmlns:svg="http://www.w3.org/2000/svg">
  <desc
     id="desc2">
    <referenceFile>stephena-jst4_aaa2d2a14434f18e4ffd8bb5e9652fa7_12_breadboard.svg</referenceFile>
  </desc>
  <defs
     id="defs86" />
  <g
     id="g31"
     gorn="0.2.0.0.0.0.0.0.0.0.0.0.0"
     transform="translate(19.381,25.688)">
    <rect
       height="4.402"
       width="1.563"
       id="rect27"
       x="-15.129"
       y="-25.684999"
       gorn="0.2.0.0.0.0.0.0.0.0.0.0.0.0"
       fill="#b9b9b9" />
    <rect
       height="4.402"
       width="1.563"
       id="rect29"
       x="17.149097"
       y="-25.684999"
       gorn="0.2.0.0.0.0.0.0.0.0.0.0.0.1"
       fill="#b9b9b9" />
    <path
       d="M 17.150236,-24.746 H -13.566 v 3.463 h 30.716236 z"
       id="path4286_4_"
       stroke-width="1.36263"
       gorn="0.2.0.0.0.0.0.0.0.0.0.0.1"
       fill="#b9b9b9" />
    <path
       d="m 19.510359,-25.688 h 3.543 V -8.68 h -3.543 z"
       id="path4286_2_"
       gorn="0.2.0.0.0.0.0.0.0.0.0.0.3"
       fill="#b9b9b9" />
    <path
       d="m -19.381,-25.686 h 3.401 v 17.008 h -3.401 z"
       id="path4286_3_"
       gorn="0.2.0.0.0.0.0.0.0.0.0.0.4"
       fill="#b9b9b9" />
  </g>
  <g
     transform="matrix(1.2336394,0,0,1,-108.2391,-73.7597)"
     id="g13">
    <path
       d="M 13.413724,-21.811 H -16.917 v 9.259 h 30.330724 z"
       id="path4286"
       stroke-width="1.14232"
       gorn="0.2.0.0.0.0.0.0.0.0.0.0.13"
       fill="#e2e2e2"
       transform="translate(106.654,99.4477)" />
    <path
       d="M 12.980322,-21.283 H -16.483 v 8.203 h 29.463322 z"
       id="path4286_1_"
       stroke-width="1.14749"
       gorn="0.2.0.0.0.0.0.0.0.0.0.0.14"
       fill="#d0d0d0"
       transform="translate(106.654,99.4477)" />
    <path
       d="m 13.413859,-21.283 h -1.455 v 8.203 h 1.455 z"
       id="path4286_5_"
       gorn="0.2.0.0.0.0.0.0.0.0.0.0.15"
       fill="#efefef"
       transform="translate(106.654,99.4477)" />
    <path
       d="m -15.462,-21.285 h -1.455 v 8.203 h 1.455 z"
       id="path4286_6_"
       gorn="0.2.0.0.0.0.0.0.0.0.0.0.16"
       fill="#efefef"
       transform="translate(106.654,99.4477)" />
  </g>
  <g
     id="connector0pin"
     gorn="0.2.0.0.0.0.0.0.0.0.0.0.17.0.0.0"
     transform="translate(-85.713997,-79.251003)">
    <rect
       x="-13.952"
       y="-18.798"
       width="3.2309999"
       height="3.2309999"
       rx="0.28299999"
       id="connector0terminal"
       fill="#9a916c"
       transform="translate(105.095,104.939)" />
    <path
       d="m 92.234,86.948 h 1.049 c 0.156,0 0.283,0.126 0.283,0.283 v 1.049 c 0,0.157 -0.127,0.284 -0.283,0.284 h -1.049 c -0.157,0 -0.284,-0.127 -0.284,-0.284 v -1.049 c 0,-0.156 0.127,-0.283 0.284,-0.283 z"
       enable-background="new    "
       opacity="0.95"
       id="path4154"
       gorn="0.2.0.0.0.0.0.0.0.0.0.0.17.0.0.0.0"
       fill="#8c8663" />
    <path
       d="m 94.231,89.231 -0.808,-0.809 c -0.051,0.051 -0.063,0.143 -0.141,0.143 h -1.048 c -0.079,0 -0.091,-0.092 -0.143,-0.143 l -0.808,0.809 c 0.052,0.051 0.063,0.142 0.142,0.142 h 2.664 c 0.081,-0.001 0.091,-0.091 0.142,-0.142 z"
       enable-background="new    "
       opacity="0.95"
       id="path4217"
       gorn="0.2.0.0.0.0.0.0.0.0.0.0.17.0.0.0.1"
       fill="#5e5b43" />
    <path
       d="m 93.425,87.09 c 0.051,0.051 0.141,0.063 0.141,0.142 v 1.048 c 0,0.079 -0.091,0.092 -0.143,0.143 l 0.808,0.809 c 0.052,-0.052 0.143,-0.063 0.143,-0.141 v -2.667 c 0,-0.078 -0.091,-0.089 -0.143,-0.141 z"
       enable-background="new    "
       opacity="0.95"
       id="path4222"
       gorn="0.2.0.0.0.0.0.0.0.0.0.0.17.0.0.0.2"
       fill="#80795b" />
    <path
       d="m 91.285,86.283 c -0.052,0.051 -0.143,0.063 -0.143,0.141 v 2.667 c 0,0.078 0.091,0.089 0.143,0.141 l 0.808,-0.809 C 92.041,88.372 91.95,88.36 91.95,88.28 v -1.048 c 0,-0.079 0.092,-0.09 0.143,-0.141 z"
       enable-background="new    "
       opacity="0.95"
       id="path4220"
       gorn="0.2.0.0.0.0.0.0.0.0.0.0.17.0.0.0.3"
       fill="#9a916c" />
    <path
       d="m 91.285,86.283 0.808,0.808 c 0.052,-0.052 0.063,-0.142 0.143,-0.142 h 1.048 c 0.079,0 0.092,0.089 0.143,0.141 l 0.806,-0.807 c -0.051,-0.051 -0.062,-0.142 -0.141,-0.142 h -2.664 c -0.08,0 -0.091,0.091 -0.143,0.142 z"
       enable-background="new    "
       opacity="0.95"
       id="path4159"
       gorn="0.2.0.0.0.0.0.0.0.0.0.0.17.0.0.0.4"
       fill="#b8af82" />
  </g>
  <g
     id="connector1pin"
     gorn="0.2.0.0.0.0.0.0.0.0.0.0.18.0.0.0"
     transform="translate(-85.713997,-79.251003)">
    <rect
       x="-6.8649998"
       y="-18.798"
       width="3.2309999"
       height="3.2309999"
       rx="0.28299999"
       id="connector1terminal"
       fill="#9a916c"
       transform="translate(105.095,104.939)" />
    <path
       d="m 99.321,86.948 h 1.049 c 0.156,0 0.283,0.126 0.283,0.283 v 1.049 c 0,0.157 -0.127,0.284 -0.283,0.284 h -1.049 c -0.156,0 -0.283,-0.127 -0.283,-0.284 v -1.049 c 0,-0.156 0.127,-0.283 0.283,-0.283 z"
       enable-background="new    "
       opacity="0.95"
       id="path5450"
       gorn="0.2.0.0.0.0.0.0.0.0.0.0.18.0.0.0.0"
       fill="#8c8663" />
    <path
       d="m 101.319,89.231 -0.808,-0.809 c -0.052,0.051 -0.063,0.143 -0.141,0.143 h -1.049 c -0.078,0 -0.091,-0.092 -0.143,-0.143 l -0.808,0.809 c 0.052,0.051 0.063,0.142 0.143,0.142 h 2.664 c 0.08,-0.001 0.092,-0.091 0.142,-0.142 z"
       enable-background="new    "
       opacity="0.95"
       id="path5452"
       gorn="0.2.0.0.0.0.0.0.0.0.0.0.18.0.0.0.1"
       fill="#5e5b43" />
    <path
       d="m 100.513,87.09 c 0.052,0.051 0.141,0.063 0.141,0.142 v 1.048 c 0,0.079 -0.091,0.092 -0.142,0.143 l 0.808,0.809 c 0.051,-0.052 0.142,-0.063 0.142,-0.141 v -2.667 c 0,-0.078 -0.091,-0.089 -0.142,-0.141 z"
       enable-background="new    "
       opacity="0.95"
       id="path5454"
       gorn="0.2.0.0.0.0.0.0.0.0.0.0.18.0.0.0.2"
       fill="#80795b" />
    <path
       d="m 98.372,86.283 c -0.051,0.051 -0.142,0.063 -0.142,0.141 v 2.667 c 0,0.078 0.091,0.089 0.142,0.141 L 99.18,88.423 C 99.129,88.372 99.038,88.36 99.038,88.28 v -1.048 c 0,-0.079 0.091,-0.09 0.142,-0.141 z"
       enable-background="new    "
       opacity="0.95"
       id="path5456"
       gorn="0.2.0.0.0.0.0.0.0.0.0.0.18.0.0.0.3"
       fill="#9a916c" />
    <path
       d="m 98.372,86.283 0.808,0.808 c 0.052,-0.052 0.063,-0.142 0.143,-0.142 h 1.049 c 0.078,0 0.091,0.089 0.142,0.141 l 0.807,-0.807 c -0.051,-0.051 -0.063,-0.142 -0.141,-0.142 h -2.664 c -0.08,0 -0.092,0.091 -0.144,0.142 z"
       enable-background="new    "
       opacity="0.95"
       id="path5458"
       gorn="0.2.0.0.0.0.0.0.0.0.0.0.18.0.0.0.4"
       fill="#b8af82" />
  </g>
  <g
     id="connector2pin"
     gorn="0.2.0.0.0.0.0.0.0.0.0.0.19.0.0.0"
     transform="translate(-85.713997,-79.251003)">
    <rect
       x="0.22400001"
       y="-18.798"
       width="3.2309999"
       height="3.2309999"
       rx="0.28299999"
       id="connector2terminal"
       fill="#9a916c"
       transform="translate(105.095,104.939)" />
    <path
       d="m 106.408,86.947 h 1.049 c 0.156,0 0.283,0.127 0.283,0.284 v 1.049 c 0,0.156 -0.127,0.283 -0.283,0.283 h -1.049 c -0.156,0 -0.283,-0.127 -0.283,-0.283 v -1.049 c 0,-0.156 0.127,-0.284 0.283,-0.284 z"
       enable-background="new    "
       opacity="0.95"
       id="path5464"
       gorn="0.2.0.0.0.0.0.0.0.0.0.0.19.0.0.0.0"
       fill="#8c8663" />
    <path
       d="m 108.406,89.229 -0.809,-0.808 c -0.051,0.052 -0.063,0.142 -0.141,0.142 h -1.049 c -0.078,0 -0.09,-0.09 -0.143,-0.142 l -0.807,0.808 c 0.051,0.052 0.063,0.143 0.143,0.143 h 2.664 c 0.08,0 0.092,-0.092 0.142,-0.143 z"
       enable-background="new    "
       opacity="0.95"
       id="path5466"
       gorn="0.2.0.0.0.0.0.0.0.0.0.0.19.0.0.0.1"
       fill="#5e5b43" />
    <path
       d="m 107.6,87.088 c 0.051,0.051 0.141,0.064 0.141,0.143 v 1.049 c 0,0.078 -0.092,0.09 -0.143,0.142 l 0.809,0.808 c 0.051,-0.051 0.141,-0.063 0.141,-0.141 v -2.666 c 0,-0.078 -0.09,-0.089 -0.141,-0.141 z"
       enable-background="new    "
       opacity="0.95"
       id="path5468"
       gorn="0.2.0.0.0.0.0.0.0.0.0.0.19.0.0.0.2"
       fill="#80795b" />
    <path
       d="m 105.459,86.282 c -0.051,0.051 -0.143,0.063 -0.143,0.141 v 2.666 c 0,0.078 0.092,0.09 0.143,0.141 l 0.807,-0.808 c -0.051,-0.052 -0.141,-0.063 -0.141,-0.142 v -1.049 c 0,-0.078 0.09,-0.09 0.141,-0.141 z"
       enable-background="new    "
       opacity="0.95"
       id="path5470"
       gorn="0.2.0.0.0.0.0.0.0.0.0.0.19.0.0.0.3"
       fill="#9a916c" />
    <path
       d="m 105.459,86.282 0.807,0.808 c 0.053,-0.051 0.064,-0.142 0.143,-0.142 h 1.049 c 0.078,0 0.092,0.089 0.143,0.14 l 0.807,-0.806 c -0.051,-0.051 -0.063,-0.142 -0.141,-0.142 h -2.664 c -0.081,0 -0.093,0.091 -0.144,0.142 z"
       enable-background="new    "
       opacity="0.95"
       id="path5472"
       gorn="0.2.0.0.0.0.0.0.0.0.0.0.19.0.0.0.4"
       fill="#b8af82" />
  </g>
  <g
     id="connector3pin"
     gorn="0.2.0.0.0.0.0.0.0.0.0.0.20.0.0.0"
     transform="translate(-78.627798,-79.251003)">
    <rect
       x="7.309"
       y="-18.798"
       width="3.2309999"
       height="3.2309999"
       rx="0.28299999"
       id="connector3terminal"
       fill="#9a916c"
       transform="translate(98.008798,104.939)" />
    <path
       d="m 106.408,86.947 h 1.049 c 0.156,0 0.283,0.127 0.283,0.284 v 1.049 c 0,0.156 -0.127,0.283 -0.283,0.283 h -1.049 c -0.156,0 -0.283,-0.127 -0.283,-0.283 v -1.049 c 0,-0.156 0.127,-0.284 0.283,-0.284 z"
       enable-background="new    "
       opacity="0.95"
       id="path321"
       gorn="0.2.0.0.0.0.0.0.0.0.0.0.20.0.0.0.0"
       fill="#8c8663" />
    <path
       d="m 108.406,89.229 -0.809,-0.808 c -0.051,0.052 -0.063,0.142 -0.141,0.142 h -1.049 c -0.078,0 -0.09,-0.09 -0.143,-0.142 l -0.807,0.808 c 0.051,0.052 0.063,0.143 0.143,0.143 h 2.664 c 0.08,0 0.092,-0.092 0.142,-0.143 z"
       enable-background="new    "
       opacity="0.95"
       id="path323"
       gorn="0.2.0.0.0.0.0.0.0.0.0.0.20.0.0.0.1"
       fill="#5e5b43" />
    <path
       d="m 107.6,87.088 c 0.051,0.051 0.141,0.064 0.141,0.143 v 1.049 c 0,0.078 -0.092,0.09 -0.143,0.142 l 0.809,0.808 c 0.051,-0.051 0.141,-0.063 0.141,-0.141 v -2.666 c 0,-0.078 -0.09,-0.089 -0.141,-0.141 z"
       enable-background="new    "
       opacity="0.95"
       id="path325"
       gorn="0.2.0.0.0.0.0.0.0.0.0.0.20.0.0.0.2"
       fill="#80795b" />
    <path
       d="m 105.459,86.282 c -0.051,0.051 -0.143,0.063 -0.143,0.141 v 2.666 c 0,0.078 0.092,0.09 0.143,0.141 l 0.807,-0.808 c -0.051,-0.052 -0.141,-0.063 -0.141,-0.142 v -1.049 c 0,-0.078 0.09,-0.09 0.141,-0.141 z"
       enable-background="new    "
       opacity="0.95"
       id="path327"
       gorn="0.2.0.0.0.0.0.0.0.0.0.0.20.0.0.0.3"
       fill="#9a916c" />
    <path
       d="m 105.459,86.282 0.807,0.808 c 0.053,-0.051 0.064,-0.142 0.143,-0.142 h 1.049 c 0.078,0 0.092,0.089 0.143,0.14 l 0.807,-0.806 c -0.051,-0.051 -0.063,-0.142 -0.141,-0.142 h -2.664 c -0.081,0 -0.093,0.091 -0.144,0.142 z"
       enable-background="new    "
       opacity="0.95"
       id="path329"
       gorn="0.2.0.0.0.0.0.0.0.0.0.0.20.0.0.0.4"
       fill="#b8af82" />
  </g>
  <g
     id="connector4pin"
     gorn="0.2.0.0.0.0.0.0.0.0.0.0.20.0.0.0"
     transform="translate(-71.54118,-79.251003)">
    <rect
       x="7.309"
       y="-18.798"
       width="3.2309999"
       height="3.2309999"
       rx="0.28299999"
       id="rect1"
       fill="#9a916c"
       transform="translate(98.008798,104.939)" />
    <path
       d="m 106.408,86.947 h 1.049 c 0.156,0 0.283,0.127 0.283,0.284 v 1.049 c 0,0.156 -0.127,0.283 -0.283,0.283 h -1.049 c -0.156,0 -0.283,-0.127 -0.283,-0.283 v -1.049 c 0,-0.156 0.127,-0.284 0.283,-0.284 z"
       enable-background="new    "
       opacity="0.95"
       id="path1"
       gorn="0.2.0.0.0.0.0.0.0.0.0.0.20.0.0.0.0"
       fill="#8c8663" />
    <path
       d="m 108.406,89.229 -0.809,-0.808 c -0.051,0.052 -0.063,0.142 -0.141,0.142 h -1.049 c -0.078,0 -0.09,-0.09 -0.143,-0.142 l -0.807,0.808 c 0.051,0.052 0.063,0.143 0.143,0.143 h 2.664 c 0.08,0 0.092,-0.092 0.142,-0.143 z"
       enable-background="new    "
       opacity="0.95"
       id="path2"
       gorn="0.2.0.0.0.0.0.0.0.0.0.0.20.0.0.0.1"
       fill="#5e5b43" />
    <path
       d="m 107.6,87.088 c 0.051,0.051 0.141,0.064 0.141,0.143 v 1.049 c 0,0.078 -0.092,0.09 -0.143,0.142 l 0.809,0.808 c 0.051,-0.051 0.141,-0.063 0.141,-0.141 v -2.666 c 0,-0.078 -0.09,-0.089 -0.141,-0.141 z"
       enable-background="new    "
       opacity="0.95"
       id="path3"
       gorn="0.2.0.0.0.0.0.0.0.0.0.0.20.0.0.0.2"
       fill="#80795b" />
    <path
       d="m 105.459,86.282 c -0.051,0.051 -0.143,0.063 -0.143,0.141 v 2.666 c 0,0.078 0.092,0.09 0.143,0.141 l 0.807,-0.808 c -0.051,-0.052 -0.141,-0.063 -0.141,-0.142 v -1.049 c 0,-0.078 0.09,-0.09 0.141,-0.141 z"
       enable-background="new    "
       opacity="0.95"
       id="path4"
       gorn="0.2.0.0.0.0.0.0.0.0.0.0.20.0.0.0.3"
       fill="#9a916c" />
    <path
       d="m 105.459,86.282 0.807,0.808 c 0.053,-0.051 0.064,-0.142 0.143,-0.142 h 1.049 c 0.078,0 0.092,0.089 0.143,0.14 l 0.807,-0.806 c -0.051,-0.051 -0.063,-0.142 -0.141,-0.142 h -2.664 c -0.081,0 -0.093,0.091 -0.144,0.142 z"
       enable-background="new    "
       opacity="0.95"
       id="path5"
       gorn="0.2.0.0.0.0.0.0.0.0.0.0.20.0.0.0.4"
       fill="#b8af82" />
  </g>
</svg>
