<?xml version="1.0" encoding="UTF-8" standalone="no"?>
<!-- Created with Fritzing (https://fritzing.org/) -->

<svg
   height="0.48199999in"
   viewBox="0 0 14.4 34.703986"
   width="0.2in"
   id="svg197"
   x="0in"
   version="1.2"
   y="0in"
   gorn="0"
   xmlns="http://www.w3.org/2000/svg"
   xmlns:svg="http://www.w3.org/2000/svg">
  <desc
     id="desc1">
    <referenceFile>stephena-jst4_aaa2d2a14434f18e4ffd8bb5e9652fa7_12_schematic.svg</referenceFile>
  </desc>
  <defs
     id="defs201" />
  <g
     id="schematic"
     gorn="0.2.0">
    <line
       y2="3.5999999"
       stroke-linejoin="round"
       x1="0.34999999"
       id="connector0pin"
       stroke-width="0.7"
       stroke="#000000"
       gorn="0.2.0.0"
       x2="7.4710002"
       fill="none"
       y1="3.5999999"
       stroke-linecap="round" />
    <rect
       height="0.208"
       width="0.546"
       id="connector0terminal"
       x="-0.273"
       y="3.5039999"
       gorn="0.2.0.1"
       fill="none" />
    <polyline
       stroke-linejoin="round"
       id="polyline6"
       points="9.898,1.643,14.1,3.6,9.898,5.556"
       stroke-width="0.7"
       stroke="#000000"
       gorn="0.2.0.2"
       fill="none"
       stroke-linecap="round" />
    <line
       y2="3.5999999"
       stroke-linejoin="round"
       x1="14.1"
       id="line"
       stroke-width="0.7"
       stroke="#000000"
       gorn="0.2.0.3"
       x2="4.7810001"
       fill="none"
       y1="3.5999999"
       stroke-linecap="round" />
    <path
       d="m 5.2224996,2.5799999 h -0.215 v -1.2475 q 0,-0.1075 0.0025,-0.1725 0.0025,-0.065 0.0075,-0.135 -0.04,0.04 -0.0725,0.0675 -0.0325,0.0275 -0.0825,0.07 l -0.19,0.155 -0.115,-0.1475 0.4825,-0.37499998 h 0.1825 z"
       id="text9"
       class="text"
       style="font-size:2.5px;font-family:'Droid Sans';text-anchor:middle;fill:#8c8c8c;stroke-width:0"
       aria-label="1" />
    <line
       y2="10.8"
       stroke-linejoin="round"
       x1="0.34999999"
       id="connector1pin"
       stroke-width="0.7"
       stroke="#000000"
       gorn="0.2.0.5"
       x2="7.4710002"
       fill="none"
       y1="10.8"
       stroke-linecap="round" />
    <rect
       height="0.208"
       width="0.546"
       id="connector1terminal"
       x="-0.273"
       y="10.704"
       gorn="0.2.0.6"
       fill="none" />
    <polyline
       stroke-linejoin="round"
       id="polyline13"
       points="9.898,8.843,14.1,10.8,9.898,12.756"
       stroke-width="0.7"
       stroke="#000000"
       gorn="0.2.0.7"
       fill="none"
       stroke-linecap="round" />
    <line
       y2="10.8"
       stroke-linejoin="round"
       x1="14.1"
       id="line15"
       stroke-width="0.7"
       stroke="#000000"
       gorn="0.2.0.8"
       x2="4.7810001"
       fill="none"
       y1="10.8"
       stroke-linecap="round" />
    <path
       d="m 5.6349996,9.7799997 h -1.18 v -0.1825 l 0.4675,-0.4725 q 0.135,-0.135 0.2275,-0.24 0.0925,-0.105 0.14,-0.205 0.0475,-0.1025 0.0475,-0.2225 0,-0.1475 -0.0875,-0.2225 -0.0875,-0.0775 -0.2275,-0.0775 -0.13,0 -0.23,0.045 -0.0975,0.045 -0.2,0.125 l -0.1175,-0.1475 q 0.105,-0.0875 0.24,-0.1475 0.1375,-0.0625 0.3075,-0.0625 0.25,0 0.395,0.1275 0.145,0.125 0.145,0.3475 0,0.14 -0.0575,0.2625 -0.0575,0.1225 -0.16,0.2425 -0.1025,0.1175 -0.24,0.2525 l -0.3725,0.3675 v 0.01 h 0.9025 z"
       id="text17"
       class="text"
       style="font-size:2.5px;font-family:'Droid Sans';text-anchor:middle;fill:#8c8c8c;stroke-width:0"
       aria-label="2" />
    <line
       y2="18"
       stroke-linejoin="round"
       x1="0.34999999"
       id="connector2pin"
       stroke-width="0.7"
       stroke="#000000"
       gorn="0.2.0.10"
       x2="7.4710002"
       fill="none"
       y1="18"
       stroke-linecap="round" />
    <rect
       height="0.208"
       width="0.546"
       id="connector2terminal"
       x="-0.273"
       y="17.903999"
       gorn="0.2.0.11"
       fill="none" />
    <polyline
       stroke-linejoin="round"
       id="polyline21"
       points="9.898,16.043,14.1,18,9.898,19.956"
       stroke-width="0.7"
       stroke="#000000"
       gorn="0.2.0.12"
       fill="none"
       stroke-linecap="round" />
    <line
       y2="18"
       stroke-linejoin="round"
       x1="14.1"
       id="line23"
       stroke-width="0.7"
       stroke="#000000"
       gorn="0.2.0.13"
       x2="4.7810001"
       fill="none"
       y1="18"
       stroke-linecap="round" />
    <path
       d="m 5.5674996,15.6125 q 0,0.18 -0.1,0.2875 -0.1,0.105 -0.27,0.14 v 0.01 q 0.215,0.025 0.32,0.135 0.105,0.11 0.105,0.2875 0,0.155 -0.0725,0.2775 -0.0725,0.12 -0.225,0.1875 -0.15,0.0675 -0.3875,0.0675 -0.14,0 -0.26,-0.0225 -0.12,-0.02 -0.23,-0.075 v -0.205 q 0.1125,0.055 0.2425,0.0875 0.13,0.03 0.25,0.03 0.24,0 0.345,-0.0925 0.1075,-0.095 0.1075,-0.26 0,-0.1675 -0.1325,-0.24 -0.13,-0.075 -0.3675,-0.075 h -0.1725 V 15.965 h 0.175 q 0.22,0 0.3325,-0.0925 0.115,-0.0925 0.115,-0.245 0,-0.13 -0.0875,-0.2 -0.0875,-0.0725 -0.2375,-0.0725 -0.145,0 -0.2475,0.0425 -0.1025,0.0425 -0.2025,0.1075 l -0.11,-0.15 q 0.095,-0.075 0.235,-0.13 0.1425,-0.055 0.3225,-0.055 0.28,0 0.415,0.125 0.1375,0.125 0.1375,0.3175 z"
       id="text25"
       class="text"
       style="font-size:2.5px;font-family:'Droid Sans';text-anchor:middle;fill:#8c8c8c;stroke-width:0"
       aria-label="3" />
    <line
       y2="25.170496"
       stroke-linejoin="round"
       x1="0.34999999"
       id="connector3pin"
       stroke-width="0.7"
       stroke="#000000"
       gorn="0.2.0.15"
       x2="7.4710002"
       fill="none"
       y1="25.170496"
       stroke-linecap="round" />
    <rect
       height="0.208"
       width="0.546"
       id="connector3terminal"
       x="-0.273"
       y="25.074495"
       gorn="0.2.0.16"
       fill="none" />
    <polyline
       stroke-linejoin="round"
       id="polyline945"
       points="9.898,16.043,14.1,18,9.898,19.956"
       stroke-width="0.7"
       stroke="#000000"
       gorn="0.2.0.17.0.0"
       fill="none"
       stroke-linecap="round"
       transform="translate(0,7.1704958)" />
    <line
       y2="25.170496"
       stroke-linejoin="round"
       x1="14.1"
       id="line947"
       stroke-width="0.7"
       stroke="#000000"
       gorn="0.2.0.18"
       x2="4.7810001"
       fill="none"
       y1="25.170496"
       stroke-linecap="round" />
    <path
       d="m 5.7149996,23.745496 h -0.26 v 0.405 h -0.2125 v -0.405 h -0.855 v -0.1875 l 0.84,-1.2025 h 0.2275 v 1.1925 h 0.26 z m -0.4725,-0.76 q 0,-0.13 0.005,-0.22 0.005,-0.0925 0.0075,-0.175 h -0.01 q -0.02,0.0475 -0.05,0.1025 -0.03,0.055 -0.0575,0.0925 l -0.535,0.7625 h 0.64 z"
       id="text949"
       class="text"
       style="font-size:2.5px;font-family:'Droid Sans';text-anchor:middle;fill:#8c8c8c;stroke-width:0"
       aria-label="4" />
    <line
       y2="32.370495"
       stroke-linejoin="round"
       x1="0.34999999"
       stroke-width="0.7"
       stroke="#000000"
       gorn="0.2.0.15"
       x2="7.4710002"
       fill="none"
       y1="32.370495"
       stroke-linecap="round"
       id="connector4pin" />
    <rect
       height="0.208"
       width="0.546"
       id="connector4terminal"
       x="-0.273"
       y="32.274494"
       gorn="0.2.0.16"
       fill="none" />
    <polyline
       stroke-linejoin="round"
       id="polyline1"
       points="9.898,16.043,14.1,18,9.898,19.956"
       stroke-width="0.7"
       stroke="#000000"
       gorn="0.2.0.17.0.0"
       fill="none"
       stroke-linecap="round"
       transform="translate(0,14.370494)" />
    <line
       y2="32.370495"
       stroke-linejoin="round"
       x1="14.1"
       id="line2"
       stroke-width="0.7"
       stroke="#000000"
       gorn="0.2.0.18"
       x2="4.7810001"
       fill="none"
       y1="32.370495"
       stroke-linecap="round" />
    <path
       d="m 5.0224996,30.255494 q 0.275,0 0.4375,0.1375 0.1625,0.1375 0.1625,0.3875 0,0.2775 -0.1775,0.4375 -0.175,0.1575 -0.49,0.1575 -0.1375,0 -0.26,-0.025 -0.12,-0.025 -0.2025,-0.0725 v -0.2075 q 0.09,0.055 0.2175,0.0875 0.13,0.03 0.2475,0.03 0.1975,0 0.3175,-0.0925 0.1225,-0.095 0.1225,-0.2925 0,-0.175 -0.1075,-0.2675 -0.1075,-0.095 -0.34,-0.095 -0.07,0 -0.16,0.0125 -0.09,0.0125 -0.145,0.025 l -0.11,-0.07 0.0675,-0.8425 h 0.895 v 0.2 h -0.7075 l -0.0425,0.5175 q 0.0425,-0.0075 0.115,-0.0175 0.0725,-0.01 0.16,-0.01 z"
       id="text2"
       class="text"
       style="font-size:2.5px;font-family:'Droid Sans';text-anchor:middle;fill:#8c8c8c;stroke-width:0"
       aria-label="5" />
  </g>
</svg>
