<?xml version="1.0" encoding="UTF-8" standalone="no"?>
<!-- Created with Fritzing (https://fritzing.org/) -->

<svg
   gorn="0"
   height="6.0009999mm"
   id="svg82"
   version="1.2"
   viewBox="0 0 63.779582 17.010711"
   width="22.5mm"
   x="0in"
   y="0in"
   xmlns="http://www.w3.org/2000/svg"
   xmlns:svg="http://www.w3.org/2000/svg">
  <desc
     id="desc2">
    <referenceFile>stephena-jst4_aaa2d2a14434f18e4ffd8bb5e9652fa7_12_breadboard.svg</referenceFile>
  </desc>
  <defs
     id="defs86" />
  <g
     transform="translate(19.381,25.688)"
     id="g11">
    <rect
       fill="#b9b9b9"
       gorn="0.2.0.0.0.0.0.0.0.0.0.0.0.0"
       height="4.402"
       id="rect27"
       width="1.563"
       x="-15.129"
       y="-25.684999" />
    <rect
       fill="#b9b9b9"
       gorn="0.2.0.0.0.0.0.0.0.0.0.0.0.1"
       height="4.402"
       id="rect29"
       width="1.563"
       x="38.408951"
       y="-25.684999" />
    <path
       d="M 38.41009,-24.746 H -13.566 v 3.463 h 51.97609 z"
       fill="#b9b9b9"
       gorn="0.2.0.0.0.0.0.0.0.0.0.0.0.2"
       id="path4286_4_"
       stroke-width="1.77254" />
    <path
       d="m 40.713519,-25.688 h 3.543 V -8.68 h -3.543 z"
       fill="#b9b9b9"
       gorn="0.2.0.0.0.0.0.0.0.0.0.0.0.3"
       id="path4286_2_" />
    <path
       d="m -19.381,-25.686 h 3.401 v 17.008 h -3.401 z"
       fill="#b9b9b9"
       gorn="0.2.0.0.0.0.0.0.0.0.0.0.0.4"
       id="path4286_3_" />
  </g>
  <g
     id="g225">
    <path
       d="M 61.141195,3.877 H 2.4639989 v 9.259 H 61.141195 Z"
       fill="#e2e2e2"
       gorn="0.3.0.0.0.0.0.0.0.0.0.0.0.0.0.0.0.0.0.0.0.0.0.0.0"
       id="path4286"
       stroke-width="1.58884" />
    <path
       d="M 60.605092,4.405 H 2.9993928 v 8.203 H 60.605092 Z"
       fill="#d0d0d0"
       gorn="0.3.0.0.0.0.0.0.0.0.0.0.0.1.0.0.0.0.0.0.0.0.0.0.0"
       id="path4286_1_"
       stroke-width="1.6045" />
    <path
       d="m 61.141118,4.405 h -1.794945 v 8.203 h 1.794945 z"
       fill="#efefef"
       gorn="0.3.0.0.0.0.0.0.0.0.0.0.0.2.0.0.0.0.0.0.0.0.0.0.0"
       id="path4286_5_"
       style="stroke-width:1.11069" />
    <path
       d="M 4.2589446,4.403 H 2.4639993 v 8.203 h 1.7949453 z"
       fill="#efefef"
       gorn="0.3.0.0.0.0.0.0.0.0.0.0.0.3.0.0.0.0.0.0.0.0.0.0.0"
       id="path4286_6_"
       style="stroke-width:1.11069" />
  </g>
  <g
     gorn="0.4.0.0.0.0.0.0.0.0.0.0.0"
     id="connector0pin"
     transform="translate(-85.713997,-79.251003)">
    <rect
       fill="#9a916c"
       gorn="0.4.0.0.0.0.0.0.0.0.0.0.0.0.0.0.0.0.0.0.0.0.0.0.0"
       height="3.2309999"
       id="connector0terminal"
       rx="0.28299999"
       width="3.2309999"
       x="-13.952"
       y="-18.798"
       transform="translate(105.095,104.939)" />
    <path
       d="m 92.234,86.948 h 1.049 c 0.156,0 0.283,0.126 0.283,0.283 v 1.049 c 0,0.157 -0.127,0.284 -0.283,0.284 h -1.049 c -0.157,0 -0.284,-0.127 -0.284,-0.284 v -1.049 c 0,-0.156 0.127,-0.283 0.284,-0.283 z"
       enable-background="new    "
       fill="#8c8663"
       gorn="0.4.0.0.0.0.0.0.0.0.0.0.0.1"
       id="path4154"
       opacity="0.95" />
    <path
       d="m 94.231,89.231 -0.808,-0.809 c -0.051,0.051 -0.063,0.143 -0.141,0.143 h -1.048 c -0.079,0 -0.091,-0.092 -0.143,-0.143 l -0.808,0.809 c 0.052,0.051 0.063,0.142 0.142,0.142 h 2.664 c 0.081,-0.001 0.091,-0.091 0.142,-0.142 z"
       enable-background="new    "
       fill="#5e5b43"
       gorn="0.4.0.0.0.0.0.0.0.0.0.0.0.2"
       id="path4217"
       opacity="0.95" />
    <path
       d="m 93.425,87.09 c 0.051,0.051 0.141,0.063 0.141,0.142 v 1.048 c 0,0.079 -0.091,0.092 -0.143,0.143 l 0.808,0.809 c 0.052,-0.052 0.143,-0.063 0.143,-0.141 v -2.667 c 0,-0.078 -0.091,-0.089 -0.143,-0.141 z"
       enable-background="new    "
       fill="#80795b"
       gorn="0.4.0.0.0.0.0.0.0.0.0.0.0.3"
       id="path4222"
       opacity="0.95" />
    <path
       d="m 91.285,86.283 c -0.052,0.051 -0.143,0.063 -0.143,0.141 v 2.667 c 0,0.078 0.091,0.089 0.143,0.141 l 0.808,-0.809 C 92.041,88.372 91.95,88.36 91.95,88.28 v -1.048 c 0,-0.079 0.092,-0.09 0.143,-0.141 z"
       enable-background="new    "
       fill="#9a916c"
       gorn="0.4.0.0.0.0.0.0.0.0.0.0.0.4"
       id="path4220"
       opacity="0.95" />
    <path
       d="m 91.285,86.283 0.808,0.808 c 0.052,-0.052 0.063,-0.142 0.143,-0.142 h 1.048 c 0.079,0 0.092,0.089 0.143,0.141 l 0.806,-0.807 c -0.051,-0.051 -0.062,-0.142 -0.141,-0.142 h -2.664 c -0.08,0 -0.091,0.091 -0.143,0.142 z"
       enable-background="new    "
       fill="#b8af82"
       gorn="0.4.0.0.0.0.0.0.0.0.0.0.0.5"
       id="path4159"
       opacity="0.95" />
  </g>
  <g
     gorn="0.5.0.0.0.0.0.0.0.0.0.0.0"
     id="connector1pin"
     transform="translate(-85.713997,-79.251003)">
    <rect
       fill="#9a916c"
       gorn="0.5.0.0.0.0.0.0.0.0.0.0.0.0.0.0.0.0.0.0.0.0.0.0.0"
       height="3.2309999"
       id="connector1terminal"
       rx="0.28299999"
       width="3.2309999"
       x="-6.8649998"
       y="-18.798"
       transform="translate(105.095,104.939)" />
    <path
       d="m 99.321,86.948 h 1.049 c 0.156,0 0.283,0.126 0.283,0.283 v 1.049 c 0,0.157 -0.127,0.284 -0.283,0.284 h -1.049 c -0.156,0 -0.283,-0.127 -0.283,-0.284 v -1.049 c 0,-0.156 0.127,-0.283 0.283,-0.283 z"
       enable-background="new    "
       fill="#8c8663"
       gorn="0.5.0.0.0.0.0.0.0.0.0.0.0.1"
       id="path5450"
       opacity="0.95" />
    <path
       d="m 101.319,89.231 -0.808,-0.809 c -0.052,0.051 -0.063,0.143 -0.141,0.143 h -1.049 c -0.078,0 -0.091,-0.092 -0.143,-0.143 l -0.808,0.809 c 0.052,0.051 0.063,0.142 0.143,0.142 h 2.664 c 0.08,-0.001 0.092,-0.091 0.142,-0.142 z"
       enable-background="new    "
       fill="#5e5b43"
       gorn="0.5.0.0.0.0.0.0.0.0.0.0.0.2"
       id="path5452"
       opacity="0.95" />
    <path
       d="m 100.513,87.09 c 0.052,0.051 0.141,0.063 0.141,0.142 v 1.048 c 0,0.079 -0.091,0.092 -0.142,0.143 l 0.808,0.809 c 0.051,-0.052 0.142,-0.063 0.142,-0.141 v -2.667 c 0,-0.078 -0.091,-0.089 -0.142,-0.141 z"
       enable-background="new    "
       fill="#80795b"
       gorn="0.5.0.0.0.0.0.0.0.0.0.0.0.3"
       id="path5454"
       opacity="0.95" />
    <path
       d="m 98.372,86.283 c -0.051,0.051 -0.142,0.063 -0.142,0.141 v 2.667 c 0,0.078 0.091,0.089 0.142,0.141 L 99.18,88.423 C 99.129,88.372 99.038,88.36 99.038,88.28 v -1.048 c 0,-0.079 0.091,-0.09 0.142,-0.141 z"
       enable-background="new    "
       fill="#9a916c"
       gorn="0.5.0.0.0.0.0.0.0.0.0.0.0.4"
       id="path5456"
       opacity="0.95" />
    <path
       d="m 98.372,86.283 0.808,0.808 c 0.052,-0.052 0.063,-0.142 0.143,-0.142 h 1.049 c 0.078,0 0.091,0.089 0.142,0.141 l 0.807,-0.807 c -0.051,-0.051 -0.063,-0.142 -0.141,-0.142 h -2.664 c -0.08,0 -0.092,0.091 -0.144,0.142 z"
       enable-background="new    "
       fill="#b8af82"
       gorn="0.5.0.0.0.0.0.0.0.0.0.0.0.5"
       id="path5458"
       opacity="0.95" />
  </g>
  <g
     gorn="0.6.0.0.0.0.0.0.0.0.0.0.0"
     id="connector2pin"
     transform="translate(-85.713997,-79.251003)">
    <rect
       fill="#9a916c"
       gorn="0.6.0.0.0.0.0.0.0.0.0.0.0.0.0.0.0.0.0.0.0.0.0.0.0"
       height="3.2309999"
       id="connector2terminal"
       rx="0.28299999"
       width="3.2309999"
       x="0.22400001"
       y="-18.798"
       transform="translate(105.095,104.939)" />
    <path
       d="m 106.408,86.947 h 1.049 c 0.156,0 0.283,0.127 0.283,0.284 v 1.049 c 0,0.156 -0.127,0.283 -0.283,0.283 h -1.049 c -0.156,0 -0.283,-0.127 -0.283,-0.283 v -1.049 c 0,-0.156 0.127,-0.284 0.283,-0.284 z"
       enable-background="new    "
       fill="#8c8663"
       gorn="0.6.0.0.0.0.0.0.0.0.0.0.0.1"
       id="path5464"
       opacity="0.95" />
    <path
       d="m 108.406,89.229 -0.809,-0.808 c -0.051,0.052 -0.063,0.142 -0.141,0.142 h -1.049 c -0.078,0 -0.09,-0.09 -0.143,-0.142 l -0.807,0.808 c 0.051,0.052 0.063,0.143 0.143,0.143 h 2.664 c 0.08,0 0.092,-0.092 0.142,-0.143 z"
       enable-background="new    "
       fill="#5e5b43"
       gorn="0.6.0.0.0.0.0.0.0.0.0.0.0.2"
       id="path5466"
       opacity="0.95" />
    <path
       d="m 107.6,87.088 c 0.051,0.051 0.141,0.064 0.141,0.143 v 1.049 c 0,0.078 -0.092,0.09 -0.143,0.142 l 0.809,0.808 c 0.051,-0.051 0.141,-0.063 0.141,-0.141 v -2.666 c 0,-0.078 -0.09,-0.089 -0.141,-0.141 z"
       enable-background="new    "
       fill="#80795b"
       gorn="0.6.0.0.0.0.0.0.0.0.0.0.0.3"
       id="path5468"
       opacity="0.95" />
    <path
       d="m 105.459,86.282 c -0.051,0.051 -0.143,0.063 -0.143,0.141 v 2.666 c 0,0.078 0.092,0.09 0.143,0.141 l 0.807,-0.808 c -0.051,-0.052 -0.141,-0.063 -0.141,-0.142 v -1.049 c 0,-0.078 0.09,-0.09 0.141,-0.141 z"
       enable-background="new    "
       fill="#9a916c"
       gorn="0.6.0.0.0.0.0.0.0.0.0.0.0.4"
       id="path5470"
       opacity="0.95" />
    <path
       d="m 105.459,86.282 0.807,0.808 c 0.053,-0.051 0.064,-0.142 0.143,-0.142 h 1.049 c 0.078,0 0.092,0.089 0.143,0.14 l 0.807,-0.806 c -0.051,-0.051 -0.063,-0.142 -0.141,-0.142 h -2.664 c -0.081,0 -0.093,0.091 -0.144,0.142 z"
       enable-background="new    "
       fill="#b8af82"
       gorn="0.6.0.0.0.0.0.0.0.0.0.0.0.5"
       id="path5472"
       opacity="0.95" />
  </g>
  <g
     gorn="0.7.0.0.0.0.0.0.0.0.0.0.0"
     id="connector3pin"
     transform="translate(-78.627798,-79.251003)">
    <rect
       fill="#9a916c"
       gorn="0.7.0.0.0.0.0.0.0.0.0.0.0.0.0.0.0.0.0.0.0.0.0.0.0"
       height="3.2309999"
       id="connector3terminal"
       rx="0.28299999"
       width="3.2309999"
       x="7.309"
       y="-18.798"
       transform="translate(98.008798,104.939)" />
    <path
       d="m 106.408,86.947 h 1.049 c 0.156,0 0.283,0.127 0.283,0.284 v 1.049 c 0,0.156 -0.127,0.283 -0.283,0.283 h -1.049 c -0.156,0 -0.283,-0.127 -0.283,-0.283 v -1.049 c 0,-0.156 0.127,-0.284 0.283,-0.284 z"
       enable-background="new    "
       fill="#8c8663"
       gorn="0.7.0.0.0.0.0.0.0.0.0.0.0.1"
       id="path321"
       opacity="0.95" />
    <path
       d="m 108.406,89.229 -0.809,-0.808 c -0.051,0.052 -0.063,0.142 -0.141,0.142 h -1.049 c -0.078,0 -0.09,-0.09 -0.143,-0.142 l -0.807,0.808 c 0.051,0.052 0.063,0.143 0.143,0.143 h 2.664 c 0.08,0 0.092,-0.092 0.142,-0.143 z"
       enable-background="new    "
       fill="#5e5b43"
       gorn="0.7.0.0.0.0.0.0.0.0.0.0.0.2"
       id="path323"
       opacity="0.95" />
    <path
       d="m 107.6,87.088 c 0.051,0.051 0.141,0.064 0.141,0.143 v 1.049 c 0,0.078 -0.092,0.09 -0.143,0.142 l 0.809,0.808 c 0.051,-0.051 0.141,-0.063 0.141,-0.141 v -2.666 c 0,-0.078 -0.09,-0.089 -0.141,-0.141 z"
       enable-background="new    "
       fill="#80795b"
       gorn="0.7.0.0.0.0.0.0.0.0.0.0.0.3"
       id="path325"
       opacity="0.95" />
    <path
       d="m 105.459,86.282 c -0.051,0.051 -0.143,0.063 -0.143,0.141 v 2.666 c 0,0.078 0.092,0.09 0.143,0.141 l 0.807,-0.808 c -0.051,-0.052 -0.141,-0.063 -0.141,-0.142 v -1.049 c 0,-0.078 0.09,-0.09 0.141,-0.141 z"
       enable-background="new    "
       fill="#9a916c"
       gorn="0.7.0.0.0.0.0.0.0.0.0.0.0.4"
       id="path327"
       opacity="0.95" />
    <path
       d="m 105.459,86.282 0.807,0.808 c 0.053,-0.051 0.064,-0.142 0.143,-0.142 h 1.049 c 0.078,0 0.092,0.089 0.143,0.14 l 0.807,-0.806 c -0.051,-0.051 -0.063,-0.142 -0.141,-0.142 h -2.664 c -0.081,0 -0.093,0.091 -0.144,0.142 z"
       enable-background="new    "
       fill="#b8af82"
       gorn="0.7.0.0.0.0.0.0.0.0.0.0.0.5"
       id="path329"
       opacity="0.95" />
  </g>
  <g
     gorn="0.8.0.0.0.0.0.0.0.0.0.0.0"
     id="connector4pin"
     transform="translate(-71.54118,-79.251003)">
    <rect
       fill="#9a916c"
       gorn="0.8.0.0.0.0.0.0.0.0.0.0.0.0.0.0.0.0.0.0.0.0.0.0.0"
       height="3.2309999"
       id="rect1"
       rx="0.28299999"
       width="3.2309999"
       x="7.309"
       y="-18.798"
       transform="translate(98.008798,104.939)" />
    <path
       d="m 106.408,86.947 h 1.049 c 0.156,0 0.283,0.127 0.283,0.284 v 1.049 c 0,0.156 -0.127,0.283 -0.283,0.283 h -1.049 c -0.156,0 -0.283,-0.127 -0.283,-0.283 v -1.049 c 0,-0.156 0.127,-0.284 0.283,-0.284 z"
       enable-background="new    "
       fill="#8c8663"
       gorn="0.8.0.0.0.0.0.0.0.0.0.0.0.1"
       id="connector5pin"
       opacity="0.95" />
    <path
       d="m 108.406,89.229 -0.809,-0.808 c -0.051,0.052 -0.063,0.142 -0.141,0.142 h -1.049 c -0.078,0 -0.09,-0.09 -0.143,-0.142 l -0.807,0.808 c 0.051,0.052 0.063,0.143 0.143,0.143 h 2.664 c 0.08,0 0.092,-0.092 0.142,-0.143 z"
       enable-background="new    "
       fill="#5e5b43"
       gorn="0.8.0.0.0.0.0.0.0.0.0.0.0.2"
       id="path2"
       opacity="0.95" />
    <path
       d="m 107.6,87.088 c 0.051,0.051 0.141,0.064 0.141,0.143 v 1.049 c 0,0.078 -0.092,0.09 -0.143,0.142 l 0.809,0.808 c 0.051,-0.051 0.141,-0.063 0.141,-0.141 v -2.666 c 0,-0.078 -0.09,-0.089 -0.141,-0.141 z"
       enable-background="new    "
       fill="#80795b"
       gorn="0.8.0.0.0.0.0.0.0.0.0.0.0.3"
       id="path3"
       opacity="0.95" />
    <path
       d="m 105.459,86.282 c -0.051,0.051 -0.143,0.063 -0.143,0.141 v 2.666 c 0,0.078 0.092,0.09 0.143,0.141 l 0.807,-0.808 c -0.051,-0.052 -0.141,-0.063 -0.141,-0.142 v -1.049 c 0,-0.078 0.09,-0.09 0.141,-0.141 z"
       enable-background="new    "
       fill="#9a916c"
       gorn="0.8.0.0.0.0.0.0.0.0.0.0.0.4"
       id="path4"
       opacity="0.95" />
    <path
       d="m 105.459,86.282 0.807,0.808 c 0.053,-0.051 0.064,-0.142 0.143,-0.142 h 1.049 c 0.078,0 0.092,0.089 0.143,0.14 l 0.807,-0.806 c -0.051,-0.051 -0.063,-0.142 -0.141,-0.142 h -2.664 c -0.081,0 -0.093,0.091 -0.144,0.142 z"
       enable-background="new    "
       fill="#b8af82"
       gorn="0.8.0.0.0.0.0.0.0.0.0.0.0.5"
       id="path5"
       opacity="0.95" />
  </g>
  <g
     id="connector6pin">
    <rect
       fill="#9a916c"
       gorn="0.9.0.0.0.0.0.0.0.0.0.0.0.0.0.0.0.0.0.0.0.0.0.0.0"
       height="3.2309999"
       id="rect50"
       rx="0.28299999"
       width="3.2309999"
       x="40.863235"
       y="6.8899965" />
    <path
       d="m 41.953438,7.695997 h 1.049 c 0.156,0 0.283,0.127 0.283,0.284 v 1.049 c 0,0.156 -0.127,0.283 -0.283,0.283 h -1.049 c -0.156,0 -0.283,-0.127 -0.283,-0.283 v -1.049 c 0,-0.156 0.127,-0.284 0.283,-0.284 z"
       enable-background="new    "
       fill="#8c8663"
       gorn="0.9.0.0.0.0.0.0.0.0.0.0.0.1"
       id="path236"
       opacity="0.95" />
    <path
       d="m 43.951438,9.977997 -0.809,-0.808 c -0.051,0.052 -0.063,0.142 -0.141,0.142 h -1.049 c -0.078,0 -0.09,-0.09 -0.143,-0.142 l -0.807,0.808 c 0.051,0.052 0.063,0.143 0.143,0.143 h 2.664 c 0.08,0 0.092,-0.092 0.142,-0.143 z"
       enable-background="new    "
       fill="#5e5b43"
       gorn="0.9.0.0.0.0.0.0.0.0.0.0.0.2"
       id="path54"
       opacity="0.95" />
    <path
       d="m 43.145438,7.836997 c 0.051,0.051 0.141,0.064 0.141,0.143 v 1.049 c 0,0.078 -0.092,0.09 -0.143,0.142 l 0.809,0.808 c 0.051,-0.051 0.141,-0.063 0.141,-0.141 v -2.666 c 0,-0.078 -0.09,-0.089 -0.141,-0.141 z"
       enable-background="new    "
       fill="#80795b"
       gorn="0.9.0.0.0.0.0.0.0.0.0.0.0.3"
       id="path55"
       opacity="0.95" />
    <path
       d="m 41.004438,7.030997 c -0.051,0.051 -0.143,0.063 -0.143,0.141 v 2.666 c 0,0.078 0.092,0.09 0.143,0.141 l 0.807,-0.808 c -0.051,-0.052 -0.141,-0.063 -0.141,-0.142 v -1.049 c 0,-0.078 0.09,-0.09 0.141,-0.141 z"
       enable-background="new    "
       fill="#9a916c"
       gorn="0.9.0.0.0.0.0.0.0.0.0.0.0.4"
       id="path56"
       opacity="0.95" />
    <path
       d="m 41.004438,7.030997 0.807,0.808 c 0.053,-0.051 0.064,-0.142 0.143,-0.142 h 1.049 c 0.078,0 0.092,0.089 0.143,0.14 l 0.807,-0.806 c -0.051,-0.051 -0.063,-0.142 -0.141,-0.142 h -2.664 c -0.081,0 -0.093,0.091 -0.144,0.142 z"
       enable-background="new    "
       fill="#b8af82"
       gorn="0.9.0.0.0.0.0.0.0.0.0.0.0.5"
       id="path57"
       opacity="0.95" />
  </g>
  <g
     id="connector7pin">
    <rect
       fill="#9a916c"
       gorn="0.10.0.0.0.0.0.0.0.0.0.0.0.0.0.0.0.0.0.0.0.0.0.0.0"
       height="3.2309999"
       id="rect111"
       rx="0.28299999"
       width="3.2309999"
       x="47.949856"
       y="6.8899965" />
    <path
       d="m 49.040056,7.695997 h 1.049 c 0.156,0 0.283,0.127 0.283,0.284 v 1.049 c 0,0.156 -0.127,0.283 -0.283,0.283 h -1.049 c -0.156,0 -0.283,-0.127 -0.283,-0.283 v -1.049 c 0,-0.156 0.127,-0.284 0.283,-0.284 z"
       enable-background="new    "
       fill="#8c8663"
       gorn="0.10.0.0.0.0.0.0.0.0.0.0.0.1"
       id="path237"
       opacity="0.95" />
    <path
       d="m 51.038056,9.977997 -0.809,-0.808 c -0.051,0.052 -0.063,0.142 -0.141,0.142 h -1.049 c -0.078,0 -0.09,-0.09 -0.143,-0.142 l -0.807,0.808 c 0.051,0.052 0.063,0.143 0.143,0.143 h 2.664 c 0.08,0 0.092,-0.092 0.142,-0.143 z"
       enable-background="new    "
       fill="#5e5b43"
       gorn="0.10.0.0.0.0.0.0.0.0.0.0.0.2"
       id="path118"
       opacity="0.95" />
    <path
       d="m 50.232056,7.836997 c 0.051,0.051 0.141,0.064 0.141,0.143 v 1.049 c 0,0.078 -0.092,0.09 -0.143,0.142 l 0.809,0.808 c 0.051,-0.051 0.141,-0.063 0.141,-0.141 v -2.666 c 0,-0.078 -0.09,-0.089 -0.141,-0.141 z"
       enable-background="new    "
       fill="#80795b"
       gorn="0.10.0.0.0.0.0.0.0.0.0.0.0.3"
       id="path119"
       opacity="0.95" />
    <path
       d="m 48.091056,7.030997 c -0.051,0.051 -0.143,0.063 -0.143,0.141 v 2.666 c 0,0.078 0.092,0.09 0.143,0.141 l 0.807,-0.808 c -0.051,-0.052 -0.141,-0.063 -0.141,-0.142 v -1.049 c 0,-0.078 0.09,-0.09 0.141,-0.141 z"
       enable-background="new    "
       fill="#9a916c"
       gorn="0.10.0.0.0.0.0.0.0.0.0.0.0.4"
       id="path120"
       opacity="0.95" />
    <path
       d="m 48.091056,7.030997 0.807,0.808 c 0.053,-0.051 0.064,-0.142 0.143,-0.142 h 1.049 c 0.078,0 0.092,0.089 0.143,0.14 l 0.807,-0.806 c -0.051,-0.051 -0.063,-0.142 -0.141,-0.142 h -2.664 c -0.081,0 -0.093,0.091 -0.144,0.142 z"
       enable-background="new    "
       fill="#b8af82"
       gorn="0.10.0.0.0.0.0.0.0.0.0.0.0.5"
       id="path121"
       opacity="0.95" />
  </g>
  <g
     id="connector8pin"
     transform="translate(7.0866179)">
    <rect
       fill="#9a916c"
       gorn="0.10.0.0.0.0.0.0.0.0.0.0.0.0.0.0.0.0.0.0.0.0.0.0.0"
       height="3.2309999"
       id="rect231"
       rx="0.28299999"
       width="3.2309999"
       x="47.949856"
       y="6.8899965" />
    <path
       d="m 49.040056,7.695997 h 1.049 c 0.156,0 0.283,0.127 0.283,0.284 v 1.049 c 0,0.156 -0.127,0.283 -0.283,0.283 h -1.049 c -0.156,0 -0.283,-0.127 -0.283,-0.283 v -1.049 c 0,-0.156 0.127,-0.284 0.283,-0.284 z"
       enable-background="new    "
       fill="#8c8663"
       gorn="0.10.0.0.0.0.0.0.0.0.0.0.0.1"
       id="path231"
       opacity="0.95" />
    <path
       d="m 51.038056,9.977997 -0.809,-0.808 c -0.051,0.052 -0.063,0.142 -0.141,0.142 h -1.049 c -0.078,0 -0.09,-0.09 -0.143,-0.142 l -0.807,0.808 c 0.051,0.052 0.063,0.143 0.143,0.143 h 2.664 c 0.08,0 0.092,-0.092 0.142,-0.143 z"
       enable-background="new    "
       fill="#5e5b43"
       gorn="0.10.0.0.0.0.0.0.0.0.0.0.0.2"
       id="path232"
       opacity="0.95" />
    <path
       d="m 50.232056,7.836997 c 0.051,0.051 0.141,0.064 0.141,0.143 v 1.049 c 0,0.078 -0.092,0.09 -0.143,0.142 l 0.809,0.808 c 0.051,-0.051 0.141,-0.063 0.141,-0.141 v -2.666 c 0,-0.078 -0.09,-0.089 -0.141,-0.141 z"
       enable-background="new    "
       fill="#80795b"
       gorn="0.10.0.0.0.0.0.0.0.0.0.0.0.3"
       id="path233"
       opacity="0.95" />
    <path
       d="m 48.091056,7.030997 c -0.051,0.051 -0.143,0.063 -0.143,0.141 v 2.666 c 0,0.078 0.092,0.09 0.143,0.141 l 0.807,-0.808 c -0.051,-0.052 -0.141,-0.063 -0.141,-0.142 v -1.049 c 0,-0.078 0.09,-0.09 0.141,-0.141 z"
       enable-background="new    "
       fill="#9a916c"
       gorn="0.10.0.0.0.0.0.0.0.0.0.0.0.4"
       id="path234"
       opacity="0.95" />
    <path
       d="m 48.091056,7.030997 0.807,0.808 c 0.053,-0.051 0.064,-0.142 0.143,-0.142 h 1.049 c 0.078,0 0.092,0.089 0.143,0.14 l 0.807,-0.806 c -0.051,-0.051 -0.063,-0.142 -0.141,-0.142 h -2.664 c -0.081,0 -0.093,0.091 -0.144,0.142 z"
       enable-background="new    "
       fill="#b8af82"
       gorn="0.10.0.0.0.0.0.0.0.0.0.0.0.5"
       id="path235"
       opacity="0.95" />
  </g>
</svg>
